<svg width="56" height="56" viewBox="0 0 56 56" fill="none" xmlns="http://www.w3.org/2000/svg">
<path d="M33.6186 31.9667C30.9049 33.964 26.9756 35.0303 23.5899 35.0303C19.0669 35.0529 14.6984 33.3862 11.3399 30.3567C11.0879 30.128 11.3166 29.8153 11.6199 29.9927C15.1082 32.0227 19.4202 33.243 23.8746 33.243C26.8799 33.243 30.1839 32.6223 33.2243 31.332C33.6816 31.136 34.0666 31.633 33.6186 31.9667Z" fill="black"/>
<path d="M34.7432 30.6763C35.0932 31.1196 34.3582 32.9513 34.0315 33.768C33.9335 34.0153 34.1458 34.1156 34.3698 33.929C35.8258 32.711 36.1992 30.163 35.9028 29.7943C35.6065 29.4256 33.0632 29.113 31.5138 30.205C31.2735 30.3706 31.3132 30.6016 31.5792 30.5713C32.4542 30.4663 34.3978 30.233 34.7432 30.6763ZM31.6398 22.505V21.4433C31.6398 21.2823 31.7635 21.175 31.9082 21.175H36.6565C36.8082 21.175 36.9295 21.2846 36.9295 21.4433V22.3533C36.9295 22.505 36.8012 22.7033 36.5725 23.0183L34.1132 26.53C35.0278 26.5066 35.9915 26.6443 36.8198 27.111C37.0065 27.216 37.0578 27.37 37.0742 27.524V28.6556C37.0742 28.8096 36.9015 28.9893 36.7242 28.896C35.9481 28.4964 35.0876 28.2887 34.2147 28.2903C33.3418 28.292 32.4821 28.5028 31.7075 28.9053C31.5442 28.994 31.3715 28.8143 31.3715 28.6603V27.587C31.3715 27.4143 31.3715 27.1203 31.5465 26.8566L34.3932 22.7733H31.9128C31.7612 22.7733 31.6375 22.6636 31.6375 22.5073M14.3242 29.12H12.8775C12.813 29.115 12.7522 29.088 12.7054 29.0433C12.6586 28.9986 12.6287 28.9392 12.6208 28.875V21.462C12.6208 21.3126 12.7445 21.196 12.9008 21.196H14.2472C14.3872 21.2006 14.4992 21.3103 14.5085 21.4433V22.4116H14.5342C14.8842 21.476 15.5468 21.0396 16.4358 21.0396C17.3412 21.0396 17.9058 21.476 18.3118 22.4116C18.4561 22.001 18.727 21.6469 19.0856 21.4003C19.4442 21.1537 19.8718 21.0274 20.3068 21.0396C20.6293 21.0339 20.9486 21.1042 21.2389 21.2449C21.5292 21.3855 21.7822 21.5926 21.9775 21.8493C22.4348 22.4723 22.3415 23.38 22.3415 24.1733V28.8516C22.3409 28.8877 22.3332 28.9232 22.3187 28.9563C22.3043 28.9893 22.2835 29.0192 22.2574 29.0441C22.2314 29.0691 22.2007 29.0886 22.1671 29.1017C22.1334 29.1147 22.0976 29.1209 22.0615 29.12H20.6195C20.5505 29.1154 20.4856 29.0855 20.4374 29.0359C20.3891 28.9864 20.3609 28.9207 20.3582 28.8516V24.9223C20.3582 24.6096 20.3862 23.8303 20.3185 23.534C20.2112 23.037 19.8868 22.897 19.4692 22.897C19.1192 22.897 18.7552 23.1303 18.6058 23.5036C18.4565 23.877 18.4728 24.5023 18.4728 24.9223V28.8516C18.4722 28.8877 18.4645 28.9232 18.4501 28.9563C18.4356 28.9893 18.4148 29.0192 18.3888 29.0441C18.3627 29.0691 18.332 29.0886 18.2984 29.1017C18.2648 29.1147 18.2289 29.1209 18.1928 29.12H16.7532C16.684 29.1164 16.6188 29.0867 16.5707 29.0369C16.5226 28.9871 16.4953 28.9209 16.4942 28.8516L16.4918 24.9223C16.4918 24.0963 16.6272 22.8806 15.6028 22.8806C14.5645 22.8806 14.6042 24.066 14.6042 24.9223V28.8516C14.6036 28.8877 14.5958 28.9232 14.5814 28.9563C14.567 28.9893 14.5461 29.0192 14.5201 29.0441C14.4941 29.0691 14.4633 29.0886 14.4297 29.1017C14.3961 29.1147 14.3602 29.1209 14.3242 29.12ZM41.0198 21.0396C43.1618 21.0396 44.3215 22.8806 44.3215 25.221C44.3215 27.4796 43.0382 29.274 41.0175 29.274C38.9128 29.274 37.7672 27.433 37.7672 25.1416C37.7672 22.8316 38.9292 21.0396 41.0198 21.0396ZM41.0268 22.5516C39.9628 22.5516 39.8952 24.003 39.8952 24.9083C39.8952 25.8136 39.8812 27.748 41.0152 27.748C42.1352 27.748 42.1865 26.1846 42.1865 25.235C42.1865 24.6096 42.1632 23.863 41.9718 23.2703C41.8085 22.7546 41.4865 22.5516 41.0268 22.5516ZM47.1005 29.12H45.6608C45.5922 29.1148 45.5279 29.0847 45.4802 29.0352C45.4324 28.9857 45.4045 28.9203 45.4018 28.8516L45.3995 21.4363C45.4076 21.3685 45.4409 21.3061 45.4928 21.2617C45.5446 21.2172 45.6112 21.1937 45.6795 21.196H47.0165C47.0758 21.1989 47.1326 21.2206 47.1787 21.2579C47.2248 21.2953 47.2579 21.3463 47.2732 21.4036V22.5353H47.3012C47.7048 21.5226 48.2718 21.0396 49.2705 21.0396C49.9168 21.0396 50.5492 21.273 50.9552 21.9123C51.3332 22.505 51.3332 23.5036 51.3332 24.2223V28.8866C51.322 28.9525 51.2877 29.0123 51.2363 29.0551C51.185 29.0979 51.12 29.1209 51.0532 29.12H49.6065C49.5437 29.1156 49.4843 29.0902 49.4377 29.0478C49.3911 29.0055 49.3602 28.9487 49.3498 28.8866V24.8593C49.3498 24.0496 49.4432 22.8643 48.4468 22.8643C48.0968 22.8643 47.7702 23.0976 47.6115 23.457C47.4085 23.9096 47.3828 24.36 47.3828 24.8593V28.8516C47.3798 28.9242 47.3487 28.9928 47.296 29.0429C47.2433 29.093 47.1732 29.1206 47.1005 29.12ZM27.8575 25.5803V25.2676C26.8098 25.2676 25.7085 25.4893 25.7085 26.7213C25.7085 27.3443 26.0328 27.7666 26.5882 27.7666C26.9918 27.7666 27.3582 27.517 27.5868 27.111C27.8715 26.6116 27.8575 26.1426 27.8575 25.5803ZM29.3135 29.099C29.2669 29.1384 29.2094 29.1629 29.1486 29.1691C29.0878 29.1754 29.0265 29.1631 28.9728 29.134C28.4922 28.7373 28.4058 28.5506 28.1422 28.1703C27.3488 28.98 26.7888 29.2203 25.7622 29.2203C24.5465 29.2203 23.6015 28.4736 23.6015 26.971C23.6015 25.7996 24.2338 24.9993 25.1415 24.6096C25.9255 24.2643 27.0198 24.2036 27.8575 24.108V23.9213C27.8575 23.5783 27.8808 23.1723 27.6802 22.876C27.5052 22.61 27.1668 22.5003 26.8682 22.5003C26.3198 22.5003 25.8298 22.7803 25.7085 23.366C25.6852 23.4966 25.5895 23.625 25.4565 23.632L24.0565 23.4803C23.9398 23.4546 23.8068 23.359 23.8418 23.177C24.1638 21.4806 25.6992 20.9673 27.0735 20.9673C27.7735 20.9673 28.6928 21.154 29.2482 21.6883C29.9505 22.3416 29.8828 23.219 29.8828 24.171V26.4226C29.8828 27.0993 30.1628 27.3956 30.4288 27.762C30.5198 27.8903 30.5408 28.0466 30.4218 28.1446C30.1278 28.392 29.6052 28.847 29.3158 29.1036L29.3135 29.099ZM8.9225 25.5803V25.2676C7.87717 25.2676 6.77584 25.4893 6.77584 26.7213C6.77584 27.3443 7.09784 27.7666 7.65317 27.7666C8.05917 27.7666 8.42317 27.517 8.65184 27.111C8.9365 26.6116 8.9225 26.1426 8.9225 25.5803ZM10.3785 29.099C10.3319 29.1384 10.2744 29.1629 10.2136 29.1691C10.1528 29.1754 10.0915 29.1631 10.0378 29.134C9.55717 28.7373 9.47317 28.5506 9.2095 28.1703C8.41617 28.98 7.85617 29.2203 6.8295 29.2203C5.61384 29.2203 4.6665 28.4736 4.6665 26.971C4.6665 25.7996 5.30117 24.9993 6.2065 24.6096C6.9905 24.2643 8.08484 24.2036 8.9225 24.108V23.9213C8.9225 23.5783 8.94817 23.1723 8.7475 22.876C8.57017 22.61 8.23417 22.5003 7.93784 22.5003C7.38717 22.5003 6.89484 22.7803 6.77584 23.366C6.7525 23.4966 6.6545 23.625 6.52617 23.632L5.12384 23.4803C5.00717 23.4546 4.8765 23.359 4.90917 23.177C5.23117 21.4806 6.76417 20.9673 8.1385 20.9673C8.84084 20.9673 9.76017 21.154 10.3132 21.6883C11.0155 22.3416 10.9502 23.219 10.9502 24.171V26.4226C10.9502 27.0993 11.2302 27.3956 11.4938 27.762C11.5872 27.8903 11.6082 28.0466 11.4892 28.1446C11.1952 28.392 10.6725 28.847 10.3832 29.1036L10.3785 29.099Z" fill="black"/>
</svg>
