<svg width="16" height="16" viewBox="0 0 16 16" fill="none" xmlns="http://www.w3.org/2000/svg">
<g clip-path="url(#clip0_7251_30902)">
<path d="M12 1.65C10.85 0.925 9.475 0.5 8 0.5C6.525 0.5 5.15 0.925 4 1.65V14.325C5.15 15.05 6.525 15.475 8 15.475C9.475 15.475 10.85 15.05 12 14.325V1.65Z" fill="#F9F9F9"/>
<path d="M12 1.6499V14.3249C14.1 13.0249 15.5 10.6249 15.5 7.9749C15.5 5.3249 14.1 2.9749 12 1.6499ZM4 1.6499C1.9 2.9749 0.5 5.3749 0.5 7.9999C0.5 10.6249 1.9 13.0249 4 14.3499V1.6499ZM10.725 7.8999C10.625 7.8499 10.6 7.7499 10.625 7.6999L10.875 6.7999L10 6.9749C9.975 6.9749 9.875 6.9749 9.85 6.7999L9.775 6.4999L9.175 7.1999C9.175 7.1999 8.775 7.6249 8.9 6.9749L9.15 5.5999L8.675 5.8499C8.65 5.8499 8.55 5.8749 8.425 5.6249L8 4.7499L7.55 5.5749C7.425 5.8249 7.325 5.7999 7.3 5.7999L6.825 5.5499L7.075 6.9249C7.2 7.5749 6.8 7.1499 6.8 7.1499L6.2 6.4499L6.125 6.7499C6.075 6.9249 6 6.9249 5.975 6.9249L5.1 6.7499L5.35 7.6499C5.35 7.7249 5.35 7.7999 5.25 7.8499L5 7.9999C5 7.9999 6 8.7999 6.325 9.0749C6.4 9.1249 6.55 9.2749 6.5 9.4499L6.375 9.7999L7.75 9.5999C7.825 9.5999 7.975 9.5999 7.95 9.8249L7.875 11.2499H8.125L8.05 9.8249C8.05 9.5999 8.2 9.5999 8.25 9.5999L9.625 9.7999L9.5 9.4499C9.45 9.2749 9.6 9.1249 9.675 9.0749C10 8.7999 11 7.9999 11 7.9999L10.725 7.8999Z" fill="#ED4C5C"/>
</g>
<defs>
<clipPath id="clip0_7251_30902">
<rect width="16" height="16" fill="white"/>
</clipPath>
</defs>
</svg>
