<svg width="33" height="32" viewBox="0 0 33 32" fill="none" xmlns="http://www.w3.org/2000/svg">
<g clip-path="url(#clip0_7251_31128)">
<path d="M32.127 4.0106C31.571 3.29993 30.599 3.86926 30.171 4.11726C27.1257 5.91193 26.6763 9.07193 25.615 10.8866C24.7803 12.3399 23.4123 13.4066 22.175 13.4893C21.2604 13.5546 20.2684 13.3773 19.2843 12.9493C16.875 11.9079 15.5777 10.5599 15.2617 10.3226C14.6124 9.82926 9.62168 4.96926 5.55502 4.7706C5.55502 4.7706 5.05902 3.7706 4.93502 3.75326C4.63902 3.71993 4.33502 4.3546 4.11368 4.42126C3.91368 4.49193 3.56302 3.7386 3.36035 3.77193C3.15635 3.7986 2.95768 4.55326 2.56035 4.94126C2.26702 5.22526 1.91235 5.20793 1.71102 5.5586C1.64168 5.6866 1.66568 5.91193 1.58702 6.1186C1.41768 6.54526 0.852351 6.5906 0.847017 7.04793C0.847017 7.55593 1.32302 7.65326 1.73902 8.00793C2.06968 8.2906 2.09235 8.4906 2.47768 8.6226C2.82168 8.73993 3.32035 8.37326 3.76302 8.50526C4.13235 8.61326 4.48702 8.69193 4.56568 9.06926C4.63768 9.4106 4.56568 9.9466 4.11235 9.8866C3.96302 9.8666 3.31502 9.6546 2.51502 9.73993C1.54835 9.8426 0.444351 10.1519 0.336351 11.2199C0.281684 11.8159 1.02168 12.5133 1.74302 12.3746C2.23768 12.2799 2.00435 11.6999 2.27502 11.4199C2.63102 11.0599 4.63768 12.6786 6.50435 12.6786C7.29502 12.6786 7.87902 12.4786 8.46035 11.8719C8.51368 11.8333 8.58435 11.7359 8.66702 11.7253C8.76001 11.7485 8.84808 11.7882 8.92702 11.8426C10.435 13.0386 11.5724 15.4426 17.1003 15.4706C17.8764 15.4799 18.767 15.8426 19.495 16.5066C20.135 17.0839 20.5137 18.0066 20.8777 18.9399C21.435 20.3439 22.4257 21.6986 23.9337 23.2106C24.0137 23.3013 25.2537 24.2506 25.347 24.3213C25.363 24.3346 25.459 24.5439 25.4177 24.6613C25.391 25.5813 25.2537 28.2213 27.2377 28.3319C27.7257 28.3586 27.6043 28.0239 27.6043 27.7853C27.5977 27.3306 27.5177 26.8719 27.755 26.3986C28.0924 25.7613 27.0537 25.4533 27.0763 24.0573C27.1017 23.0119 26.2163 23.1893 25.7643 22.3906C25.511 21.9333 25.2737 21.6813 25.2977 21.1293C25.395 17.9559 24.6083 15.8653 24.2243 15.3599C23.9217 14.9679 23.6604 14.8226 23.9484 14.6399C25.6017 13.5533 25.9817 12.5413 25.9817 12.5413C26.8617 10.4866 27.6564 8.6146 28.7484 7.78126C28.9697 7.62126 29.5337 7.1946 29.8843 7.0346C30.9017 6.55193 31.4483 6.26393 31.735 5.98393C32.2097 5.5346 32.5817 4.57993 32.127 4.0106Z" fill="black"/>
</g>
<defs>
<clipPath id="clip0_7251_31128">
<rect width="32" height="32" fill="white" transform="translate(0.333496)"/>
</clipPath>
</defs>
</svg>
