<svg width="33" height="32" viewBox="0 0 33 32" fill="none" xmlns="http://www.w3.org/2000/svg">
<g clip-path="url(#clip0_7251_31123)">
<path d="M15.8282 11.7214C14.4708 11.7214 13.1442 12.1321 13.1442 13.4908C13.1442 15.8268 17.2495 14.5948 17.2495 16.0161C17.2495 16.4894 16.5228 16.6788 15.9548 16.6788C14.9135 16.6788 14.1548 16.5214 13.2388 15.9854V17.1534C13.9335 17.3734 14.8495 17.5001 15.8922 17.5001C17.3122 17.5001 18.6388 17.1214 18.6388 15.7628C18.6388 13.3001 14.5335 14.4054 14.5335 13.2054C14.5335 12.7321 15.1975 12.5428 15.7655 12.5428C16.7442 12.5428 17.7855 12.8268 18.3548 13.3641V12.1014H18.2908C17.4906 11.8653 16.6623 11.7375 15.8282 11.7214ZM28.8055 11.7214C26.6588 11.7534 25.1748 12.9534 25.1748 14.6894C25.1748 16.3628 26.5322 17.5001 28.5215 17.5001C30.6362 17.5001 32.1215 16.3001 32.1215 14.5641C32.1215 12.8588 30.7948 11.7214 28.8055 11.7214ZM23.0588 11.7534C20.5962 11.7534 18.9855 12.9214 18.9855 14.7214C18.9855 16.3628 20.4695 17.4681 22.7122 17.4681C23.4264 17.4652 24.1372 17.3697 24.8268 17.1841V15.7948C24.2895 16.3628 23.6588 16.5841 22.9642 16.5841C21.6388 16.5841 20.7535 15.7641 20.7535 14.5641C20.7535 13.3961 21.7002 12.5428 22.9962 12.5428C23.7215 12.5428 24.2895 12.7961 24.7322 13.2361V11.9108C24.2588 11.7854 23.6588 11.7534 23.0588 11.7534ZM0.546829 11.9108V13.2374C1.02016 12.8908 1.96816 12.7321 3.0095 12.7321V16.3321C3.0095 16.8681 2.9775 16.9948 2.7255 17.2788H4.8095C4.58816 16.9948 4.5255 16.8374 4.5255 16.3321V12.7014H4.58816C5.50416 12.7014 6.5775 12.8588 7.05083 13.2374V11.9108H0.546829ZM7.61883 11.9108C7.84016 12.1961 7.87216 12.3534 7.87216 12.8588V16.3321C7.87216 16.8681 7.84016 17.0254 7.61883 17.2788H12.6402V15.9854C11.9455 16.4894 10.6508 16.4894 10.1135 16.4588H9.38683V14.9734H9.92416C10.3028 14.9734 10.9348 15.0041 11.3135 15.1308V14.0254C10.9348 14.1521 10.2722 14.1841 9.92416 14.1841H9.38683V12.7641H10.1135C10.7775 12.7641 11.9135 12.8908 12.3242 13.2694V11.9108H7.61883ZM28.6162 12.5748C29.7215 12.5748 30.4482 13.4908 30.4482 14.6281C30.4788 15.7321 29.7522 16.6468 28.6482 16.6468C27.5108 16.6468 26.7842 15.7321 26.7842 14.6268C26.7842 13.4908 27.5108 12.5748 28.6162 12.5748ZM2.7895 18.8268C2.1255 18.8268 1.62016 19.1734 1.36816 19.4268C1.36816 19.4268 0.768163 20.0268 0.357496 20.2468C0.325496 20.2468 0.325496 20.2788 0.357496 20.2788H4.08283C4.8095 20.2788 5.15616 20.0254 5.59883 19.6468C5.59883 19.6468 6.23083 19.0468 6.70416 18.8574C6.73483 18.8574 6.73483 18.8268 6.70416 18.8268H2.7895ZM9.1975 18.8268C8.53483 18.8268 8.0295 19.1734 7.8095 19.4268C7.8095 19.4268 7.2095 20.0268 6.79883 20.2468C6.76683 20.2468 6.76683 20.2788 6.79883 20.2788H10.5242C11.2508 20.2788 11.5975 20.0254 12.0402 19.6468C12.0402 19.6468 12.6708 19.0468 13.1135 18.8574C13.1442 18.8574 13.1442 18.8268 13.1135 18.8268H9.1975ZM15.5762 18.8268C14.9442 18.8268 14.4388 19.1734 14.1868 19.4268C14.1868 19.4268 13.5868 20.0268 13.1762 20.2468C13.1442 20.2468 13.1442 20.2788 13.1762 20.2788H16.9015C17.6282 20.2788 17.9762 20.0254 18.4175 19.6468C18.4175 19.6468 19.0495 19.0468 19.4908 18.8574C19.5228 18.8574 19.5228 18.8268 19.4908 18.8268H15.5762ZM21.9855 18.8268C21.3535 18.8268 20.8495 19.1734 20.5962 19.4268C20.5962 19.4268 19.9962 20.0268 19.5855 20.2468C19.5548 20.2468 19.5548 20.2788 19.5855 20.2788H23.3108C24.0375 20.2788 24.3842 20.0254 24.8268 19.6468C24.8268 19.6468 25.4588 19.0468 25.9002 18.8574C25.9322 18.8574 25.9322 18.8268 25.9002 18.8268H21.9855ZM28.3948 18.8268C27.7642 18.8268 27.2588 19.1734 26.9748 19.4268C26.9748 19.4268 26.3748 20.0268 25.9642 20.2468C25.9322 20.2468 25.9322 20.2788 25.9642 20.2788H29.7215C30.4468 20.2788 30.7948 20.0254 31.2362 19.6468C31.2362 19.6468 31.8682 19.0468 32.3095 18.8574C32.3415 18.8574 32.3415 18.8268 32.3095 18.8268H28.3948Z" fill="black"/>
</g>
<defs>
<clipPath id="clip0_7251_31123">
<rect width="32" height="32" fill="white" transform="translate(0.333496)"/>
</clipPath>
</defs>
</svg>
