<svg width="57" height="56" viewBox="0 0 57 56" fill="none" xmlns="http://www.w3.org/2000/svg">
<g clip-path="url(#clip0_7251_31117)">
<path d="M50.3088 21.238C49.7955 21.238 49.3848 21.525 49.3848 21.875L49.6975 25.4124C49.7325 25.627 49.9938 25.7904 50.3088 25.7904C50.6262 25.7904 50.8852 25.627 50.9202 25.4124L51.2352 21.875C51.2352 21.525 50.8245 21.238 50.3088 21.238ZM0.333496 24.0754C0.333496 24.0754 1.7265 29.785 1.94816 30.7137C2.2095 31.794 2.67616 32.193 4.02483 31.9247L4.89516 28.385C5.1145 27.5054 5.26383 26.8777 5.40616 25.9817H5.4295C5.52983 26.887 5.67216 27.5077 5.85183 28.385L6.3885 30.8374C6.5705 31.682 7.07683 32.214 8.39516 31.9247L10.4718 24.0754H8.7965L8.0895 27.4704C7.89816 28.4574 7.7255 29.2274 7.5925 30.1304H7.56916C7.44783 29.2367 7.29383 28.497 7.1025 27.5334L6.36283 24.0754H4.61983L3.83116 27.447C3.60716 28.4714 3.3995 29.2974 3.2665 30.17H3.24316C3.08645 29.2171 2.91532 28.2665 2.72983 27.3187C2.72983 27.3187 2.26083 24.9084 2.09516 24.0754H0.333496ZM16.2888 24.0754V31.9247H17.8825V24.0754H16.2888ZM38.7355 24.0754V29.8667C38.7355 30.6647 38.8848 31.2224 39.2045 31.5654C39.4845 31.864 39.9488 32.0554 40.5018 32.0554C40.9732 32.0554 41.4375 31.9667 41.6568 31.885L41.6335 30.6414C41.436 30.691 41.2328 30.7145 41.0292 30.7114C40.4878 30.7114 40.3058 30.366 40.3058 29.6474V27.433H41.6942V25.9327H40.3058V24.0754H38.7355ZM45.2175 24.0754C44.9515 24.0824 44.6482 24.2854 44.4545 24.619C44.1978 25.0647 44.2422 25.564 44.5432 25.739L47.7632 27.237C47.9638 27.3117 48.2368 27.167 48.3955 26.8964C48.5542 26.6234 48.5425 26.313 48.3745 26.1777L45.4672 24.1384C45.3915 24.0944 45.305 24.0725 45.2175 24.0754ZM55.4002 24.0754C55.3135 24.073 55.2278 24.0948 55.1528 24.1384L52.2432 26.1777C52.0775 26.313 52.0658 26.621 52.2222 26.894V26.8964C52.3808 27.1694 52.6538 27.3117 52.8545 27.237L56.0745 25.7367C56.3778 25.564 56.4222 25.0647 56.1678 24.619C55.9718 24.2854 55.6685 24.0824 55.4002 24.0754ZM12.7282 25.8954C11.7388 25.8954 10.9525 26.1754 10.5232 26.4204L10.8358 27.4937C11.2278 27.2487 11.8532 27.0434 12.4458 27.0434C13.4235 27.041 13.5845 27.5964 13.5845 27.9534V28.0374C11.4495 28.035 10.1032 28.7724 10.1032 30.2774C10.1032 31.1967 10.7892 32.0577 11.9815 32.0577C12.7165 32.0577 13.3302 31.7637 13.6988 31.2947H13.7338C13.7338 31.2947 13.9788 32.3144 15.3205 31.9247C15.2531 31.4533 15.2219 30.9775 15.2272 30.5014V28.406C15.2272 27.0714 14.6555 25.8954 12.7282 25.8954ZM22.2622 25.8954C21.2635 25.8954 20.8155 26.4017 20.5448 26.8287H20.5215V26.0284H19.0002V31.9247H20.6008V28.4667C20.6008 28.3034 20.6195 28.133 20.6778 27.9837C20.8085 27.636 21.1328 27.2277 21.6508 27.2277C22.2972 27.2277 22.5982 27.776 22.5982 28.5647V31.9247H24.1988V28.4247C24.1988 28.2707 24.2222 28.084 24.2665 27.9464C24.3279 27.739 24.4546 27.5569 24.6278 27.4274C24.8011 27.2979 25.0115 27.2279 25.2278 27.2277C25.8812 27.2277 26.1985 27.7644 26.1985 28.693V31.9247H27.7992V28.4527C27.7992 26.621 26.8682 25.8954 25.8205 25.8954C25.3538 25.8954 24.9875 26.012 24.6562 26.215C24.3762 26.3861 24.1273 26.6311 23.9095 26.95H23.8862C23.7574 26.6282 23.5322 26.354 23.2414 26.1652C22.9506 25.9764 22.6086 25.8821 22.2622 25.8954ZM31.0588 25.8954C30.0672 25.8954 29.2832 26.1754 28.8538 26.4204L29.1665 27.4937C29.5585 27.2487 30.1838 27.0434 30.7765 27.0434C31.7542 27.041 31.9128 27.5964 31.9128 27.9534V28.0374C29.7802 28.035 28.4338 28.7724 28.4338 30.2774C28.4338 31.1967 29.1198 32.0577 30.3122 32.0577C31.0472 32.0577 31.6608 31.7637 32.0272 31.2947H32.0645C32.0645 31.2947 32.3072 32.3144 33.6512 31.9247C33.5838 31.4533 33.5526 30.9775 33.5578 30.5014V28.406C33.5578 27.0714 32.9862 25.8954 31.0588 25.8954ZM37.7112 25.8954C37.0975 25.8954 36.3998 26.292 36.1058 27.1414H36.0615V26.0284H34.6195V31.9247H36.2645V28.9054C36.2645 28.7451 36.2762 28.6005 36.2995 28.4714C36.4208 27.8367 36.9062 27.433 37.5992 27.433C37.7905 27.433 37.9258 27.454 38.0728 27.475V25.9327C37.954 25.9068 37.8327 25.8943 37.7112 25.8954ZM47.8845 28.742C47.8429 28.742 47.8018 28.7499 47.7632 28.7654L44.5432 30.261C44.2398 30.436 44.1955 30.9354 44.4545 31.381C44.7112 31.8244 45.1662 32.0367 45.4672 31.864L48.3745 29.8247C48.5425 29.6847 48.5542 29.379 48.3978 29.1037C48.2695 28.882 48.0642 28.7467 47.8845 28.7444M52.7355 28.7444C52.5558 28.749 52.3505 28.8844 52.2222 29.1084C52.0658 29.3814 52.0775 29.6894 52.2455 29.827L55.1528 31.8664C55.4538 32.039 55.9065 31.829 56.1655 31.3834C56.4245 30.9377 56.3778 30.4384 56.0745 30.2634L52.8545 28.7654C52.8171 28.7488 52.7761 28.7401 52.7355 28.7444ZM13.6358 29.0874V29.8224C13.6375 29.9302 13.6241 30.0378 13.5962 30.142C13.5191 30.3649 13.3735 30.5578 13.1804 30.6931C12.9872 30.8284 12.7563 30.8993 12.5205 30.8957C12.0772 30.8957 11.7272 30.646 11.7272 30.1164C11.7272 29.3067 12.6208 29.0827 13.6358 29.0874ZM31.9642 29.0874V29.8224C31.9658 29.9302 31.9524 30.0378 31.9245 30.142C31.8475 30.3645 31.7024 30.5571 31.5097 30.6924C31.317 30.8277 31.0866 30.8988 30.8512 30.8957C30.4078 30.8957 30.0578 30.646 30.0578 30.1164C30.0578 29.3067 30.9492 29.0827 31.9642 29.0874ZM50.3088 30.2144C49.9938 30.2144 49.7325 30.3777 49.6975 30.5924L49.3848 34.1297C49.3848 34.4797 49.7955 34.7667 50.3088 34.7667C50.8222 34.7667 51.2352 34.4797 51.2352 34.1297L50.9202 30.5924C50.8852 30.3777 50.6262 30.2144 50.3088 30.2144Z" fill="black"/>
</g>
<defs>
<clipPath id="clip0_7251_31117">
<rect width="56" height="56" fill="white" transform="translate(0.333496)"/>
</clipPath>
</defs>
</svg>
