<svg width="18" height="19" viewBox="0 0 18 19" fill="none" xmlns="http://www.w3.org/2000/svg">
<path d="M4.5 2.75H2.25V5M13.5 2.75H15.75V5M4.5 16.25H2.25V14M13.5 16.25H15.75V14M9.38625 13.7682L12.3862 11.9683C12.4972 11.9016 12.589 11.8074 12.6527 11.6948C12.7165 11.5821 12.75 11.4549 12.75 11.3255V8.4245C12.75 8.29508 12.7165 8.16788 12.6527 8.05525C12.589 7.94262 12.4972 7.8484 12.3862 7.78175L9.38625 5.98175C9.2696 5.91167 9.13608 5.87464 9 5.87464C8.86392 5.87464 8.7304 5.91167 8.61375 5.98175L5.61375 7.78175C5.50282 7.8484 5.41102 7.94262 5.34728 8.05525C5.28354 8.16788 5.25002 8.29508 5.25 8.4245V11.3255C5.2501 11.455 5.28373 11.5822 5.3476 11.6949C5.41148 11.8075 5.50343 11.9017 5.6145 11.9683L8.6145 13.7682C8.73098 13.838 8.86421 13.8749 9 13.8749C9.13579 13.8749 9.26902 13.838 9.3855 13.7682" stroke="#d1d5db" stroke-width="1.2" stroke-linecap="round" stroke-linejoin="round"/>
<path d="M5.625 8.375L9 10.25M9 10.25C9 10.25 11.823 8.7125 12.375 8.375M9 10.25V13.625" stroke="#d1d5db" stroke-width="1.2" stroke-linecap="round" stroke-linejoin="round"/>
</svg>
