<svg width="49" height="50" viewBox="0 0 49 50" fill="none" xmlns="http://www.w3.org/2000/svg">
<rect x="0.0637207" y="0.481934" width="48.766" height="48.766" rx="6.82723" fill="url(#paint0_linear_399_24985)"/>
<path d="M22.144 18.8486C22.6788 19.9113 23.331 21.041 24.144 22.0664C24.9662 23.1032 25.9742 24.0583 27.2163 24.7354C25.2853 25.8194 23.2633 27.6966 22.0054 30.3584C21.3382 29.3378 20.4879 28.2458 19.5532 27.2568C18.637 26.2875 17.5726 25.344 16.4604 24.666C18.6019 23.5624 20.5174 21.679 22.144 18.8486Z" fill="white" stroke="white" stroke-width="2.02975"/>
<path d="M31.4668 13.9482C31.9803 14.8869 32.7071 15.9268 33.7832 16.5859C32.8972 17.1224 32.0014 17.9593 31.3867 19.0986C31.0875 18.68 30.7323 18.2472 30.3477 17.8438C29.9026 17.3769 29.3892 16.918 28.8486 16.5615C29.8265 16.0127 30.7053 15.1582 31.4668 13.9482Z" fill="white" stroke="white" stroke-width="1.35317"/>
<path d="M31.4668 30.1865C31.9803 31.1252 32.7071 32.165 33.7832 32.8242C32.8972 33.3606 32.0014 34.1976 31.3867 35.3369C31.0875 34.9183 30.7323 34.4855 30.3477 34.082C29.9026 33.6152 29.3892 33.1563 28.8486 32.7998C29.8265 32.251 30.7053 31.3965 31.4668 30.1865Z" fill="white" stroke="white" stroke-width="1.35317"/>
<defs>
<linearGradient id="paint0_linear_399_24985" x1="24.4467" y1="0.481934" x2="28.8949" y2="98.4939" gradientUnits="userSpaceOnUse">
<stop stop-color="#18CB96"/>
<stop offset="0.446005" stop-color="#0EB884"/>
<stop offset="0.696854" stop-color="#009F6D"/>
</linearGradient>
</defs>
</svg>
