<svg width="46" height="46" viewBox="0 0 46 46" fill="none" xmlns="http://www.w3.org/2000/svg">
<g clip-path="url(#clip0_1158_19171)">
<path d="M39.2711 39.2711C30.299 48.2431 15.7006 48.2428 6.7289 39.2711C-2.24279 30.2994 -2.24315 15.701 6.7289 6.72895C15.701 -2.2431 30.2995 -2.24283 39.2711 6.72895C48.2427 15.7007 48.2431 30.299 39.2711 39.2711ZM32.5525 15.5703C33.1388 14.984 33.1384 14.0335 32.5525 13.4475C31.9665 12.8616 31.016 12.8612 30.4297 13.4475L23 20.8772L15.5703 13.4475C14.9844 12.8616 14.0339 12.8612 13.4476 13.4475C12.8613 14.0339 12.8616 14.9843 13.4476 15.5703L20.8773 23L13.4476 30.4297C12.8613 31.016 12.8616 31.9665 13.4476 32.5524C14.0335 33.1383 14.984 33.1387 15.5703 32.5524L23 25.1227L30.4297 32.5524C31.0157 33.1384 31.9661 33.1387 32.5525 32.5524C33.1388 31.9661 33.1384 31.0156 32.5525 30.4297L25.1228 23L32.5525 15.5703Z" fill="#FF726C"/>
</g>
<defs>
<clipPath id="clip0_1158_19171">
<rect width="46" height="46" fill="white" transform="matrix(1 0 0 -1 0 46)"/>
</clipPath>
</defs>
</svg>
