<svg width="212" height="106" viewBox="0 0 212 106" fill="none" xmlns="http://www.w3.org/2000/svg">
<rect x="0.5" y="0.5" width="211" height="105" rx="7.5" fill="#ECFEF2"/>
<rect x="0.5" y="0.5" width="211" height="105" rx="7.5" stroke="#EBEBEB"/>
<rect x="30" y="9.94141" width="152" height="95.8235" rx="5.64706" fill="white"/>
<path d="M30 14.9414C30 12.18 32.2386 9.94141 35 9.94141H177C179.761 9.94141 182 12.18 182 14.9414V21.9414H30V14.9414Z" fill="#C5F5D5"/>
<rect x="86" y="13.9414" width="40.2353" height="4.23529" rx="1.41176" fill="#E1FAE9"/>
<rect x="36" y="25.9414" width="7" height="7" rx="2" fill="#BEF4CF"/>
<rect x="46" y="25.9414" width="40.2353" height="4" rx="2" fill="#ECECEC"/>
<rect x="46" y="33.9414" width="40.2353" height="4" rx="2" fill="#ECECEC"/>
<rect x="36" y="44.9414" width="7" height="7" rx="2" fill="#BEF4CF"/>
<rect x="46" y="44.9414" width="47" height="6" rx="2" fill="#30ED6F"/>
<rect x="46" y="54.9414" width="38.8235" height="4" rx="1.41176" fill="#ECECEC"/>
<rect x="36" y="65.9414" width="57" height="4.82353" rx="2" fill="#30ED6F"/>
<rect x="36" y="75.7646" width="31" height="4" rx="2" fill="#ECECEC"/>
<rect x="36" y="86.7646" width="51" height="4" rx="2" fill="#30ED6F"/>
<rect x="36" y="95.7646" width="38" height="4" rx="2" fill="#BEF4CF"/>
<rect x="103" y="25.9414" width="7.05882" height="7.05882" rx="1.41176" fill="#BEF4CF"/>
<rect x="113.059" y="25.9414" width="40.2353" height="4.23529" rx="1.41176" fill="#ECECEC"/>
<rect x="113.059" y="34.1768" width="40.2353" height="4.23529" rx="1.41176" fill="#ECECEC"/>
<rect x="103" y="45.4121" width="7.05882" height="7.05882" rx="1.41176" fill="#BEF4CF"/>
<rect x="113.059" y="45.4121" width="62.9412" height="4.23529" rx="1.41176" fill="#42F97E"/>
<rect x="113.059" y="53.6475" width="38.8235" height="4.23529" rx="1.41176" fill="#ECECEC"/>
<rect x="103" y="64.8828" width="73" height="8" rx="2.11765" fill="#C7F5D5"/>
<rect x="103" y="77.8828" width="60" height="2.82353" rx="1.41176" fill="#BEF4CF"/>
<rect x="103" y="85.7061" width="60" height="2.82353" rx="1.41176" fill="#ECECEC"/>
</svg>
