<svg width="212" height="106" viewBox="0 0 212 106" fill="none" xmlns="http://www.w3.org/2000/svg">
<rect x="0.5" y="0.5" width="211" height="105" rx="7.5" fill="white"/>
<rect x="0.5" y="0.5" width="211" height="105" rx="7.5" stroke="#F2F2F2"/>
<g filter="url(#filter0_d_5926_831)">
<rect x="62" y="18.9121" width="88.9435" height="68.9412" rx="5.64706" fill="#FCFCFC" shape-rendering="crispEdges"/>
<rect x="68" y="24.9121" width="7.05882" height="7.05882" rx="1.41176" fill="#F1F4F7"/>
<rect x="77.0586" y="24.9121" width="40.2353" height="4.23529" rx="1.41176" fill="#F1F4F7"/>
<rect x="77.0586" y="33.1475" width="40.2353" height="4.23529" rx="1.41176" fill="#F1F4F7"/>
<rect x="68" y="43.3828" width="7.05882" height="7.05882" rx="1.41176" fill="#F1F4F7"/>
<rect x="77.0586" y="43.3828" width="61.4118" height="4.23529" rx="1.41176" fill="#F1F4F7"/>
<rect x="77.0586" y="51.6182" width="38.8235" height="4.23529" rx="1.41176" fill="#F1F4F7"/>
<rect x="68" y="61.8535" width="76.9435" height="12" rx="2.11765" fill="#F1F4F7"/>
<rect x="68" y="77.8535" width="60" height="4" rx="1.41176" fill="#F1F4F7"/>
</g>
<defs>
<filter id="filter0_d_5926_831" x="54" y="14.9121" width="104.943" height="84.9414" filterUnits="userSpaceOnUse" color-interpolation-filters="sRGB">
<feFlood flood-opacity="0" result="BackgroundImageFix"/>
<feColorMatrix in="SourceAlpha" type="matrix" values="0 0 0 0 0 0 0 0 0 0 0 0 0 0 0 0 0 0 127 0" result="hardAlpha"/>
<feOffset dy="4"/>
<feGaussianBlur stdDeviation="4"/>
<feComposite in2="hardAlpha" operator="out"/>
<feColorMatrix type="matrix" values="0 0 0 0 0 0 0 0 0 0 0 0 0 0 0 0 0 0 0.04 0"/>
<feBlend mode="normal" in2="BackgroundImageFix" result="effect1_dropShadow_5926_831"/>
<feBlend mode="normal" in="SourceGraphic" in2="effect1_dropShadow_5926_831" result="shape"/>
</filter>
</defs>
</svg>
