<svg width="91" height="77" viewBox="0 0 91 77" fill="none" xmlns="http://www.w3.org/2000/svg">
<circle cx="36" cy="40.2906" r="36" fill="#F9FAFB"/>
<circle cx="1" cy="69.2906" r="1" fill="#86EFAC"/>
<circle cx="69" cy="75.2906" r="1" fill="#FDE047"/>
<circle cx="13" cy="5.29065" r="1" fill="#E5E7EB"/>
<path opacity="0.8" fill-rule="evenodd" clip-rule="evenodd" d="M31.6 39.5096V32.5906C31.6 30.5485 32.4112 28.5899 33.8553 27.1459C35.2993 25.7019 37.2578 24.8906 39.3 24.8906C41.3421 24.8906 43.3007 25.7019 44.7447 27.1459C46.1887 28.5899 47 30.5485 47 32.5906V39.5096C50.1812 40.4556 52.5 43.4036 52.5 46.8906V53.4906C52.5 55.5328 51.6887 57.4913 50.2447 58.9353C48.8007 60.3794 46.8421 61.1906 44.8 61.1906H33.8C31.7578 61.1906 29.7993 60.3794 28.3553 58.9353C26.9112 57.4913 26.1 55.5328 26.1 53.4906V46.8906C26.1003 45.2323 26.6356 43.6182 27.6265 42.2885C28.6174 40.9587 30.0109 39.9841 31.6 39.5096ZM34.9 39.1906V32.5906C34.9 31.4237 35.3635 30.3045 36.1887 29.4794C37.0139 28.6542 38.133 28.1906 39.3 28.1906C40.4669 28.1906 41.5861 28.6542 42.4112 29.4794C43.2364 30.3045 43.7 31.4237 43.7 32.5906V39.1906H34.9Z" fill="#97EDFF"/>
<path fill-rule="evenodd" clip-rule="evenodd" d="M30.5 45.7906C30.5 46.9576 30.9636 48.0767 31.7887 48.9019C32.6139 49.7271 33.733 50.1906 34.9 50.1906C36.067 50.1906 37.1861 49.7271 38.0113 48.9019C38.8364 48.0767 39.3 46.9576 39.3 45.7906C39.3 44.6237 38.8364 43.5045 38.0113 42.6794C37.1861 41.8542 36.067 41.3906 34.9 41.3906C33.733 41.3906 32.6139 41.8542 31.7887 42.6794C30.9636 43.5045 30.5 44.6237 30.5 45.7906ZM37.1 45.7906C37.1 46.3741 36.8682 46.9337 36.4556 47.3463C36.0431 47.7588 35.4835 47.9906 34.9 47.9906C34.3165 47.9906 33.7569 47.7588 33.3444 47.3463C32.9318 46.9337 32.7 46.3741 32.7 45.7906C32.7 45.2072 32.9318 44.6476 33.3444 44.235C33.7569 43.8224 34.3165 43.5906 34.9 43.5906C35.4835 43.5906 36.0431 43.8224 36.4556 44.235C36.8682 44.6476 37.1 45.2072 37.1 45.7906Z" fill="#009163"/>
<path fill-rule="evenodd" clip-rule="evenodd" d="M40.3999 34.7906H29.3999C27.3578 34.7906 25.3993 35.6019 23.9552 37.0459C22.5112 38.49 21.7 40.4485 21.7 42.4906V49.0906C21.7 51.1328 22.5112 53.0913 23.9552 54.5354C25.3993 55.9794 27.3578 56.7906 29.3999 56.7906H40.3999C42.4421 56.7906 44.4006 55.9794 45.8447 54.5354C47.2887 53.0913 48.0999 51.1328 48.0999 49.0906V42.4906C48.0999 40.4485 47.2887 38.49 45.8447 37.0459C44.4006 35.6019 42.4421 34.7906 40.3999 34.7906ZM23.9 42.4906C23.9 41.032 24.4794 39.633 25.5109 38.6016C26.5423 37.5701 27.9413 36.9906 29.3999 36.9906H40.3999C41.8586 36.9906 43.2576 37.5701 44.289 38.6016C45.3205 39.633 45.8999 41.032 45.8999 42.4906V49.0906C45.8999 50.5493 45.3205 51.9483 44.289 52.9797C43.2576 54.0112 41.8586 54.5907 40.3999 54.5907H29.3999C27.9413 54.5907 26.5423 54.0112 25.5109 52.9797C24.4794 51.9483 23.9 50.5493 23.9 49.0906V42.4906Z" fill="#009163"/>
<path d="M29.4 35.8906C29.4 36.1823 29.2841 36.4621 29.0778 36.6684C28.8715 36.8747 28.5917 36.9906 28.3 36.9906C28.0082 36.9906 27.7284 36.8747 27.5221 36.6684C27.3158 36.4621 27.2 36.1823 27.2 35.8906V28.1906C27.2 27.1794 27.3991 26.1781 27.7861 25.2439C28.173 24.3097 28.7402 23.4609 29.4552 22.7459C30.1702 22.0309 31.0191 21.4637 31.9533 21.0767C32.8875 20.6898 33.8888 20.4906 34.8999 20.4906C35.9111 20.4906 36.9124 20.6898 37.8466 21.0767C38.7808 21.4637 39.6297 22.0309 40.3447 22.7459C41.0597 23.4609 41.6269 24.3097 42.0138 25.2439C42.4008 26.1781 42.5999 27.1794 42.5999 28.1906V35.8906C42.5999 36.1823 42.4841 36.4621 42.2778 36.6684C42.0715 36.8747 41.7917 36.9906 41.4999 36.9906C41.2082 36.9906 40.9284 36.8747 40.7221 36.6684C40.5158 36.4621 40.3999 36.1823 40.3999 35.8906V28.1906C40.3999 26.7319 39.8205 25.333 38.789 24.3015C37.7576 23.2701 36.3586 22.6906 34.8999 22.6906C33.4413 22.6906 32.0423 23.2701 31.0109 24.3015C29.9794 25.333 29.4 26.7319 29.4 28.1906V35.8906Z" fill="#009163"/>
<path fill-rule="evenodd" clip-rule="evenodd" d="M79.9715 22.9245C82.0454 22.754 84.1698 22.8517 86.2282 22.9603C86.6713 22.985 87.028 23.329 86.993 23.722C86.989 24.1205 86.6179 24.4225 86.2058 24.403C84.211 24.2962 82.1516 24.1947 80.174 24.3621C79.7523 24.3996 79.3546 24.1068 79.2946 23.7092C79.2344 23.312 79.5497 22.9623 79.9715 22.9245Z" fill="#FFF1EE"/>
<path fill-rule="evenodd" clip-rule="evenodd" d="M75.1771 14.6817C78.8828 12.2476 82.9269 10.2656 86.5841 7.74094C86.9123 7.50287 87.4117 7.57219 87.6768 7.89178C87.9418 8.21166 87.8963 8.66585 87.5371 8.89864C83.8783 11.4321 79.8328 13.4225 76.1256 15.8655C75.7676 16.0915 75.2702 16.0108 75.0065 15.6836C74.7737 15.3619 74.8191 14.9077 75.1771 14.6817Z" fill="#FFF1EE"/>
<path fill-rule="evenodd" clip-rule="evenodd" d="M71.1358 2.20261C70.7522 3.89177 70.3688 5.58096 69.9851 7.27041C69.9186 7.66095 69.4944 7.899 69.0629 7.80596C68.6315 7.71264 68.3778 7.32733 68.4444 6.9365C68.8285 5.2445 69.2123 3.55276 69.5964 1.86105C69.694 1.47579 70.1177 1.2397 70.5488 1.33501C70.9488 1.42503 71.2333 1.81764 71.1358 2.20261Z" fill="#FFF1EE"/>
<path fill-rule="evenodd" clip-rule="evenodd" d="M77.9488 21.9533C80.0392 21.7814 82.1803 21.8798 84.255 21.9893C84.7017 22.0142 85.0612 22.3609 85.0259 22.757C85.0219 23.1587 84.6478 23.463 84.2325 23.4434C82.2219 23.3358 80.1462 23.2335 78.153 23.4022C77.7278 23.44 77.3271 23.1448 77.2665 22.7442C77.2059 22.3438 77.5236 21.9914 77.9488 21.9533Z" fill="#FFB9AA"/>
<path fill-rule="evenodd" clip-rule="evenodd" d="M73.1166 13.6452C76.8516 11.1918 80.9277 9.19415 84.6139 6.64949C84.9446 6.40953 85.448 6.4794 85.7152 6.80152C85.9823 7.12393 85.9364 7.58172 85.5744 7.81636C81.8867 10.3699 77.8091 12.3761 74.0726 14.8384C73.7117 15.0661 73.2104 14.9849 72.9446 14.655C72.7099 14.3308 72.7557 13.873 73.1166 13.6452Z" fill="#FFB9AA"/>
<path fill-rule="evenodd" clip-rule="evenodd" d="M69.0432 1.06729C68.6566 2.76983 68.2701 4.47239 67.8834 6.17521C67.8164 6.56885 67.3889 6.80879 66.954 6.71501C66.5191 6.62094 66.2634 6.23258 66.3305 5.83866C66.7176 4.13327 67.1045 2.42813 67.4916 0.72302C67.59 0.334712 68.017 0.0967571 68.4515 0.192821C68.8547 0.283554 69.1415 0.679269 69.0432 1.06729Z" fill="#FFB9AA"/>
</svg>
