<svg width="28" height="21" viewBox="0 0 28 21" fill="none" xmlns="http://www.w3.org/2000/svg">
<mask id="mask0_198_6379" style="mask-type:luminance" maskUnits="userSpaceOnUse" x="0" y="0" width="28" height="21">
<path d="M0.837891 4.16748C0.837891 1.95834 2.62875 0.16748 4.83789 0.16748H23.5046C25.7137 0.16748 27.5046 1.95834 27.5046 4.16748V16.1675C27.5046 18.3766 25.7137 20.1675 23.5046 20.1675H4.83789C2.62875 20.1675 0.837891 18.3766 0.837891 16.1675V4.16748Z" fill="white"/>
</mask>
<g mask="url(#mask0_198_6379)">
<path fill-rule="evenodd" clip-rule="evenodd" d="M7.50391 4.16748C7.50391 1.95834 9.29477 0.16748 11.5039 0.16748H16.8372C19.0464 0.16748 20.8372 1.95834 20.8372 4.16748V16.1675C20.8372 18.3766 19.0464 20.1675 16.8372 20.1675H11.5039C9.29476 20.1675 7.50391 18.3766 7.50391 16.1675V4.16748Z" fill="#F7FCFF"/>
<path fill-rule="evenodd" clip-rule="evenodd" d="M14.1516 6.00049L14.1712 16.0005C13.9058 16.0005 13.7004 15.7681 13.733 15.5047L13.811 14.8757C13.8939 14.2056 13.3034 13.6492 12.6365 13.754C11.3313 13.9589 10.7503 13.9828 10.8935 13.8257C10.9603 13.7522 11.0221 13.6678 11.0787 13.5722C11.2804 13.2322 11.1085 12.8117 10.7796 12.5923L9.08526 11.4619C8.85773 11.3101 8.95922 10.8686 9.19431 10.7288C9.31678 10.656 9.3514 10.4972 9.29815 10.2526C9.19303 9.76964 9.52213 9.24883 10.0112 9.31999L10.0449 9.32489C10.2181 9.35009 10.3925 9.28814 10.511 9.15938C10.7181 8.93424 11.0724 8.9309 11.2837 9.1521L11.9411 9.84016C12.0004 9.90216 12.0824 9.93724 12.1682 9.93724C12.3647 9.93724 12.513 9.75862 12.4768 9.5654L12.1701 7.92999C12.116 7.64144 12.423 7.42071 12.6793 7.56388C12.8346 7.65059 13.0302 7.60563 13.1321 7.45987L14.1516 6.00049ZM14.1516 6.00049L15.2085 7.46536C15.3118 7.60857 15.506 7.65163 15.6602 7.56552C15.9177 7.4217 16.226 7.64343 16.1717 7.9333L15.8657 9.5654C15.8295 9.75862 15.9777 9.93724 16.1743 9.93724C16.26 9.93724 16.3421 9.90216 16.4013 9.84016L17.0587 9.1521C17.2701 8.9309 17.6243 8.93424 17.8315 9.15938C17.9499 9.28814 18.1244 9.35009 18.2975 9.32489L18.3312 9.31999C18.8203 9.24883 19.1494 9.76963 19.0443 10.2526C18.991 10.4972 19.0257 10.656 19.1481 10.7288C19.3832 10.8687 19.4847 11.3101 19.2572 11.4619L17.5629 12.5923C17.234 12.8117 17.062 13.2322 17.2637 13.5722C17.3203 13.6678 17.3821 13.7522 17.449 13.8257C17.5921 13.9828 17.0111 13.9589 15.706 13.754C15.039 13.6492 14.4485 14.2056 14.5315 14.8757L14.6094 15.5047C14.642 15.7681 14.4366 16.0005 14.1712 16.0005L14.1516 6.00049Z" fill="#E31D1C"/>
<path fill-rule="evenodd" clip-rule="evenodd" d="M20.8379 0.16748H27.5046V20.1675H20.8379V0.16748Z" fill="#E31D1C"/>
<path fill-rule="evenodd" clip-rule="evenodd" d="M0.837891 0.16748H7.50456V20.1675H0.837891V0.16748Z" fill="#E31D1C"/>
</g>
</svg>
