<svg width="27" height="21" viewBox="0 0 27 21" fill="none" xmlns="http://www.w3.org/2000/svg">
<mask id="mask0_198_6397" style="mask-type:luminance" maskUnits="userSpaceOnUse" x="0" y="0" width="27" height="21">
<path d="M0.171875 4.16748C0.171875 1.95834 1.96274 0.16748 4.17188 0.16748H22.8385C25.0477 0.16748 26.8385 1.95834 26.8385 4.16748V16.1675C26.8385 18.3766 25.0477 20.1675 22.8385 20.1675H4.17187C1.96273 20.1675 0.171875 18.3766 0.171875 16.1675V4.16748Z" fill="white"/>
</mask>
<g mask="url(#mask0_198_6397)">
<path fill-rule="evenodd" clip-rule="evenodd" d="M4.17187 0.16748C1.96273 0.16748 0.171875 1.95834 0.171875 4.16748V16.1675C0.171875 18.3766 1.96274 20.1675 4.17188 20.1675H22.8385C25.0477 20.1675 26.8385 18.3766 26.8385 16.1675V4.16748C26.8385 1.95834 25.0477 0.16748 22.8385 0.16748H4.17187Z" fill="#FFB400"/>
<mask id="mask1_198_6397" style="mask-type:luminance" maskUnits="userSpaceOnUse" x="0" y="0" width="27" height="21">
<path fill-rule="evenodd" clip-rule="evenodd" d="M4.17187 0.16748C1.96273 0.16748 0.171875 1.95834 0.171875 4.16748V16.1675C0.171875 18.3766 1.96274 20.1675 4.17188 20.1675H22.8385C25.0477 20.1675 26.8385 18.3766 26.8385 16.1675V4.16748C26.8385 1.95834 25.0477 0.16748 22.8385 0.16748H4.17187Z" fill="white"/>
</mask>
<g mask="url(#mask1_198_6397)">
<path fill-rule="evenodd" clip-rule="evenodd" d="M2.67187 0.16748C1.29116 0.16748 0.171875 1.28677 0.171875 2.66748C0.171875 4.04819 1.29116 5.16748 2.67188 5.16748H24.3385C25.7193 5.16748 26.8385 4.04819 26.8385 2.66748C26.8385 1.28677 25.7193 0.16748 24.3385 0.16748H2.67187Z" fill="#C51918"/>
<path fill-rule="evenodd" clip-rule="evenodd" d="M2.67187 15.1675C1.29116 15.1675 0.171875 16.2868 0.171875 17.6675C0.171875 19.0482 1.29116 20.1675 2.67188 20.1675H24.3385C25.7193 20.1675 26.8385 19.0482 26.8385 17.6675C26.8385 16.2868 25.7193 15.1675 24.3385 15.1675H2.67187Z" fill="#C51918"/>
<path d="M4.3457 9.19421C4.3457 8.93647 4.55464 8.72754 4.81237 8.72754C5.0701 8.72754 5.27904 8.93647 5.27904 9.19421V13.1142C5.27904 13.3719 5.0701 13.5809 4.81237 13.5809C4.55464 13.5809 4.3457 13.3719 4.3457 13.1142V9.19421Z" fill="#F1F9FF"/>
<path fill-rule="evenodd" clip-rule="evenodd" d="M5.65266 8.12054C5.65266 7.99167 5.54819 7.88721 5.41932 7.88721H4.20599C4.07712 7.88721 3.97266 7.99167 3.97266 8.12054V8.21387C3.97266 8.29119 4.03534 8.35387 4.11266 8.35387C4.18998 8.35387 4.25266 8.41655 4.25266 8.49387V8.54053C4.25266 8.64362 4.33623 8.72719 4.43931 8.72719H5.186C5.28909 8.72719 5.37266 8.64362 5.37266 8.54053V8.49387C5.37266 8.41655 5.43534 8.35387 5.51266 8.35387C5.58998 8.35387 5.65266 8.29119 5.65266 8.21387V8.12054Z" fill="#C88A02"/>
<path fill-rule="evenodd" clip-rule="evenodd" d="M5.37266 13.7211C5.37266 13.7984 5.43534 13.8611 5.51266 13.8611C5.58998 13.8611 5.65266 13.9238 5.65266 14.0011V14.0945C5.65266 14.2233 5.54819 14.3278 5.41932 14.3278H4.20599C4.07712 14.3278 3.97266 14.2233 3.97266 14.0945V14.0011C3.97266 13.9238 4.03534 13.8611 4.11266 13.8611C4.18998 13.8611 4.25266 13.7984 4.25266 13.7211V13.6745C4.25266 13.5714 4.33623 13.4878 4.43932 13.4878H5.18599C5.28908 13.4878 5.37266 13.5714 5.37266 13.6745V13.7211Z" fill="#C88A02"/>
<path fill-rule="evenodd" clip-rule="evenodd" d="M4.81154 7.98077C5.01464 7.98077 5.03529 7.90428 5.15512 7.79006C5.24816 7.70136 5.46487 7.59135 5.46487 7.46744C5.46487 7.18393 5.17236 6.9541 4.81154 6.9541C4.45071 6.9541 4.1582 7.18393 4.1582 7.46744C4.1582 7.60549 4.30744 7.6978 4.42027 7.79006C4.53915 7.88726 4.62642 7.98077 4.81154 7.98077Z" fill="#AD1619"/>
<path fill-rule="evenodd" clip-rule="evenodd" d="M3.97266 14.6217C3.97266 14.4593 4.10433 14.3276 4.26676 14.3276H5.35855C5.52098 14.3276 5.65266 14.4593 5.65266 14.6217V14.6415C5.65266 14.845 5.43622 14.981 5.23266 14.981C4.95708 14.981 4.66823 14.981 4.39266 14.981C4.18909 14.981 3.97266 14.845 3.97266 14.6415V14.6217Z" fill="#005BBF"/>
<mask id="mask2_198_6397" style="mask-type:luminance" maskUnits="userSpaceOnUse" x="3" y="14" width="3" height="1">
<path fill-rule="evenodd" clip-rule="evenodd" d="M3.97266 14.6217C3.97266 14.4593 4.10433 14.3276 4.26676 14.3276H5.35855C5.52098 14.3276 5.65266 14.4593 5.65266 14.6217V14.6415C5.65266 14.845 5.43622 14.981 5.23266 14.981C4.95708 14.981 4.66823 14.981 4.39266 14.981C4.18909 14.981 3.97266 14.845 3.97266 14.6415V14.6217Z" fill="white"/>
</mask>
<g mask="url(#mask2_198_6397)">
<path d="M4.00245 14.908C3.97714 14.9181 3.94806 14.9065 3.93772 14.8813C3.92781 14.8571 3.93887 14.8294 3.96311 14.8196C4.10013 14.7645 4.23756 14.7368 4.37518 14.7368C4.47344 14.7368 4.52475 14.7505 4.61197 14.7893C4.68859 14.8234 4.72831 14.834 4.8121 14.834C4.89589 14.834 4.9356 14.8234 5.01222 14.7893C5.09945 14.7505 5.15076 14.7368 5.24901 14.7368C5.38663 14.7368 5.52407 14.7645 5.66108 14.8196C5.68532 14.8294 5.69639 14.8571 5.68647 14.8813C5.67614 14.9065 5.64706 14.9181 5.62174 14.908C5.49717 14.8586 5.373 14.834 5.24901 14.834C5.16522 14.834 5.12551 14.8447 5.04889 14.8787C4.96166 14.9176 4.91036 14.9312 4.8121 14.9312C4.71384 14.9312 4.66253 14.9176 4.5753 14.8787C4.49869 14.8447 4.45897 14.834 4.37518 14.834C4.25119 14.834 4.12702 14.8586 4.00245 14.908Z" fill="white"/>
<path d="M4.00246 14.6278C3.97714 14.6379 3.94805 14.6263 3.93772 14.6011C3.92781 14.5769 3.93887 14.5492 3.9631 14.5394C4.10012 14.4842 4.23756 14.4565 4.37518 14.4565C4.47344 14.4565 4.52475 14.4703 4.61197 14.509C4.68859 14.5432 4.72831 14.5538 4.8121 14.5538C4.89589 14.5538 4.9356 14.5432 5.01222 14.509C5.09945 14.4703 5.15076 14.4565 5.24901 14.4565C5.38664 14.4565 5.52408 14.4842 5.6611 14.5394C5.68533 14.5492 5.69639 14.5769 5.68648 14.6011C5.67614 14.6263 5.64705 14.6379 5.62174 14.6278C5.49717 14.5784 5.373 14.5538 5.24901 14.5538C5.16522 14.5538 5.12551 14.5644 5.04889 14.5985C4.96166 14.6373 4.91036 14.651 4.8121 14.651C4.71384 14.651 4.66253 14.6373 4.5753 14.5985C4.49869 14.5644 4.45897 14.5538 4.37518 14.5538C4.25119 14.5538 4.12702 14.5784 4.00246 14.6278Z" fill="white"/>
</g>
<path d="M13.4922 9.19421C13.4922 8.93647 13.7011 8.72754 13.9589 8.72754C14.2166 8.72754 14.4255 8.93647 14.4255 9.19421V13.1142C14.4255 13.3719 14.2166 13.5809 13.9589 13.5809C13.7011 13.5809 13.4922 13.3719 13.4922 13.1142V9.19421Z" fill="#F1F9FF"/>
<path fill-rule="evenodd" clip-rule="evenodd" d="M14.7991 8.12054C14.7991 7.99167 14.6947 7.88721 14.5658 7.88721H13.3525C13.2236 7.88721 13.1191 7.99167 13.1191 8.12054V8.21387C13.1191 8.29119 13.1818 8.35387 13.2591 8.35387C13.3365 8.35387 13.3991 8.41655 13.3991 8.49387V8.54053C13.3991 8.64362 13.4827 8.72719 13.5858 8.72719H14.3325C14.4356 8.72719 14.5191 8.64362 14.5191 8.54053V8.49387C14.5191 8.41655 14.5818 8.35387 14.6591 8.35387C14.7365 8.35387 14.7991 8.29119 14.7991 8.21387V8.12054Z" fill="#C88A02"/>
<path fill-rule="evenodd" clip-rule="evenodd" d="M14.5191 13.7211C14.5191 13.7984 14.5818 13.8611 14.6591 13.8611C14.7365 13.8611 14.7991 13.9238 14.7991 14.0011V14.0945C14.7991 14.2233 14.6947 14.3278 14.5658 14.3278H13.3525C13.2236 14.3278 13.1191 14.2233 13.1191 14.0945V14.0011C13.1191 13.9238 13.1818 13.8611 13.2591 13.8611C13.3365 13.8611 13.3991 13.7984 13.3991 13.7211V13.6745C13.3991 13.5714 13.4827 13.4878 13.5858 13.4878H14.3325C14.4356 13.4878 14.5191 13.5714 14.5191 13.6745V13.7211Z" fill="#C88A02"/>
<path fill-rule="evenodd" clip-rule="evenodd" d="M13.958 7.98077C14.1611 7.98077 14.1818 7.90428 14.3016 7.79006C14.3947 7.70136 14.6114 7.59135 14.6114 7.46744C14.6114 7.18393 14.3189 6.9541 13.958 6.9541C13.5972 6.9541 13.3047 7.18393 13.3047 7.46744C13.3047 7.60549 13.4539 7.6978 13.5668 7.79006C13.6856 7.88726 13.7729 7.98077 13.958 7.98077Z" fill="#AD1619"/>
<path fill-rule="evenodd" clip-rule="evenodd" d="M13.1191 14.6217C13.1191 14.4593 13.2508 14.3276 13.4132 14.3276H14.505C14.6675 14.3276 14.7991 14.4593 14.7991 14.6217V14.6415C14.7991 14.845 14.5827 14.981 14.3791 14.981C14.1036 14.981 13.8147 14.981 13.5391 14.981C13.3356 14.981 13.1191 14.845 13.1191 14.6415V14.6217Z" fill="#005BBF"/>
<mask id="mask3_198_6397" style="mask-type:luminance" maskUnits="userSpaceOnUse" x="13" y="14" width="2" height="1">
<path fill-rule="evenodd" clip-rule="evenodd" d="M13.1191 14.6217C13.1191 14.4593 13.2508 14.3276 13.4132 14.3276H14.505C14.6675 14.3276 14.7991 14.4593 14.7991 14.6217V14.6415C14.7991 14.845 14.5827 14.981 14.3791 14.981C14.1036 14.981 13.8147 14.981 13.5391 14.981C13.3356 14.981 13.1191 14.845 13.1191 14.6415V14.6217Z" fill="white"/>
</mask>
<g mask="url(#mask3_198_6397)">
<path d="M13.1489 14.908C13.1236 14.9181 13.0945 14.9065 13.0842 14.8813C13.0743 14.8571 13.0853 14.8294 13.1096 14.8196C13.2466 14.7645 13.384 14.7368 13.5217 14.7368C13.6199 14.7368 13.6712 14.7505 13.7584 14.7893C13.8351 14.8234 13.8747 14.834 13.9586 14.834C14.0423 14.834 14.0821 14.8234 14.1587 14.7893C14.2459 14.7505 14.2972 14.7368 14.3955 14.7368C14.5331 14.7368 14.6705 14.7645 14.8076 14.8196C14.8318 14.8294 14.8429 14.8571 14.8329 14.8813C14.8226 14.9065 14.7935 14.9181 14.7682 14.908C14.6436 14.8586 14.5195 14.834 14.3955 14.834C14.3117 14.834 14.272 14.8447 14.1953 14.8787C14.1081 14.9176 14.0568 14.9312 13.9586 14.9312C13.8603 14.9312 13.809 14.9176 13.7217 14.8787C13.6452 14.8447 13.6054 14.834 13.5217 14.834C13.3976 14.834 13.2735 14.8586 13.1489 14.908Z" fill="white"/>
<path d="M13.1489 14.6278C13.1236 14.6379 13.0945 14.6263 13.0842 14.6011C13.0743 14.5769 13.0853 14.5492 13.1096 14.5394C13.2465 14.4842 13.384 14.4565 13.5217 14.4565C13.6199 14.4565 13.6712 14.4703 13.7584 14.509C13.8351 14.5432 13.8747 14.5538 13.9586 14.5538C14.0423 14.5538 14.0821 14.5432 14.1587 14.509C14.2459 14.4703 14.2972 14.4565 14.3955 14.4565C14.5331 14.4565 14.6705 14.4842 14.8076 14.5394C14.8318 14.5492 14.8429 14.5769 14.8329 14.6011C14.8226 14.6263 14.7935 14.6379 14.7682 14.6278C14.6436 14.5784 14.5195 14.5538 14.3955 14.5538C14.3117 14.5538 14.272 14.5644 14.1953 14.5985C14.1081 14.6373 14.0568 14.651 13.9586 14.651C13.8603 14.651 13.809 14.6373 13.7217 14.5985C13.6452 14.5644 13.6054 14.5538 13.5217 14.5538C13.3976 14.5538 13.2735 14.5784 13.1489 14.6278Z" fill="white"/>
</g>
<path fill-rule="evenodd" clip-rule="evenodd" d="M3.85014 12.8396C4.11415 13.0573 4.56937 13.0251 4.58948 12.6835C4.59019 12.6714 4.59055 12.6593 4.59055 12.6471C4.59055 12.5274 4.55622 12.4235 4.49578 12.3375C4.49223 12.3325 4.49408 12.3254 4.49971 12.3229C4.4987 12.3234 4.68431 12.2425 4.74892 12.2115C4.86906 12.1539 4.97488 12.0929 5.07807 12.0178C5.14395 11.9699 5.23222 11.9177 5.36677 11.8455C5.39002 11.833 5.45303 11.7996 5.49322 11.7782L5.52734 11.7601C5.59274 11.7252 5.64143 11.6985 5.68667 11.6722C5.82765 11.5905 5.92082 11.5229 5.99207 11.4325C6.16083 11.2185 6.12579 10.9284 5.8893 10.7674C5.77343 10.6885 5.61707 10.6432 5.38788 10.6076L5.34049 10.6003C5.2622 10.5881 5.11176 10.5649 5.06009 10.5568C5.00346 10.5479 5.00461 10.4768 5.06174 10.4721C5.47582 10.4379 5.94557 10.4606 6.27571 10.5459C6.4143 10.5818 6.57211 10.5309 6.63778 10.4037L6.69016 10.3022C6.78474 10.119 6.71185 9.8938 6.51322 9.83849C5.68964 9.60918 4.3682 9.68881 3.82842 10.0605C3.36992 10.3763 3.43145 10.8536 3.90849 11.0591C4.07083 11.129 4.27331 11.1798 4.60263 11.238C4.68494 11.2525 4.70652 11.3648 4.63892 11.414C4.57578 11.4599 4.50815 11.4989 4.42611 11.5382C4.38687 11.557 4.27072 11.608 4.21745 11.6314L4.19064 11.6432C3.80207 11.8199 3.61349 12.0643 3.66984 12.5056L3.69481 12.701C3.69818 12.7274 3.71672 12.7494 3.74218 12.7572C3.75069 12.7598 3.7586 12.7641 3.76546 12.7697L3.85014 12.8396ZM3.84786 12.6166L3.84667 12.6201L3.84757 12.6176L3.84786 12.6166ZM14.0932 12.6471C14.0932 12.6592 14.0935 12.6713 14.0942 12.6833C14.1143 13.0251 14.5696 13.0573 14.8337 12.8395L14.9183 12.7697C14.9251 12.764 14.933 12.7598 14.9415 12.7572C14.967 12.7494 14.9855 12.7274 14.9889 12.701L15.0138 12.5056C15.0703 12.0643 14.8817 11.8199 14.4931 11.6432L14.4663 11.6314C14.4131 11.6081 14.2968 11.557 14.2576 11.5382C14.1756 11.4989 14.1079 11.4599 14.0448 11.414C13.9772 11.3648 13.9988 11.2525 14.0811 11.238C14.4104 11.1798 14.6129 11.129 14.7753 11.0591C15.2523 10.8536 15.3138 10.3763 14.8553 10.0605C14.3155 9.68881 12.9941 9.60918 12.1705 9.83849C11.9718 9.89379 11.899 10.119 11.9936 10.3022L12.0459 10.4037C12.1116 10.5309 12.2694 10.5818 12.408 10.5459C12.7381 10.4606 13.2079 10.4379 13.6219 10.4721C13.6791 10.4768 13.6802 10.5479 13.6236 10.5568C13.572 10.5649 13.4216 10.5881 13.3433 10.6002L13.2958 10.6076C13.0667 10.6432 12.9103 10.6885 12.7944 10.7674C12.5579 10.9284 12.5229 11.2185 12.6917 11.4325C12.7629 11.5229 12.8561 11.5905 12.997 11.6722C13.0423 11.6985 13.091 11.7252 13.1563 11.7601L13.1903 11.7781C13.2305 11.7995 13.2937 11.833 13.3169 11.8455C13.4515 11.9177 13.5398 11.9699 13.6057 12.0178C13.7088 12.0929 13.8147 12.1539 13.9348 12.2115C13.9994 12.2425 14.185 12.3234 14.184 12.3229C14.1896 12.3254 14.1915 12.3325 14.1879 12.3375C14.1275 12.4234 14.0932 12.5274 14.0932 12.6471Z" fill="#AD1619"/>
<path d="M5.07708 10.501C5.09797 10.501 5.1188 10.5031 5.13926 10.5073C5.28178 10.5368 5.38399 10.6624 5.38399 10.8079V10.816C5.38399 10.9124 5.34052 11.004 5.26112 11.0587C5.16725 11.1233 5.05502 11.1935 4.94184 11.2613C4.67542 11.4207 4.3457 11.2234 4.3457 10.9129C4.3457 10.6854 4.53014 10.501 4.75764 10.501H5.07708Z" fill="#F1F9FF"/>
<path d="M13.7991 10.501C13.7782 10.501 13.7574 10.5031 13.7369 10.5073C13.5944 10.5368 13.4922 10.6624 13.4922 10.8079V10.816C13.4922 10.9124 13.5357 11.004 13.6151 11.0587C13.7089 11.1233 13.8212 11.1935 13.9344 11.2613C14.2008 11.4207 14.5305 11.2234 14.5305 10.9129C14.5305 10.6854 14.3461 10.501 14.1186 10.501H13.7991Z" fill="#F1F9FF"/>
<path fill-rule="evenodd" clip-rule="evenodd" d="M12.4431 6.21596C12.4706 6.18831 12.4861 6.15088 12.4861 6.11185C12.4861 6.06432 12.4633 6.01948 12.4241 5.99264C12.0339 5.7257 11.6288 5.57167 11.2088 5.53056C11.0571 5.5157 10.9068 5.48503 10.7635 5.43281C10.3301 5.27482 9.89221 5.21709 9.44976 5.25963C9.44908 5.2597 9.4485 5.25912 9.44857 5.25844C9.44864 5.25785 9.4482 5.25731 9.4476 5.25725C8.9446 5.20829 8.43923 5.33311 8.14618 5.42686C7.97543 5.48149 7.79765 5.51395 7.62008 5.53864C7.07874 5.61389 6.60968 5.88859 6.44532 5.99429C6.40535 6.02 6.38281 6.06432 6.38281 6.11186C6.38281 6.15088 6.39827 6.18831 6.4258 6.21596L7.01247 6.80517C7.21699 7.01058 7.3634 7.28179 7.58508 7.46855C7.8574 7.69797 8.3977 7.9348 9.44362 7.81449C9.44426 7.81442 9.44485 7.81491 9.44485 7.81556C9.44485 7.81616 9.4446 7.81667 9.4452 7.81665C9.46876 7.816 10.6743 7.78285 10.7598 7.75441C10.794 7.74302 10.8296 7.73265 10.8659 7.72205C11.0088 7.68033 11.1637 7.63509 11.3003 7.51027C11.5271 7.3029 11.6572 7.00535 11.874 6.78757L12.4431 6.21596ZM9.44485 5.30157C9.38436 6.01117 9.44485 6.01374 9.44485 5.30157V5.30157Z" fill="#AD1619"/>
<path fill-rule="evenodd" clip-rule="evenodd" d="M7.10292 6.95948C7.10191 6.95927 7.10127 6.95826 7.10149 6.95725C7.10163 6.95661 7.10142 6.95594 7.10094 6.95548L6.47344 6.36511C6.45467 6.34745 6.45377 6.31792 6.47143 6.29915C6.48909 6.28038 6.51862 6.27948 6.53739 6.29714L7.09003 6.81707C7.10535 6.83148 7.13053 6.82366 7.135 6.80311C7.13817 6.78851 7.15259 6.77928 7.16723 6.78225C7.22797 6.79457 7.2778 6.80143 7.31583 6.80313C7.34097 6.80425 7.36004 6.78322 7.36004 6.75806C7.36004 6.72078 7.39988 6.69704 7.43266 6.71478L7.49779 6.75003C7.56554 6.7867 7.66258 6.79656 7.79039 6.77576C7.88425 6.76049 7.94759 6.65147 7.9683 6.41916C7.97738 6.31737 8.11992 6.3021 8.15036 6.39965C8.21383 6.60304 8.31064 6.6927 8.44848 6.6927C8.58314 6.6927 8.63722 6.64334 8.64322 6.51894C8.64781 6.42321 8.77642 6.39576 8.81972 6.48125C8.87714 6.59479 8.95647 6.6463 9.06914 6.6463C9.22961 6.6463 9.33702 6.51318 9.33805 6.30406C9.33805 6.3024 9.3394 6.30103 9.34105 6.30103H9.52472C9.52638 6.30103 9.52772 6.3024 9.52773 6.30406C9.52875 6.51318 9.63624 6.6463 9.79664 6.6463C9.90939 6.6463 9.98864 6.59479 10.0461 6.48125C10.0894 6.39575 10.218 6.42322 10.2226 6.51894C10.2286 6.64334 10.2827 6.6927 10.4173 6.6927C10.5551 6.6927 10.652 6.60304 10.7154 6.39965C10.7458 6.30209 10.8884 6.31736 10.8975 6.41916C10.9182 6.65147 10.9816 6.76049 11.0754 6.77576C11.2032 6.79656 11.3002 6.7867 11.368 6.75003L11.4331 6.71478C11.4659 6.69704 11.5057 6.72078 11.5057 6.75806C11.5057 6.78322 11.5248 6.80425 11.5499 6.80313C11.5831 6.80165 11.6253 6.79624 11.6758 6.7867C11.7031 6.78156 11.7298 6.79864 11.7357 6.82573C11.744 6.86386 11.7907 6.87836 11.8192 6.85162L12.4085 6.29714C12.4273 6.27948 12.4568 6.28037 12.4745 6.29914C12.4921 6.31791 12.4912 6.34747 12.4725 6.36514L11.7688 7.02718C11.6904 7.10096 11.6231 7.18631 11.5751 7.28267C11.5002 7.43279 11.4626 7.53469 11.4626 7.58348C11.4626 7.6797 11.2122 7.7368 10.7237 7.79546C10.341 7.84142 9.8893 7.87226 9.5198 7.87687L9.47297 7.87732L9.42614 7.87747C9.05664 7.87286 8.60497 7.84142 8.2222 7.79546C7.73365 7.7368 7.48334 7.6797 7.48334 7.58348C7.48334 7.55325 7.46626 7.52631 7.45105 7.50019C7.42486 7.45519 7.40364 7.39928 7.38677 7.34301C7.37436 7.3016 7.36163 7.26387 7.34173 7.2255C7.31278 7.1697 7.2722 7.11661 7.22642 7.07354L7.10664 6.96085C7.10614 6.96037 7.10551 6.96004 7.10483 6.9599L7.10292 6.95948ZM11.5835 7.07336C11.6147 7.04395 11.5881 6.98932 11.5452 6.9909C11.4886 6.99298 11.4418 6.98753 11.4058 6.97306C11.3798 6.9626 11.3511 6.95588 11.3236 6.96138C11.242 6.97767 11.1492 6.97689 11.0454 6.96C10.935 6.94204 10.8528 6.87729 10.7968 6.77081C10.7825 6.74357 10.7416 6.73977 10.7193 6.76102C10.6866 6.79221 10.7052 6.90463 10.7498 6.91219C11.1483 6.97983 11.4297 7.05386 11.4973 7.0723C11.5065 7.07481 11.5139 7.06902 11.5127 7.07849C11.5099 7.1016 11.5488 7.13033 11.5598 7.10983C11.5635 7.10293 11.5673 7.09596 11.5711 7.08892C11.5717 7.0879 11.5723 7.08691 11.573 7.08599L11.5789 7.07843C11.5803 7.07662 11.5818 7.07492 11.5835 7.07336ZM10.077 6.82333C10.1045 6.8259 10.1255 6.77204 10.1088 6.75007C10.0995 6.7379 10.0817 6.7352 10.0696 6.74454C10.0659 6.74737 10.0622 6.75014 10.0584 6.75284C10.0356 6.76925 10.0444 6.82031 10.0724 6.8229C10.0739 6.82305 10.0755 6.82319 10.077 6.82333ZM9.45964 6.7898C9.49312 6.79018 9.51161 6.73032 9.48822 6.70637C9.48082 6.69879 9.47366 6.69091 9.46676 6.68274C9.44947 6.66229 9.4163 6.66229 9.39901 6.68275C9.3875 6.69637 9.37528 6.7092 9.36238 6.72117C9.34121 6.74081 9.35593 6.79055 9.3848 6.79023L9.42222 6.78991L9.45964 6.7898ZM7.37639 7.06446C7.36493 7.06749 7.35289 7.06438 7.34426 7.05626C7.3205 7.0339 7.33884 6.9924 7.37141 6.99056C7.4097 6.98839 7.44213 6.98159 7.46829 6.96947C7.4886 6.96006 7.5114 6.95478 7.53327 6.95953C7.61699 6.9777 7.71283 6.97751 7.82036 6.96C7.93036 6.94211 8.01233 6.87781 8.06829 6.77209C8.08298 6.74434 8.12473 6.74043 8.14753 6.76204C8.18066 6.79345 8.16247 6.90084 8.11744 6.90837C7.75039 6.96975 7.47898 7.0374 7.37639 7.06446ZM8.80542 6.7514C8.8282 6.768 8.81919 6.81862 8.79112 6.82116C8.79001 6.82126 8.7889 6.82136 8.78779 6.82146C8.7602 6.82397 8.73993 6.77241 8.75678 6.75042C8.76622 6.7381 8.7843 6.73534 8.7966 6.7448C8.79952 6.74704 8.80246 6.74924 8.80542 6.7514ZM11.2172 7.5853C11.2697 7.60989 11.3138 7.59503 11.3507 7.55787C11.357 7.55155 11.3708 7.55821 11.37 7.56708C11.3698 7.56963 11.3685 7.57154 11.3663 7.57283C11.3609 7.57594 11.3537 7.57949 11.3448 7.58324C11.3141 7.59616 11.2671 7.60993 11.2061 7.62386C11.086 7.65125 10.9151 7.67848 10.7126 7.7028C10.3171 7.75028 9.8468 7.78153 9.47297 7.78398C9.09905 7.78153 8.6288 7.75028 8.23334 7.7028C8.0308 7.67848 7.85992 7.65125 7.73986 7.62386C7.69427 7.61346 7.65655 7.60315 7.62756 7.59322C7.62399 7.59199 7.62391 7.58691 7.62733 7.5853C7.83121 7.4899 9.17947 7.40037 9.42222 7.38492C9.66505 7.40037 11.0133 7.4899 11.2172 7.5853Z" fill="#C88A02"/>
<path fill-rule="evenodd" clip-rule="evenodd" d="M9.43234 4.62348C9.58693 4.62348 9.71234 4.49812 9.71234 4.34348C9.71234 4.18884 9.58693 4.06348 9.43234 4.06348C9.27768 4.06348 9.15234 4.18884 9.15234 4.34348C9.15234 4.49812 9.27768 4.62348 9.43234 4.62348Z" fill="#005BBF"/>
<path fill-rule="evenodd" clip-rule="evenodd" d="M9.25065 5.99854C9.2568 6.0305 9.22336 6.06667 9.19098 6.06345C9.17849 6.06221 9.16566 6.06156 9.15257 6.06156C9.02373 6.06156 8.91923 6.12424 8.91923 6.20156C8.91923 6.27889 9.02373 6.34156 9.15257 6.34156C9.2814 6.34156 9.3859 6.27889 9.3859 6.20156C9.3859 6.27889 9.4904 6.34156 9.61923 6.34156C9.74807 6.34156 9.85257 6.27889 9.85257 6.20156C9.85257 6.12424 9.74807 6.06156 9.61923 6.06156C9.57595 6.06156 9.535 6.02378 9.53072 5.98071C9.52955 5.96901 9.52782 5.95712 9.52548 5.94512C9.5009 5.81862 9.4194 5.72803 9.34348 5.74279C9.26765 5.75754 9.22598 5.87204 9.25065 5.99854ZM7.79096 6.15678C7.82338 6.16 7.85683 6.12386 7.85061 6.09188C7.82603 5.96538 7.86762 5.85087 7.94352 5.83612C8.01942 5.82136 8.10088 5.91195 8.12547 6.03845C8.1278 6.05046 8.12954 6.06235 8.13071 6.07406C8.135 6.11711 8.17596 6.15489 8.21923 6.15489C8.34809 6.15489 8.45256 6.21758 8.45256 6.29489C8.45256 6.37222 8.34809 6.43489 8.21923 6.43489C8.09036 6.43489 7.98589 6.37222 7.98589 6.29489C7.98589 6.37222 7.88143 6.43489 7.75256 6.43489C7.62369 6.43489 7.51923 6.37222 7.51923 6.29489C7.51923 6.21758 7.62369 6.15489 7.75256 6.15489C7.76564 6.15489 7.77847 6.15554 7.79096 6.15678ZM10.8008 6.26203C10.7901 6.33859 10.6779 6.38613 10.5503 6.36819C10.4227 6.35026 10.328 6.27365 10.3387 6.19709C10.3495 6.12052 10.4617 6.07299 10.5892 6.09092C10.6022 6.09274 10.6148 6.09516 10.627 6.09813C10.6586 6.10582 10.6968 6.07467 10.6952 6.04216C10.6884 5.91347 10.7455 5.80586 10.8227 5.80182C10.8999 5.79777 10.968 5.89881 10.9747 6.0275C10.9754 6.03971 10.9754 6.05172 10.975 6.06347C10.9732 6.10673 11.0085 6.14985 11.0514 6.15587C11.179 6.1738 11.2737 6.25041 11.263 6.32698C11.2522 6.40354 11.1401 6.45108 11.0124 6.43314C10.8848 6.4152 10.7901 6.33859 10.8008 6.26203ZM11.6895 6.63224C11.8033 6.69274 11.925 6.68644 11.9612 6.61817C11.9622 6.61631 11.9647 6.61594 11.9662 6.61739C11.9767 6.62769 11.989 6.63526 12.0028 6.63948C12.0767 6.66209 12.1672 6.5805 12.2049 6.45727C12.2426 6.33404 12.2132 6.2158 12.1392 6.1932C12.0653 6.17059 11.9748 6.25217 11.9372 6.3754C11.9276 6.40657 11.8811 6.42277 11.854 6.4047C11.8435 6.39774 11.8325 6.39116 11.821 6.38502C11.7072 6.32452 11.5855 6.33082 11.5492 6.39909C11.5129 6.46735 11.5757 6.57174 11.6895 6.63224ZM7.10991 6.66084C6.99613 6.72134 6.87446 6.71504 6.83817 6.64676C6.8372 6.64495 6.83473 6.64455 6.83326 6.64599C6.8227 6.65629 6.81045 6.66384 6.79663 6.66807C6.72269 6.69067 6.63221 6.60909 6.59453 6.48586C6.55686 6.36263 6.58626 6.24439 6.6602 6.22179C6.73414 6.19919 6.82463 6.28076 6.8623 6.40399C6.87182 6.43515 6.91834 6.45135 6.94545 6.43329C6.9559 6.42634 6.96692 6.41975 6.97846 6.41361C7.09224 6.35311 7.21391 6.35941 7.25021 6.42768C7.28651 6.49594 7.22369 6.60034 7.10991 6.66084Z" fill="#C88A02"/>
<path fill-rule="evenodd" clip-rule="evenodd" d="M9.3283 3.62636C9.3283 3.59244 9.3558 3.56494 9.38972 3.56494H9.4613C9.49522 3.56494 9.52272 3.59244 9.52272 3.62636C9.52272 3.66028 9.55022 3.68777 9.58414 3.68777H9.58626C9.62135 3.68777 9.6498 3.71622 9.6498 3.75132V3.81867C9.6498 3.85377 9.62135 3.88222 9.58626 3.88222C9.55117 3.88222 9.52272 3.91067 9.52272 3.94576V4.20757C9.52272 4.24266 9.55117 4.27111 9.58626 4.27111C9.62135 4.27111 9.6498 4.29956 9.6498 4.33465V4.36833C9.6498 4.42202 9.60627 4.46555 9.55258 4.46555H9.29644C9.24275 4.46555 9.19922 4.42202 9.19922 4.36833V4.33565C9.19922 4.3 9.22812 4.27111 9.26376 4.27111C9.29941 4.27111 9.3283 4.24221 9.3283 4.20657V3.94676C9.3283 3.91111 9.29941 3.88222 9.26376 3.88222C9.22812 3.88222 9.19922 3.85332 9.19922 3.81767V3.75232C9.19922 3.71667 9.22812 3.68777 9.26376 3.68777H9.26689C9.30081 3.68777 9.3283 3.66028 9.3283 3.62636Z" fill="#C88A02"/>
<path d="M9.29102 4.80776C9.29102 4.70467 9.37459 4.62109 9.47768 4.62109C9.58078 4.62109 9.66435 4.70467 9.66435 4.80776V5.64776C9.66435 5.75085 9.58078 5.83443 9.47768 5.83443C9.37459 5.83443 9.29102 5.75085 9.29102 5.64776V4.80776Z" fill="#C88A02"/>
<path d="M7.74275 4.82326C7.76852 4.82356 7.78931 4.84483 7.78886 4.8706C7.78841 4.89637 7.7669 4.91688 7.74113 4.91659C6.9425 4.90746 6.48345 5.02817 6.36524 5.26429C6.24557 5.50334 6.26223 5.79189 6.41844 6.13277C6.42918 6.1562 6.4196 6.18416 6.39642 6.19542C6.37324 6.20668 6.34524 6.19699 6.33448 6.17357C6.16653 5.80795 6.14788 5.48999 6.28179 5.22252C6.42228 4.94187 6.90885 4.81361 7.74275 4.82326Z" fill="white"/>
<path d="M7.91029 5.6256C7.931 5.64093 7.93842 5.66938 7.92521 5.69151C7.912 5.71364 7.88318 5.72102 7.86221 5.70605C7.70802 5.59599 7.63086 5.42131 7.63086 5.18723C7.63086 4.8235 7.81823 4.61021 8.23268 4.46424C8.4887 4.37408 8.83545 4.40695 9.27377 4.5601C9.2981 4.5686 9.31062 4.59541 9.30183 4.61964C9.29304 4.64386 9.26627 4.65634 9.24193 4.64785C8.82234 4.5014 8.49598 4.47047 8.26369 4.55227C7.88353 4.68616 7.72419 4.86755 7.72419 5.18723C7.72419 5.38925 7.78618 5.53372 7.91029 5.6256Z" fill="white"/>
<path d="M6.52537 5.94354C6.54061 5.99278 6.5153 6.0461 6.46667 6.06318C6.41803 6.08026 6.36452 6.05466 6.34924 6.00543C6.20279 5.53358 6.26614 5.21165 6.5603 5.06805C6.81902 4.94175 7.18901 4.88589 7.67195 4.89749C7.72348 4.89873 7.76357 4.94227 7.76148 4.99377C7.75939 5.04527 7.71594 5.08523 7.66441 5.08403C7.21049 5.07342 6.8692 5.12498 6.64218 5.2358C6.45112 5.32906 6.40541 5.55584 6.52537 5.94354Z" fill="#C88A02"/>
<path d="M8.61231 4.69985C8.18553 4.69985 8.01027 4.80379 7.91015 5.1107C7.85457 5.28106 7.89435 5.42969 8.03815 5.56816C8.07528 5.60392 8.08325 5.66204 8.05164 5.70275C8.02002 5.74346 7.96096 5.7512 7.92317 5.71614C7.71846 5.52626 7.65177 5.30085 7.73269 5.05281C7.86029 4.66168 8.11068 4.51318 8.61231 4.51318C8.94114 4.51318 9.19722 4.59957 9.37556 4.77537C9.39337 4.79291 9.40339 4.81686 9.40339 4.84185V5.60942C9.40339 5.66096 9.3616 5.70275 9.31006 5.70275C9.25851 5.70275 9.21672 5.66096 9.21672 5.60942V5.13939C9.21672 4.97625 9.14871 4.81042 8.99471 4.75661C8.88683 4.71891 8.75961 4.69985 8.61231 4.69985Z" fill="#C88A02"/>
<path d="M11.0938 4.91652C11.068 4.91682 11.0472 4.93811 11.0477 4.96388C11.0482 4.98964 11.0697 5.01014 11.0954 5.00984C11.8941 5.00072 12.3532 5.12143 12.4714 5.35755C12.591 5.5966 12.5744 5.88516 12.4182 6.22605C12.4074 6.24947 12.417 6.27742 12.4402 6.28868C12.4633 6.29994 12.4913 6.29026 12.5021 6.26684C12.67 5.90122 12.6887 5.58325 12.5548 5.31577C12.4143 5.03513 11.9278 4.90687 11.0938 4.91652Z" fill="white"/>
<path d="M10.7922 5.64513C10.7715 5.66047 10.7641 5.68891 10.7773 5.71103C10.7905 5.73317 10.8193 5.74056 10.8403 5.72558C10.9945 5.61552 11.0716 5.44085 11.0716 5.20677C11.0716 4.84304 10.8843 4.62974 10.4698 4.48377C10.2138 4.39361 9.86707 4.42649 9.42875 4.57964C9.40441 4.58814 9.39189 4.61494 9.40069 4.63917C9.40947 4.6634 9.43625 4.67588 9.46058 4.66738C9.8801 4.52094 10.2065 4.49 10.4388 4.5718C10.8189 4.70569 10.9783 4.88709 10.9783 5.20677C10.9783 5.40879 10.9163 5.55325 10.7922 5.64513Z" fill="white"/>
<path d="M12.3668 6.03677C12.3516 6.08603 12.3769 6.13936 12.4255 6.15644C12.4742 6.17352 12.5277 6.14792 12.543 6.09868C12.6894 5.62683 12.626 5.30491 12.3319 5.16131C12.0732 5.03502 11.7032 4.97915 11.2203 4.99075C11.1687 4.99199 11.1287 5.03554 11.1307 5.08705C11.1328 5.13855 11.1763 5.1785 11.2278 5.1773C11.6817 5.16668 12.023 5.21824 12.25 5.32906C12.4411 5.42232 12.4868 5.64909 12.3668 6.03677Z" fill="#C88A02"/>
<path d="M10.2696 4.71401C10.6964 4.71401 10.8717 4.81796 10.9718 5.12486C11.0274 5.29523 10.9876 5.44384 10.8438 5.58232C10.8066 5.61808 10.7987 5.67621 10.8303 5.71693C10.8619 5.75764 10.9209 5.76537 10.9587 5.73032C11.1635 5.54043 11.2302 5.31502 11.1493 5.06697C11.0216 4.67584 10.7713 4.52734 10.2696 4.52734C9.94085 4.52734 9.68468 4.61373 9.50635 4.78953C9.48854 4.80707 9.47852 4.83102 9.47852 4.85601V5.62359C9.47852 5.67513 9.5203 5.71692 9.57185 5.71692C9.6234 5.71692 9.66518 5.67513 9.66518 5.62359V5.15363C9.66518 4.99045 9.73323 4.82458 9.88729 4.77075C9.99514 4.73307 10.1223 4.71401 10.2696 4.71401Z" fill="#C88A02"/>
<path opacity="0.3" fill-rule="evenodd" clip-rule="evenodd" d="M6.39844 10.9205C6.39844 9.24527 7.7565 7.88721 9.43175 7.88721C11.107 7.88721 12.4651 9.24527 12.4651 10.9205V12.8525C12.4651 13.1749 12.4326 13.5018 12.271 13.7808C11.9575 14.3222 11.1871 15.1672 9.43173 15.1672C7.65595 15.1672 6.88811 14.2796 6.58166 13.7249C6.42959 13.4497 6.39844 13.1308 6.39844 12.8164V10.9205Z" fill="#E1E5E8"/>
<mask id="mask4_198_6397" style="mask-type:luminance" maskUnits="userSpaceOnUse" x="6" y="7" width="7" height="9">
<path fill-rule="evenodd" clip-rule="evenodd" d="M6.39844 10.9205C6.39844 9.24527 7.7565 7.88721 9.43175 7.88721C11.107 7.88721 12.4651 9.24527 12.4651 10.9205V12.8525C12.4651 13.1749 12.4326 13.5018 12.271 13.7808C11.9575 14.3222 11.1871 15.1672 9.43173 15.1672C7.65595 15.1672 6.88811 14.2796 6.58166 13.7249C6.42959 13.4497 6.39844 13.1308 6.39844 12.8164V10.9205Z" fill="white"/>
</mask>
<g mask="url(#mask4_198_6397)">
<path d="M6.39844 12.7866C6.39844 11.9361 7.08792 11.2466 7.93844 11.2466C8.78896 11.2466 9.47844 11.9361 9.47844 12.7866V13.3466C9.47844 14.1971 8.78896 14.8866 7.93844 14.8866C7.08792 14.8866 6.39844 14.1971 6.39844 13.3466V12.7866Z" fill="#FFC034"/>
<path d="M6.77148 11.6198C6.77148 11.5167 6.85506 11.4331 6.95815 11.4331C7.06124 11.4331 7.14482 11.5167 7.14482 11.6198V14.6998C7.14482 14.8029 7.06124 14.8864 6.95815 14.8864C6.85506 14.8864 6.77148 14.8029 6.77148 14.6998V11.6198Z" fill="#AD1619"/>
<path d="M8.07812 11.6198C8.07812 11.5167 8.1617 11.4331 8.26479 11.4331C8.36788 11.4331 8.45146 11.5167 8.45146 11.6198V14.6998C8.45146 14.8029 8.36788 14.8864 8.26479 14.8864C8.1617 14.8864 8.07812 14.8029 8.07812 14.6998V11.6198Z" fill="#AD1619"/>
<path d="M7.42578 11.6198C7.42578 11.5167 7.50935 11.4331 7.61245 11.4331C7.71554 11.4331 7.79911 11.5167 7.79911 11.6198V14.6998C7.79911 14.8029 7.71554 14.8864 7.61245 14.8864C7.50935 14.8864 7.42578 14.8029 7.42578 14.6998V11.6198Z" fill="#AD1619"/>
<path d="M8.73242 11.6198C8.73242 11.5167 8.816 11.4331 8.91909 11.4331C9.02218 11.4331 9.10576 11.5167 9.10576 11.6198V14.6998C9.10576 14.8029 9.02218 14.8864 8.91909 14.8864C8.816 14.8864 8.73242 14.8029 8.73242 14.6998V11.6198Z" fill="#AD1619"/>
<path d="M6.39844 9.33346C6.39844 8.48294 7.08792 7.79346 7.93844 7.79346C8.78896 7.79346 9.47844 8.48294 9.47844 9.33346V9.80012C9.47844 10.6506 8.78896 11.3401 7.93844 11.3401C7.08792 11.3401 6.39844 10.6506 6.39844 9.80012V9.33346Z" fill="#AD1619"/>
<path d="M9.38477 12.6938C9.38477 11.8433 10.0742 11.1538 10.9248 11.1538C11.7753 11.1538 12.4648 11.8433 12.4648 12.6938V13.1605C12.4648 14.011 11.7753 14.7005 10.9248 14.7005C10.0742 14.7005 9.38477 14.011 9.38477 13.1605V12.6938Z" fill="#AD1619"/>
<path d="M9.38477 9.52005C9.38477 8.61799 10.116 7.88672 11.0181 7.88672C11.9202 7.88672 12.6514 8.61799 12.6514 9.52005V9.70672C12.6514 10.6088 11.9202 11.3401 11.0181 11.3401C10.116 11.3401 9.38477 10.6088 9.38477 9.70672V9.52005Z" fill="#F1F9FF"/>
<path fill-rule="evenodd" clip-rule="evenodd" d="M7.70607 8.30699C7.70607 8.22967 7.76875 8.16699 7.84607 8.16699C7.92339 8.16699 7.98607 8.22967 7.98607 8.30699V8.84801C7.98607 8.89955 8.02785 8.94134 8.0794 8.94134C8.13095 8.94134 8.17273 8.89955 8.17273 8.84801V8.69418C8.17273 8.61686 8.23541 8.55418 8.31273 8.55418C8.39005 8.55418 8.45273 8.61686 8.45273 8.69418V8.80134C8.45273 8.87866 8.51541 8.94134 8.59273 8.94134C8.67005 8.94134 8.73273 9.00402 8.73273 9.08134V9.28526C8.73273 9.36258 8.67005 9.42526 8.59273 9.42526C8.51541 9.42526 8.45273 9.48794 8.45273 9.56526V10.1563C8.45273 10.2337 8.51541 10.2963 8.59273 10.2963C8.67005 10.2963 8.73273 10.359 8.73273 10.4363V10.5383C8.73273 10.672 8.62439 10.7803 8.49073 10.7803H7.29473C7.16108 10.7803 7.05273 10.672 7.05273 10.5383V10.4363C7.05273 10.359 7.11541 10.2963 7.19273 10.2963C7.27005 10.2963 7.33273 10.2337 7.33273 10.1563V9.56526C7.33273 9.48794 7.27005 9.42526 7.19273 9.42526C7.11541 9.42526 7.05273 9.36258 7.05273 9.28526V9.03467C7.05273 8.98313 7.09452 8.94134 7.14607 8.94134C7.19761 8.94134 7.2394 8.89955 7.2394 8.84801V8.69418C7.2394 8.61686 7.30208 8.55418 7.3794 8.55418C7.45672 8.55418 7.5194 8.61686 7.5194 8.69418V8.84801C7.5194 8.89955 7.56119 8.94134 7.61273 8.94134C7.66428 8.94134 7.70607 8.89955 7.70607 8.84801V8.30699Z" fill="#C88A02"/>
<path d="M11.0906 8.42467C11.0341 8.3719 11.031 8.28332 11.0838 8.22683C11.1366 8.17032 11.2252 8.1673 11.2817 8.22007L11.4784 8.40378C11.5349 8.45657 11.5379 8.54517 11.4851 8.60168C11.4323 8.65818 11.3437 8.66119 11.2872 8.6084L11.0906 8.42467Z" fill="#C88A02"/>
<path fill-rule="evenodd" clip-rule="evenodd" d="M12.1341 13.6327C12.1367 13.622 12.138 13.611 12.138 13.5999V12.7399C12.138 12.0956 11.6157 11.5732 10.9714 11.5732C10.327 11.5732 9.80469 12.0956 9.80469 12.7399V13.5833C9.80469 13.5941 9.80592 13.6048 9.80835 13.6152C9.92644 14.1186 10.3287 14.3732 10.9714 14.3732C11.6133 14.3732 12.0155 14.1252 12.1341 13.6327ZM10.9714 14.0932C10.5505 14.0932 10.2856 13.9775 10.1537 13.743C10.0919 13.633 10.0847 13.5027 10.0847 13.3764V12.7399C10.0847 12.2502 10.4817 11.8532 10.9714 11.8532C11.461 11.8532 11.858 12.2502 11.858 12.7399V13.3856C11.858 13.5165 11.8507 13.6524 11.7827 13.7642C11.6489 13.9842 11.3857 14.0932 10.9714 14.0932Z" fill="#FFC034"/>
<path fill-rule="evenodd" clip-rule="evenodd" d="M11.069 11.8413C11.069 11.7877 11.0255 11.7441 10.9718 11.7441C10.9181 11.7441 10.8746 11.7877 10.8746 11.8413V12.004C10.8746 12.2408 10.5837 12.3542 10.4235 12.1799L10.1713 11.9056C10.1364 11.8676 10.0774 11.8652 10.0394 11.9001C10.0015 11.9349 9.99899 11.994 10.0339 12.0319L10.3685 12.3958C10.4814 12.5187 10.3943 12.7171 10.2274 12.7171H10.1758C10.0985 12.7171 10.0358 12.7798 10.0358 12.8571C10.0358 12.9345 10.0985 12.9971 10.1758 12.9971H10.5183C10.5798 12.9971 10.6119 13.0703 10.5703 13.1155L10.0339 13.699C9.99898 13.737 10.0015 13.796 10.0394 13.8309C10.0774 13.8658 10.1364 13.8633 10.1713 13.8254L10.3473 13.6339C10.5346 13.4302 10.8746 13.5627 10.8746 13.8395V14.046C10.8746 14.0997 10.9181 14.1432 10.9718 14.1432C11.0255 14.1432 11.069 14.0997 11.069 14.046V13.8668C11.069 13.6149 11.3784 13.4943 11.5489 13.6797L11.6828 13.8254C11.7177 13.8633 11.7767 13.8658 11.8147 13.8309C11.8526 13.796 11.8551 13.737 11.8202 13.699L11.5468 13.4017C11.4046 13.247 11.5143 12.9971 11.7244 12.9971H11.8257C11.903 12.9971 11.9657 12.9345 11.9657 12.8571C11.9657 12.7798 11.903 12.7171 11.8257 12.7171H11.7291C11.5231 12.7171 11.4155 12.4721 11.555 12.3204L11.8202 12.0319C11.8551 11.994 11.8526 11.9349 11.8147 11.9001C11.7767 11.8652 11.7177 11.8676 11.6828 11.9056L11.4727 12.1341C11.3293 12.29 11.069 12.1886 11.069 11.9767V11.8413Z" fill="#FFC034"/>
<path fill-rule="evenodd" clip-rule="evenodd" d="M11.4075 14.7256C11.4075 14.7132 11.4194 14.7017 11.407 14.7026C11.3789 14.7048 7.42514 14.7021 7.39696 14.7024C7.38795 14.7025 7.37889 14.7025 7.3698 14.7025C7.3579 14.7026 7.34766 14.7122 7.34766 14.7241V15.2058C7.34766 15.4838 7.57297 15.7091 7.85091 15.7091H10.924C11.1911 15.7091 11.4075 15.4926 11.4075 15.2256V14.7256Z" fill="#F1F9FF"/>
<path fill-rule="evenodd" clip-rule="evenodd" d="M9.43242 11.9933C9.819 11.9933 10.1324 11.659 10.1324 11.2467C10.1324 10.8343 9.819 10.5 9.43242 10.5C9.04584 10.5 8.73242 10.8343 8.73242 11.2467C8.73242 11.659 9.04584 11.9933 9.43242 11.9933Z" fill="#005BBF" stroke="#AD1619" stroke-width="2.12648"/>
</g>
</g>
</g>
</svg>
