<svg width="27" height="21" viewBox="0 0 27 21" fill="none" xmlns="http://www.w3.org/2000/svg">
<g clip-path="url(#clip0_198_6344)">
<path d="M0.171875 0.16748H25.9672V20.325H0.171875" fill="#BD3D44"/>
<path d="M0.171875 2.48975H25.9672H0.171875ZM0.171875 5.58476H25.9672H0.171875ZM0.171875 8.69237H25.9672H0.171875ZM0.171875 11.8H25.9672H0.171875ZM0.171875 14.9076H25.9672H0.171875ZM0.171875 18.0152H25.9672H0.171875Z" fill="black"/>
<path d="M0.171875 1.71289V3.2667H25.9672V1.71289H0.171875ZM0.171875 4.8079V6.36171H25.9672V4.8079H0.171875ZM0.171875 7.91551V9.46932H25.9672V7.91551H0.171875ZM0.171875 11.0231V12.5769H25.9672V11.0231H0.171875ZM0.171875 14.1307V15.6845H25.9672V14.1307H0.171875ZM0.171875 17.2383V18.7922H25.9672V17.2383H0.171875Z" fill="white"/>
<path d="M0.171875 0.16748H14.8752V11.0231H0.171875" fill="#192F5D"/>
<path d="M13.6334 9.32231L13.9962 10.4562L13.0692 9.74226H14.1977L13.2707 10.4562L13.6334 9.32231ZM11.2151 9.32231L11.5779 10.4562L10.6509 9.74226H11.7794L10.8524 10.4562L11.2151 9.32231ZM8.75651 9.32231L9.11926 10.4562L8.19224 9.74226H9.32079L8.39377 10.4562L8.75651 9.32231ZM6.2979 9.32231L6.66065 10.4562L5.73363 9.74226H6.86217L5.93516 10.4562L6.2979 9.32231ZM3.83929 9.32231L4.20204 10.4562L3.27502 9.74226H4.40356L3.47654 10.4562L3.83929 9.32231ZM1.38068 9.32231L1.74342 10.4562L0.816406 9.74226H1.94495L1.01793 10.4562L1.38068 9.32231ZM12.4243 8.23044L12.787 9.3643L11.86 8.65039H12.9886L12.0615 9.3643L12.4243 8.23044ZM9.96567 8.23044L10.3284 9.3643L9.4014 8.65039H10.5299L9.60292 9.3643L9.96567 8.23044ZM7.54736 8.23044L7.91011 9.3643L6.98309 8.65039H8.11163L7.18462 9.3643L7.54736 8.23044ZM5.08875 8.23044L5.4515 9.3643L4.52448 8.65039H5.65302L4.726 9.3643L5.08875 8.23044ZM2.63014 8.23044L2.99288 9.3643L2.06586 8.65039H3.19441L2.26739 9.3643L2.63014 8.23044ZM13.6334 7.13858L13.9962 8.27244L13.0692 7.55853H14.1977L13.2707 8.27244L13.6334 7.13858ZM11.2151 7.13858L11.5779 8.27244L10.6509 7.55853H11.7794L10.8524 8.27244L11.2151 7.13858ZM8.75651 7.13858L9.11926 8.27244L8.19224 7.55853H9.32079L8.39377 8.27244L8.75651 7.13858ZM6.2979 7.13858L6.66065 8.27244L5.73363 7.55853H6.86217L5.93516 8.27244L6.2979 7.13858ZM3.83929 7.13858L4.20204 8.27244L3.27502 7.55853H4.40356L3.47654 8.27244L3.83929 7.13858ZM1.38068 7.13858L1.74342 8.27244L0.816406 7.55853H1.94495L1.01793 8.27244L1.38068 7.13858ZM12.4243 6.08871L12.787 7.22257L11.86 6.50866H12.9886L12.0615 7.22257L12.4243 6.08871ZM9.96567 6.08871L10.3284 7.22257L9.4014 6.50866H10.5299L9.60292 7.22257L9.96567 6.08871ZM7.54736 6.08871L7.91011 7.22257L6.98309 6.50866H8.11163L7.18462 7.22257L7.54736 6.08871ZM5.08875 6.08871L5.4515 7.22257L4.52448 6.50866H5.65302L4.726 7.22257L5.08875 6.08871ZM2.63014 6.08871L2.99288 7.22257L2.06586 6.50866H3.19441L2.26739 7.22257L2.63014 6.08871ZM13.6334 4.99685L13.9962 6.13071L13.0692 5.4168H14.1977L13.2707 6.13071L13.6334 4.99685ZM11.2151 4.99685L11.5779 6.13071L10.6509 5.4168H11.7794L10.8524 6.13071L11.2151 4.99685ZM8.75651 4.99685L9.11926 6.13071L8.19224 5.4168H9.32079L8.39377 6.13071L8.75651 4.99685ZM6.2979 4.99685L6.66065 6.13071L5.73363 5.4168H6.86217L5.93516 6.13071L6.2979 4.99685ZM3.83929 4.99685L4.20204 6.13071L3.27502 5.4168H4.40356L3.47654 6.13071L3.83929 4.99685ZM1.38068 4.99685L1.74342 6.13071L0.816406 5.4168H1.94495L1.01793 6.13071L1.38068 4.99685ZM12.4243 3.90499L12.787 5.03884L11.86 4.32493H12.9886L12.0615 5.03884L12.4243 3.90499ZM9.96567 3.90499L10.3284 5.03884L9.4014 4.32493H10.5299L9.60292 5.03884L9.96567 3.90499ZM7.54736 3.90499L7.91011 5.03884L6.98309 4.32493H8.11163L7.18462 5.03884L7.54736 3.90499ZM5.08875 3.90499L5.4515 5.03884L4.52448 4.32493H5.65302L4.726 5.03884L5.08875 3.90499ZM2.63014 3.90499L2.99288 5.03884L2.06586 4.32493H3.19441L2.26739 5.03884L2.63014 3.90499ZM13.6334 2.81312L13.9962 3.94698L13.0692 3.23307H14.1977L13.2707 3.94698L13.6334 2.81312ZM11.2151 2.81312L11.5779 3.94698L10.6509 3.23307H11.7794L10.8524 3.94698L11.2151 2.81312ZM8.75651 2.81312L9.11926 3.94698L8.19224 3.23307H9.32079L8.39377 3.94698L8.75651 2.81312ZM6.2979 2.81312L6.66065 3.94698L5.73363 3.23307H6.86217L5.93516 3.94698L6.2979 2.81312ZM3.83929 2.81312L4.20204 3.94698L3.27502 3.23307H4.40356L3.47654 3.94698L3.83929 2.81312ZM1.38068 2.81312L1.74342 3.94698L0.816406 3.23307H1.94495L1.01793 3.94698L1.38068 2.81312ZM12.4243 1.72126L12.787 2.85512L11.86 2.14121H12.9886L12.0615 2.85512L12.4243 1.72126ZM9.96567 1.72126L10.3284 2.85512L9.4014 2.14121H10.5299L9.60292 2.85512L9.96567 1.72126ZM7.54736 1.72126L7.91011 2.85512L6.98309 2.14121H8.11163L7.18462 2.85512L7.54736 1.72126ZM5.08875 1.72126L5.4515 2.85512L4.52448 2.14121H5.65302L4.726 2.85512L5.08875 1.72126ZM2.63014 1.72126L2.99288 2.85512L2.06586 2.14121H3.19441L2.26739 2.85512L2.63014 1.72126ZM13.6334 0.629395L13.9962 1.76325L13.0692 1.04934H14.1977L13.2707 1.76325L13.6334 0.629395ZM11.2151 0.629395L11.5779 1.76325L10.6509 1.04934H11.7794L10.8524 1.76325L11.2151 0.629395ZM8.75651 0.629395L9.11926 1.76325L8.19224 1.04934H9.32079L8.39377 1.76325L8.75651 0.629395ZM6.2979 0.629395L6.66065 1.76325L5.73363 1.04934H6.86217L5.93516 1.76325L6.2979 0.629395ZM3.83929 0.629395L4.20204 1.76325L3.27502 1.04934H4.40356L3.47654 1.76325L3.83929 0.629395ZM1.38068 0.629395L1.74342 1.76325L0.816406 1.04934H1.94495L1.01793 1.76325L1.38068 0.629395Z" fill="white"/>
</g>
<defs>
<clipPath id="clip0_198_6344">
<rect x="0.171875" y="0.16748" width="26" height="20" rx="4" fill="white"/>
</clipPath>
</defs>
</svg>
