<svg width="28" height="21" viewBox="0 0 28 21" fill="none" xmlns="http://www.w3.org/2000/svg">
<g clip-path="url(#clip0_198_6337)">
<path d="M0.171875 0.16748H26.9593V20.325H0.171875V0.16748Z" fill="#00008B"/>
<path d="M1.74145 0.16748L6.8478 3.968L11.9332 0.16748H13.5656V1.46932L8.54294 5.22785L13.5656 8.96538V10.2462H11.8914L6.86873 6.48769L1.86702 10.2462H0.171875V8.98638L5.17359 5.24884L0.171875 1.51131V0.16748H1.74145Z" fill="white"/>
<path d="M9.0452 6.06774L13.5656 9.40632V10.2462L7.89418 6.06774H9.0452ZM5.19451 6.48769L5.32008 7.2226L1.30197 10.2462H0.171875L5.19451 6.48769ZM13.5656 0.16748V0.230473L8.35459 4.17798L8.39644 3.25409L12.5192 0.16748H13.5656ZM0.171875 0.16748L5.17359 3.86302H3.91793L0.171875 1.04937V0.16748Z" fill="#FF0000"/>
<path d="M5.21544 0.16748V10.2462H8.56387V0.16748H5.21544ZM0.171875 3.52706V6.88664H13.5656V3.52706H0.171875Z" fill="white"/>
<path d="M0.171875 4.21997V6.23572H13.5656V4.21997H0.171875ZM5.88513 0.16748V10.2462H7.89418V0.16748H5.88513Z" fill="#FF0000"/>
<path d="M22.2294 16.8269L21.3714 16.9361L21.4634 17.797L20.844 17.1923L20.2287 17.8012L20.3124 16.9403L19.4544 16.8395L20.1785 16.3692L19.7223 15.6343L20.5426 15.9072L20.8314 15.0884L21.1286 15.9031L21.9448 15.6217L21.4969 16.3608L22.2294 16.8269ZM22.0745 11.9052L22.1875 11.3592L21.7774 10.9813L22.3299 10.9183L22.5601 10.4101L22.7903 10.9183L23.3428 10.9813L22.9326 11.3592L23.0456 11.9052L22.5601 11.628L22.0745 11.9052ZM17.7174 9.38547L16.8677 9.47785L16.9431 10.3303L16.3404 9.72142L15.7209 10.3135L15.8214 9.46106L14.9759 9.34767L15.7 8.89413L15.2605 8.15922L16.0683 8.44478L16.3697 7.64268L16.6501 8.45318L17.4621 8.18861L17.0059 8.91512L17.7216 9.38547H17.7174ZM26.2475 8.00804L25.3727 8.12142L25.469 8.99911L24.837 8.38179L24.2092 9.00331L24.2971 8.12142L23.4223 8.02064L24.1631 7.5377L23.6985 6.78599L24.5356 7.06736L24.8286 6.23586L25.13 7.06736L25.9629 6.77759L25.5025 7.5335L26.2475 8.00804ZM22.2252 4.50148L21.3588 4.59806L21.4383 5.47155L20.8231 4.85003L20.191 5.45476L20.2915 4.58546L19.4251 4.46788L20.1659 4.00594L19.7181 3.25423L20.5426 3.544L20.8482 2.7251L21.1328 3.55239L21.9615 3.27943L21.4969 4.01854L22.2252 4.50148ZM9.96579 16.365L8.04882 16.5918L8.24135 18.5193L6.8685 17.1587L5.48727 18.5109L5.69236 16.5834L3.77539 16.3398L5.40356 15.2983L4.39903 13.6437L6.22393 14.2737L6.88524 12.4511L7.534 14.2779L9.36308 13.6605L8.34599 15.3067L9.96998 16.3608L9.96579 16.365Z" fill="white"/>
</g>
<defs>
<clipPath id="clip0_198_6337">
<rect x="0.171875" y="0.16748" width="27" height="20" rx="4" fill="white"/>
</clipPath>
</defs>
</svg>
