<svg width="27" height="21" viewBox="0 0 27 21" fill="none" xmlns="http://www.w3.org/2000/svg">
<mask id="mask0_198_6355" style="mask-type:luminance" maskUnits="userSpaceOnUse" x="0" y="0" width="27" height="21">
<path d="M0.171875 4.16748C0.171875 1.95834 1.96274 0.16748 4.17188 0.16748H22.8385C25.0477 0.16748 26.8385 1.95834 26.8385 4.16748V16.1675C26.8385 18.3766 25.0477 20.1675 22.8385 20.1675H4.17187C1.96273 20.1675 0.171875 18.3766 0.171875 16.1675V4.16748Z" fill="white"/>
</mask>
<g mask="url(#mask0_198_6355)">
<path fill-rule="evenodd" clip-rule="evenodd" d="M4.17187 0.16748C1.96273 0.16748 0.171875 1.95834 0.171875 4.16748V16.1675C0.171875 18.3766 1.96274 20.1675 4.17188 20.1675H22.8385C25.0477 20.1675 26.8385 18.3766 26.8385 16.1675V4.16748C26.8385 1.95834 25.0477 0.16748 22.8385 0.16748H4.17187Z" fill="#2E42A5"/>
<mask id="mask1_198_6355" style="mask-type:luminance" maskUnits="userSpaceOnUse" x="0" y="0" width="27" height="21">
<path fill-rule="evenodd" clip-rule="evenodd" d="M4.17187 0.16748C1.96273 0.16748 0.171875 1.95834 0.171875 4.16748V16.1675C0.171875 18.3766 1.96274 20.1675 4.17188 20.1675H22.8385C25.0477 20.1675 26.8385 18.3766 26.8385 16.1675V4.16748C26.8385 1.95834 25.0477 0.16748 22.8385 0.16748H4.17187Z" fill="white"/>
</mask>
<g mask="url(#mask1_198_6355)">
<mask id="mask2_198_6355" style="mask-type:luminance" maskUnits="userSpaceOnUse" x="0" y="0" width="27" height="21">
<path d="M0.171875 4.16748C0.171875 1.95834 1.96274 0.16748 4.17188 0.16748H22.8385C25.0477 0.16748 26.8385 1.95834 26.8385 4.16748V16.1675C26.8385 18.3766 25.0477 20.1675 22.8385 20.1675H4.17187C1.96273 20.1675 0.171875 18.3766 0.171875 16.1675V4.16748Z" fill="white"/>
</mask>
<g mask="url(#mask2_198_6355)">
<path d="M-2.79688 18.739L3.0712 21.2207L26.9722 2.866L30.0675 -0.821901L23.7925 -1.65137L14.0438 6.25819L6.19711 11.5874L-2.79688 18.739Z" fill="white"/>
<path d="M-1.99414 20.4777L0.99537 21.9179L28.9554 -1.16455H24.7578L-1.99414 20.4777Z" fill="#F50100"/>
<path d="M29.8077 18.739L23.9396 21.2207L0.0386364 2.866L-3.05664 -0.821901L3.21842 -1.65137L12.9671 6.25819L20.8137 11.5874L29.8077 18.739Z" fill="white"/>
<path d="M29.6085 19.9866L26.619 21.4267L14.7133 11.544L11.1835 10.4397L-3.35352 -0.80957H0.844107L15.373 10.1727L19.2322 11.4968L29.6085 19.9866Z" fill="#F50100"/>
<path fill-rule="evenodd" clip-rule="evenodd" d="M16.6545 -1.49902H10.3582V6.83431H-1.4707V13.501H10.3582V21.8343H16.6545V13.501H28.5293V6.83431H16.6545V-1.49902Z" fill="#F50100"/>
<mask id="mask3_198_6355" style="mask-type:luminance" maskUnits="userSpaceOnUse" x="-2" y="-2" width="31" height="24">
<path fill-rule="evenodd" clip-rule="evenodd" d="M16.6545 -1.49902H10.3582V6.83431H-1.4707V13.501H10.3582V21.8343H16.6545V13.501H28.5293V6.83431H16.6545V-1.49902Z" fill="white"/>
</mask>
<g mask="url(#mask3_198_6355)">
<path d="M10.3589 -1.49886V-3.16553H8.69222V-1.49886H10.3589ZM16.6551 -1.49886H18.3218V-3.16553H16.6551V-1.49886ZM10.3589 6.83447V8.50114H12.0256V6.83447H10.3589ZM-1.47005 6.83447V5.16781H-3.13672V6.83447H-1.47005ZM-1.47005 13.5011H-3.13672V15.1678H-1.47005V13.5011ZM10.3589 13.5011H12.0256V11.8345H10.3589V13.5011ZM10.3589 21.8345H8.69222V23.5011H10.3589V21.8345ZM16.6551 21.8345V23.5011H18.3218V21.8345H16.6551ZM16.6551 13.5011V11.8345H14.9885V13.5011H16.6551ZM28.53 13.5011V15.1678H30.1966V13.5011H28.53ZM28.53 6.83447H30.1966V5.16781H28.53V6.83447ZM16.6551 6.83447H14.9885V8.50114H16.6551V6.83447ZM10.3589 0.167806H16.6551V-3.16553H10.3589V0.167806ZM12.0256 6.83447V-1.49886H8.69222V6.83447H12.0256ZM-1.47005 8.50114H10.3589V5.16781H-1.47005V8.50114ZM0.196611 13.5011V6.83447H-3.13672V13.5011H0.196611ZM10.3589 11.8345H-1.47005V15.1678H10.3589V11.8345ZM12.0256 21.8345V13.5011H8.69222V21.8345H12.0256ZM16.6551 20.1678H10.3589V23.5011H16.6551V20.1678ZM14.9885 13.5011V21.8345H18.3218V13.5011H14.9885ZM28.53 11.8345H16.6551V15.1678H28.53V11.8345ZM26.8633 6.83447V13.5011H30.1966V6.83447H26.8633ZM16.6551 8.50114H28.53V5.16781H16.6551V8.50114ZM14.9885 -1.49886V6.83447H18.3218V-1.49886H14.9885Z" fill="white"/>
</g>
</g>
</g>
</g>
</svg>
