<svg width="203" height="53" viewBox="0 0 203 53" fill="none" xmlns="http://www.w3.org/2000/svg">
<mask id="mask0_2753_57195" style="mask-type:luminance" maskUnits="userSpaceOnUse" x="161" y="11" width="20" height="21">
<path d="M180.792 11.476H161.304V31.4675H180.792V11.476Z" fill="white"/>
</mask>
<g mask="url(#mask0_2753_57195)">
<mask id="mask1_2753_57195" style="mask-type:luminance" maskUnits="userSpaceOnUse" x="157" y="2" width="33" height="34">
<path d="M170.845 2.61342L157.418 14.9884L176.141 35.2534L189.567 22.8784L170.845 2.61342Z" fill="white"/>
</mask>
<g mask="url(#mask1_2753_57195)">
<mask id="mask2_2753_57195" style="mask-type:luminance" maskUnits="userSpaceOnUse" x="157" y="2" width="33" height="34">
<path d="M170.845 2.61342L157.418 14.9884L176.141 35.2534L189.567 22.8784L170.845 2.61342Z" fill="white"/>
</mask>
<g mask="url(#mask2_2753_57195)">
<path d="M180.386 12.652L163.943 11.9221C160.776 11.8004 160.208 17.9641 163.983 18.0858L174.215 18.3697L173.443 28.6696C173.2 31.792 179.33 32.1164 179.493 28.9534L180.386 12.6925V12.652Z" fill="#18CB96"/>
</g>
</g>
</g>
<mask id="mask3_2753_57195" style="mask-type:luminance" maskUnits="userSpaceOnUse" x="171" y="2" width="20" height="21">
<path d="M190.536 2.8385H171.048V22.3029H190.536V2.8385Z" fill="white"/>
</mask>
<g mask="url(#mask3_2753_57195)">
<mask id="mask4_2753_57195" style="mask-type:luminance" maskUnits="userSpaceOnUse" x="167" y="-7" width="33" height="34">
<path d="M180.65 -6.35558L167.223 6.01941L185.946 26.2844L199.373 13.9094L180.65 -6.35558Z" fill="white"/>
</mask>
<g mask="url(#mask4_2753_57195)">
<mask id="mask5_2753_57195" style="mask-type:luminance" maskUnits="userSpaceOnUse" x="167" y="-7" width="33" height="34">
<path d="M180.65 -6.35558L167.223 6.01941L185.946 26.2844L199.373 13.9094L180.65 -6.35558Z" fill="white"/>
</mask>
<g mask="url(#mask5_2753_57195)">
<path d="M190.13 3.64954L173.687 2.91962C170.52 2.79797 169.951 8.9617 173.727 9.08336L183.958 9.36721L183.187 19.6671C182.943 22.7896 189.074 23.114 189.236 19.951L190.13 3.69009V3.64954Z" fill="#18CB96"/>
</g>
</g>
</g>
<path d="M20.8279 23.3978C23.0609 23.3978 25.0097 23.8439 26.6743 24.7766C28.3389 25.7092 29.6381 27.0069 30.5719 28.6694C31.5057 30.332 31.9523 32.2785 31.9523 34.5088C31.9523 36.658 31.4245 38.5639 30.5313 40.2264C29.6381 41.889 28.2983 43.1461 26.6337 44.0788C24.9691 45.0114 23.0609 45.4575 20.8685 45.4575C18.6761 45.4575 16.7679 45.0114 15.1033 44.0788C13.4387 43.1461 12.1395 41.889 11.2057 40.2264C10.2719 38.5639 9.78467 36.6985 9.78467 34.5088C9.78467 32.2785 10.2313 30.332 11.1651 28.6694C12.0989 27.0069 13.3981 25.7092 15.0627 24.7766C16.7273 23.8439 18.6761 23.3978 20.8685 23.3978H20.8279ZM20.8279 41.2808C22.7361 41.2808 24.2383 40.6725 25.3345 39.4154C26.4713 38.1583 27.0397 36.5363 27.0397 34.5493C27.0397 32.5623 26.4713 30.8186 25.3345 29.521C24.1977 28.2234 22.6955 27.5746 20.8279 27.5746C18.9603 27.5746 17.4581 28.2234 16.3213 29.521C15.1845 30.8186 14.6161 32.4812 14.6161 34.5493C14.6161 36.6174 15.1845 38.1583 16.3213 39.4154C17.4581 40.6725 18.9603 41.2808 20.8279 41.2808Z" fill="#373643"/>
<path d="M44.7819 23.3978C46.8525 23.3978 48.6389 23.8439 50.1817 24.736C51.7245 25.6281 52.9425 26.8852 53.7545 28.5478C54.6071 30.1698 55.0131 32.0352 55.0131 34.1844C55.0131 36.3336 54.5665 38.3611 53.7545 40.0642C52.9019 41.7674 51.7245 43.065 50.2223 44.0382C48.7201 44.9709 46.9743 45.4575 44.9443 45.4575C42.9143 45.4575 42.9549 45.2953 41.8587 44.9709C40.7625 44.6465 39.7475 44.1599 38.8137 43.5516V49.9181C38.8137 50.6075 38.5701 51.1346 38.0829 51.4996C37.5957 51.8645 37.0679 52.0268 36.4589 52.0268C35.8499 52.0268 35.2815 51.8645 34.7943 51.4996C34.3071 51.1346 34.0635 50.6075 34.0635 49.9181V25.9931C34.0635 25.3037 34.2665 24.8171 34.7131 24.4116C35.1597 24.0466 35.7281 23.8439 36.4995 23.8439C37.7581 23.8439 38.4889 24.3305 38.7325 25.3037C39.7069 24.6144 40.7219 24.1277 41.7775 23.8439C42.8331 23.56 43.8481 23.4384 44.7819 23.4384V23.3978ZM44.8631 41.2402C46.4871 41.2402 47.8269 40.5914 48.8419 39.2938C49.8569 37.9961 50.3441 36.3336 50.3441 34.2249C50.3441 32.1163 49.8163 30.6564 48.7201 29.4399C47.6645 28.2234 46.2435 27.6151 44.4977 27.6151C42.7519 27.6151 42.3053 27.899 41.2497 28.4667C40.1941 29.0344 39.3821 29.8454 38.8543 30.8997V37.7934C39.3009 38.8883 40.0723 39.7398 41.2497 40.3075C42.3865 40.9158 43.6045 41.1997 44.8631 41.1997V41.2402Z" fill="#373643"/>
<path d="M67.7615 41.078C68.4111 40.713 68.9795 40.5914 69.5073 40.713C70.0351 40.8347 70.4411 41.078 70.7659 41.443C71.0907 41.8079 71.2531 42.254 71.2531 42.7406C71.2531 43.2272 71.1313 43.4705 70.9283 43.8355C70.7253 44.2004 70.3599 44.4843 69.8727 44.7681C69.2637 45.0925 68.6953 45.2953 68.2081 45.3764C67.7209 45.4575 67.1119 45.498 66.4623 45.498C64.6353 45.498 63.2549 45.1331 62.2805 44.3626C61.3061 43.6327 60.6565 42.6595 60.2911 41.443C59.9257 40.267 59.7633 38.9694 59.7633 37.6717V27.8179H58.1799C57.4085 27.8179 56.8401 27.6151 56.4341 27.2096C56.0687 26.8041 55.8657 26.358 55.8657 25.8714C55.8657 25.3848 56.0687 24.8982 56.4341 24.4927C56.8401 24.0872 57.4085 23.8844 58.1393 23.8844H59.7227V20.3159C59.7227 19.586 59.9663 19.0589 60.4535 18.6939C60.9407 18.329 61.4685 18.1667 62.0775 18.1667C62.6865 18.1667 63.2143 18.329 63.7015 18.6939C64.1887 19.0589 64.4729 19.586 64.4729 20.3159V23.8844H67.7209C68.4517 23.8844 68.9795 24.0872 69.3855 24.4927C69.7915 24.8982 69.9539 25.3848 69.9539 25.8714C69.9539 26.358 69.7509 26.8041 69.3855 27.2096C68.9795 27.6151 68.4517 27.8179 67.7209 27.8179H64.4729V37.6717C64.4729 38.28 64.5135 38.8883 64.5947 39.456C64.6759 40.0237 64.8789 40.5103 65.1631 40.8752C65.4473 41.2402 65.8939 41.443 66.5029 41.443C67.1119 41.443 66.9495 41.443 67.2337 41.3213C67.5179 41.2402 67.6803 41.1996 67.8427 41.1185L67.7615 41.078Z" fill="#373643"/>
<path d="M77.0184 20.681C77.0184 21.3703 76.7748 21.8975 76.247 22.2624C75.7192 22.5868 75.1914 22.7896 74.5824 22.7896C73.9734 22.7896 73.405 22.6274 72.9178 22.2624C72.4306 21.8975 72.187 21.3703 72.187 20.681V20.1538C72.187 19.4239 72.4306 18.8967 72.9178 18.5723C73.405 18.2479 73.9734 18.0857 74.5824 18.0857C75.1914 18.0857 75.7192 18.2479 76.247 18.5723C76.7748 18.8967 77.0184 19.4239 77.0184 20.1538V20.681ZM72.2276 25.8715C72.2276 25.1821 72.4712 24.6955 72.999 24.3305C73.5268 23.9656 74.0546 23.8034 74.5824 23.8034C75.1102 23.8034 75.7192 23.9656 76.2064 24.3305C76.6936 24.6549 76.9778 25.1821 76.9778 25.7904V42.9434C76.9778 43.6327 76.7342 44.1599 76.2064 44.4843C75.7192 44.8087 75.1508 44.9709 74.5824 44.9709C74.014 44.9709 73.4862 44.8087 72.999 44.4843C72.4712 44.1599 72.2276 43.6327 72.2276 42.9434V25.8309V25.8715Z" fill="#373643"/>
<path d="M78.1551 40.0643C77.9521 39.2938 78.1551 38.6855 78.6829 38.1989C79.2513 37.7123 79.8603 37.469 80.5099 37.469C81.1595 37.469 81.4437 37.6312 81.8497 37.9151C82.2557 38.1989 82.5399 38.645 82.7023 39.2127C82.8647 39.6993 83.2301 40.1454 83.7985 40.4292C84.3669 40.7536 85.0165 40.9564 85.7473 41.1186C86.4781 41.2402 87.2495 41.3213 87.9803 41.3213C89.4825 41.3213 90.7005 41.0375 91.5937 40.5103C92.5275 39.9832 92.9741 39.2938 92.9741 38.4422C92.9741 37.5907 92.7305 37.4285 92.2433 37.1446C91.7561 36.8607 91.1065 36.658 90.3351 36.5769C89.5637 36.4552 88.7111 36.3741 87.8179 36.3336C86.6405 36.2119 85.5037 36.0903 84.3669 35.9281C83.2301 35.7659 82.2151 35.482 81.2813 35.0765C80.3475 34.671 79.6167 34.0627 79.0889 33.2923C78.5205 32.4812 78.2769 31.4269 78.2769 30.0482C78.2769 28.6695 78.6829 27.5746 79.4543 26.5608C80.2257 25.547 81.3219 24.7766 82.7429 24.2089C84.1639 23.6412 85.7879 23.3573 87.6555 23.3573C89.5231 23.3573 89.8885 23.479 91.1471 23.6817C92.4057 23.8845 93.5425 24.3305 94.6387 24.9388C95.6943 25.5876 96.5063 26.5608 96.9935 27.899C97.1965 28.4667 97.1559 28.9533 96.9529 29.3588C96.7499 29.8049 96.4251 30.1293 95.9785 30.3321C95.5319 30.5348 95.1259 30.6565 94.6793 30.6565C94.2327 30.6565 93.7455 30.5754 93.4613 30.3726C93.1365 30.1698 92.8929 29.8454 92.6493 29.3588C92.4057 28.7911 91.9591 28.3451 91.3907 28.0612C90.7817 27.7773 90.1321 27.6151 89.4825 27.534C88.7923 27.4529 88.2239 27.4124 87.6961 27.4124C86.3157 27.4124 85.1789 27.6557 84.3263 28.1423C83.4737 28.6289 83.0677 29.2372 83.0677 30.0076C83.0677 30.7781 83.2707 31.1431 83.7173 31.3864C84.1639 31.6297 84.7729 31.7513 85.5443 31.7919C86.3157 31.7919 87.1683 31.9135 88.1021 32.0352C89.2795 32.1568 90.4163 32.319 91.5531 32.4812C92.6899 32.6435 93.7455 32.9273 94.6793 33.3328C95.6131 33.7383 96.3845 34.3466 96.9123 35.1171C97.4807 35.8875 97.7649 36.9824 97.7649 38.3611C97.7649 39.7399 97.3589 40.9158 96.5469 41.9702C95.7349 43.0245 94.5981 43.8355 93.1365 44.4438C91.6749 45.0115 89.9697 45.2953 88.0209 45.2953C86.0721 45.2953 86.2345 45.2142 85.2195 45.0926C84.2045 44.9709 83.2301 44.7276 82.2557 44.3627C81.2813 43.9977 80.4693 43.43 79.7385 42.7406C79.0077 42.0107 78.5205 41.078 78.1957 39.9426L78.1551 40.0643Z" fill="#373643"/>
<path d="M117.699 23.8033C118.43 23.8033 118.998 24.0061 119.445 24.4116C119.892 24.8171 120.095 25.3443 120.095 25.9525V42.8217C120.095 43.4705 119.892 43.9977 119.445 44.4032C118.998 44.8087 118.43 45.0114 117.699 45.0114C116.968 45.0114 116.481 44.8492 116.075 44.5248C115.669 44.2004 115.466 43.7949 115.344 43.2678C114.411 43.9977 113.355 44.5654 112.178 44.9303C111 45.2548 109.904 45.4575 108.848 45.4575C106.859 45.4575 105.113 45.0114 103.652 44.0788C102.19 43.1461 101.094 41.889 100.282 40.1859C99.5105 38.5233 99.1045 36.5769 99.1045 34.3466C99.1045 32.1163 99.5511 30.2915 100.404 28.6289C101.256 27.0069 102.474 25.7092 104.017 24.7766C105.56 23.8439 107.346 23.3978 109.376 23.3978C111.406 23.3978 111.244 23.56 112.34 23.8844C113.436 24.2088 114.411 24.736 115.344 25.4659C115.466 24.9793 115.71 24.5738 116.116 24.2494C116.522 23.925 117.05 23.8033 117.699 23.8033ZM109.376 41.2402C110.594 41.2402 111.772 40.9564 112.908 40.4292C114.045 39.902 114.857 39.091 115.344 38.0367V30.8186C114.817 29.8049 114.005 28.9938 112.949 28.4667C111.893 27.899 110.838 27.6151 109.742 27.6151C107.996 27.6151 106.575 28.2639 105.519 29.521C104.464 30.7781 103.895 32.4001 103.895 34.3871C103.895 36.3741 104.382 38.0772 105.397 39.3343C106.412 40.5914 107.712 41.1997 109.376 41.1997V41.2402Z" fill="#373643"/>
<path d="M141.897 23.8034C142.628 23.8034 143.196 24.0467 143.643 24.5333C144.089 25.0199 144.292 25.547 144.292 26.1959V43.7138C144.292 45.7414 143.805 47.4445 142.871 48.8233C141.937 50.202 140.679 51.2563 139.095 51.9457C137.512 52.635 135.726 53 133.817 53C131.909 53 130.732 52.7972 129.433 52.3917C128.133 51.9862 126.915 51.2563 125.779 50.202C125.21 49.6343 124.967 49.0666 125.007 48.4988C125.007 47.9311 125.251 47.404 125.657 46.9985C126.063 46.593 126.591 46.3496 127.2 46.2685C127.809 46.228 128.377 46.4307 128.945 46.9174C129.798 47.6473 130.61 48.1339 131.341 48.3772C132.072 48.6205 132.924 48.7016 133.858 48.7016C134.792 48.7016 135.807 48.5394 136.7 48.1744C137.593 47.8095 138.324 47.2823 138.852 46.5119C139.42 45.7819 139.704 44.8087 139.704 43.6733V43.3083C138.771 43.9977 137.715 44.5249 136.619 44.8898C135.523 45.2142 134.467 45.417 133.493 45.417C131.503 45.417 129.717 44.9709 128.215 44.0382C126.712 43.1056 125.535 41.8485 124.682 40.1454C123.83 38.4828 123.424 36.5363 123.424 34.306C123.424 32.0757 123.87 30.2509 124.723 28.5884C125.576 26.9258 126.794 25.6687 128.336 24.736C129.879 23.8034 131.666 23.3573 133.696 23.3573C135.726 23.3573 135.644 23.479 136.7 23.7628C137.756 24.0467 138.771 24.5333 139.745 25.2226C140.07 24.2494 140.801 23.7628 141.978 23.7628L141.897 23.8034ZM133.574 41.2402C134.873 41.2402 136.05 40.9564 137.228 40.4292C138.365 39.8615 139.177 39.0505 139.623 37.9151V30.9809C139.095 29.9265 138.283 29.1155 137.228 28.5478C136.172 27.9801 135.076 27.6557 133.939 27.6557C132.193 27.6557 130.772 28.3045 129.717 29.5616C128.661 30.8187 128.093 32.4407 128.093 34.4277C128.093 36.4147 128.58 38.1178 129.595 39.3749C130.61 40.632 131.909 41.2402 133.574 41.2402Z" fill="#373643"/>
<path d="M158.543 41.3213C159.355 41.3213 160.126 41.1997 160.938 40.9969C161.71 40.7536 162.44 40.3886 163.09 39.8615C163.74 39.2938 164.349 39.0099 164.958 39.0505C165.567 39.0505 166.094 39.2938 166.5 39.6993C166.906 40.1048 167.109 40.5914 167.109 41.1997C167.109 41.8079 166.825 42.3756 166.257 42.9434C165.282 43.876 164.105 44.5248 162.806 44.9303C161.466 45.2953 160.126 45.4575 158.705 45.4575C156.553 45.4575 154.645 45.0114 152.981 44.1193C151.316 43.2272 150.017 42.0107 149.124 40.4292C148.19 38.8477 147.743 37.0229 147.743 34.9143C147.743 32.8056 148.19 30.6564 149.083 28.9127C149.976 27.1691 151.235 25.8309 152.859 24.8577C154.483 23.8844 156.391 23.3978 158.624 23.3978C160.857 23.3978 162.725 23.8439 164.308 24.736C165.851 25.6281 167.069 26.8852 167.881 28.5478C168.693 30.1698 169.099 32.0757 169.099 34.2249C169.099 36.3741 168.977 35.5225 168.693 36.0092C168.409 36.4958 167.678 36.7391 166.5 36.7391H152.615C153.021 38.1178 153.752 39.2127 154.808 40.0642C155.863 40.9158 157.162 41.3213 158.665 41.3213H158.543ZM158.583 27.534C156.959 27.534 155.62 28.0612 154.523 29.0749C153.427 30.0887 152.737 31.4269 152.453 33.0489H164.592C164.47 31.4269 163.902 30.0887 162.968 29.0749C162.034 28.0612 160.573 27.534 158.583 27.534Z" fill="#373643"/>
</svg>
