<svg width="143" height="38" viewBox="0 0 143 38" fill="none" xmlns="http://www.w3.org/2000/svg">
<g clip-path="url(#clip0_492_3541)">
<mask id="mask0_492_3541" style="mask-type:luminance" maskUnits="userSpaceOnUse" x="113" y="5" width="15" height="15">
<path d="M127.356 5.2121H113.628V19.2948H127.356V5.2121Z" fill="white"/>
</mask>
<g mask="url(#mask0_492_3541)">
<mask id="mask1_492_3541" style="mask-type:luminance" maskUnits="userSpaceOnUse" x="110" y="-2" width="24" height="24">
<path d="M120.349 -1.03108L110.891 7.68628L124.08 21.9616L133.538 13.2443L120.349 -1.03108Z" fill="white"/>
</mask>
<g mask="url(#mask1_492_3541)">
<mask id="mask2_492_3541" style="mask-type:luminance" maskUnits="userSpaceOnUse" x="110" y="-2" width="24" height="24">
<path d="M120.349 -1.03108L110.891 7.68628L124.08 21.9616L133.538 13.2443L120.349 -1.03108Z" fill="white"/>
</mask>
<g mask="url(#mask2_492_3541)">
<path d="M127.07 6.04045L115.487 5.52628C113.256 5.44058 112.856 9.78252 115.515 9.86822L122.723 10.0682L122.179 17.3238C122.008 19.5233 126.326 19.7518 126.441 17.5237L127.07 6.06902V6.04045Z" fill="#18CB96"/>
</g>
</g>
</g>
<mask id="mask3_492_3541" style="mask-type:luminance" maskUnits="userSpaceOnUse" x="120" y="-1" width="15" height="14">
<path d="M134.22 -0.872314H120.492V12.8391H134.22V-0.872314Z" fill="white"/>
</mask>
<g mask="url(#mask3_492_3541)">
<mask id="mask4_492_3541" style="mask-type:luminance" maskUnits="userSpaceOnUse" x="117" y="-8" width="24" height="24">
<path d="M127.256 -7.34895L117.798 1.36841L130.987 15.6437L140.445 6.92638L127.256 -7.34895Z" fill="white"/>
</mask>
<g mask="url(#mask4_492_3541)">
<mask id="mask5_492_3541" style="mask-type:luminance" maskUnits="userSpaceOnUse" x="117" y="-8" width="24" height="24">
<path d="M127.256 -7.34895L117.798 1.36841L130.987 15.6437L140.445 6.92638L127.256 -7.34895Z" fill="white"/>
</mask>
<g mask="url(#mask5_492_3541)">
<path d="M133.934 -0.301038L122.351 -0.815215C120.12 -0.900912 119.72 3.44103 122.38 3.52673L129.587 3.72668L129.043 10.9823C128.872 13.1818 133.19 13.4104 133.305 11.1823L133.934 -0.272473V-0.301038Z" fill="#18CB96"/>
</g>
</g>
</g>
<path d="M14.6719 13.6102C16.2449 13.6102 17.6177 13.9244 18.7903 14.5815C19.9629 15.2385 20.8781 16.1525 21.5359 17.3237C22.1937 18.4949 22.5083 19.8661 22.5083 21.4371C22.5083 22.9511 22.1365 24.2937 21.5073 25.4649C20.8781 26.6361 19.9343 27.5216 18.7617 28.1786C17.5891 28.8356 16.2449 29.1498 14.7005 29.1498C13.1561 29.1498 11.8119 28.8356 10.6393 28.1786C9.46667 27.5216 8.55147 26.6361 7.89367 25.4649C7.23587 24.2937 6.89267 22.9797 6.89267 21.4371C6.89267 19.8661 7.20727 18.4949 7.86507 17.3237C8.52287 16.1525 9.43807 15.2385 10.6107 14.5815C11.7833 13.9244 13.1561 13.6102 14.7005 13.6102H14.6719ZM14.6719 26.2076C16.0161 26.2076 17.0743 25.7791 17.8465 24.8936C18.6473 24.008 19.0477 22.8654 19.0477 21.4657C19.0477 20.066 18.6473 18.8377 17.8465 17.9236C17.0457 17.0095 15.9875 16.5525 14.6719 16.5525C13.3563 16.5525 12.2981 17.0095 11.4973 17.9236C10.6965 18.8377 10.2961 20.0089 10.2961 21.4657C10.2961 22.9225 10.6965 24.008 11.4973 24.8936C12.2981 25.7791 13.3563 26.2076 14.6719 26.2076Z" fill="#8B8D94"/>
<path d="M31.5459 13.6102C33.0045 13.6102 34.2629 13.9244 35.3497 14.5529C36.4365 15.1813 37.2945 16.0669 37.8665 17.238C38.4671 18.3807 38.7531 19.6947 38.7531 21.2086C38.7531 22.7226 38.4385 24.1509 37.8665 25.3506C37.2659 26.5504 36.4365 27.4644 35.3783 28.15C34.3201 28.807 33.0903 29.1498 31.6603 29.1498C30.2303 29.1498 30.2589 29.0355 29.4867 28.807C28.7145 28.5785 27.9995 28.2357 27.3417 27.8072V32.292C27.3417 32.7776 27.1701 33.149 26.8269 33.4061C26.4837 33.6631 26.1119 33.7774 25.6829 33.7774C25.2539 33.7774 24.8535 33.6631 24.5103 33.4061C24.1671 33.149 23.9955 32.7776 23.9955 32.292V15.4384C23.9955 14.9528 24.1385 14.61 24.4531 14.3244C24.7677 14.0673 25.1681 13.9244 25.7115 13.9244C26.5981 13.9244 27.1129 14.2672 27.2845 14.9528C27.9709 14.4672 28.6859 14.1244 29.4295 13.9244C30.1731 13.7245 30.8881 13.6388 31.5459 13.6388V13.6102ZM31.6031 26.179C32.7471 26.179 33.6909 25.722 34.4059 24.8079C35.1209 23.8938 35.4641 22.7226 35.4641 21.2372C35.4641 19.7518 35.0923 18.7234 34.3201 17.8665C33.5765 17.0095 32.5755 16.581 31.3457 16.581C30.1159 16.581 29.8013 16.781 29.0577 17.1809C28.3141 17.5808 27.7421 18.1521 27.3703 18.8948V23.7509C27.6849 24.5222 28.2283 25.1221 29.0577 25.522C29.8585 25.9505 30.7165 26.1504 31.6031 26.1504V26.179Z" fill="#8B8D94"/>
<path d="M47.7334 26.0649C48.191 25.8078 48.5914 25.7221 48.9632 25.8078C49.335 25.8935 49.621 26.0649 49.8498 26.322C50.0786 26.579 50.193 26.8933 50.193 27.236C50.193 27.5788 50.1072 27.7502 49.9642 28.0073C49.8212 28.2644 49.5638 28.4644 49.2206 28.6643C48.7916 28.8928 48.3912 29.0357 48.048 29.0928C47.7048 29.1499 47.2758 29.1785 46.8182 29.1785C45.5312 29.1785 44.5588 28.9214 43.8724 28.3787C43.186 27.8645 42.7284 27.1789 42.471 26.322C42.2136 25.4936 42.0992 24.5795 42.0992 23.6654V16.724H40.9838C40.4404 16.724 40.04 16.5812 39.754 16.2955C39.4966 16.0098 39.3536 15.6956 39.3536 15.3528C39.3536 15.0101 39.4966 14.6673 39.754 14.3816C40.04 14.096 40.4404 13.9531 40.9552 13.9531H42.0706V11.4394C42.0706 10.9252 42.2422 10.5539 42.5854 10.2968C42.9286 10.0397 43.3004 9.92542 43.7294 9.92542C44.1584 9.92542 44.5302 10.0397 44.8734 10.2968C45.2166 10.5539 45.4168 10.9252 45.4168 11.4394V13.9531H47.7048C48.2196 13.9531 48.5914 14.096 48.8774 14.3816C49.1634 14.6673 49.2778 15.0101 49.2778 15.3528C49.2778 15.6956 49.1348 16.0098 48.8774 16.2955C48.5914 16.5812 48.2196 16.724 47.7048 16.724H45.4168V23.6654C45.4168 24.0939 45.4454 24.5223 45.5026 24.9222C45.5598 25.3222 45.7028 25.665 45.903 25.922C46.1032 26.1791 46.4178 26.322 46.8468 26.322C47.2758 26.322 47.1614 26.322 47.3616 26.2363C47.5618 26.1791 47.6762 26.1506 47.7906 26.0934L47.7334 26.0649Z" fill="#8B8D94"/>
<path d="M54.2541 11.6965C54.2541 12.1821 54.0825 12.5534 53.7107 12.8105C53.3389 13.039 52.9671 13.1819 52.5381 13.1819C52.1091 13.1819 51.7087 13.0676 51.3655 12.8105C51.0223 12.5534 50.8507 12.1821 50.8507 11.6965V11.3251C50.8507 10.8109 51.0223 10.4396 51.3655 10.2111C51.7087 9.98255 52.1091 9.86829 52.5381 9.86829C52.9671 9.86829 53.3389 9.98255 53.7107 10.2111C54.0825 10.4396 54.2541 10.8109 54.2541 11.3251V11.6965ZM50.8793 15.3528C50.8793 14.8672 51.0509 14.5244 51.4227 14.2674C51.7945 14.0103 52.1663 13.896 52.5381 13.896C52.9099 13.896 53.3389 14.0103 53.6821 14.2674C54.0253 14.4959 54.2255 14.8672 54.2255 15.2957V27.3789C54.2255 27.8645 54.0539 28.2358 53.6821 28.4644C53.3389 28.6929 52.9385 28.8071 52.5381 28.8071C52.1377 28.8071 51.7659 28.6929 51.4227 28.4644C51.0509 28.2358 50.8793 27.8645 50.8793 27.3789V15.3243V15.3528Z" fill="#8B8D94"/>
<path d="M55.0551 25.3507C54.9121 24.808 55.0551 24.3795 55.4269 24.0367C55.8273 23.6939 56.2563 23.5225 56.7139 23.5225C57.1715 23.5225 57.3717 23.6368 57.6577 23.8368C57.9437 24.0367 58.1439 24.3509 58.2583 24.7509C58.3727 25.0936 58.6301 25.4079 59.0305 25.6078C59.4309 25.8363 59.8885 25.9792 60.4033 26.0934C60.9181 26.1791 61.4615 26.2363 61.9763 26.2363C63.0345 26.2363 63.8925 26.0363 64.5217 25.665C65.1795 25.2936 65.4941 24.808 65.4941 24.2081C65.4941 23.6082 65.3225 23.494 64.9793 23.294C64.6361 23.0941 64.1785 22.9512 63.6351 22.8941C63.0917 22.8084 62.4911 22.7513 61.8619 22.7227C61.0325 22.637 60.2317 22.5513 59.4309 22.4371C58.6301 22.3228 57.9151 22.1228 57.2573 21.8372C56.5995 21.5515 56.0847 21.1231 55.7129 20.5803C55.3125 20.009 55.1409 19.2663 55.1409 18.2951C55.1409 17.3239 55.4269 16.5526 55.9703 15.8385C56.5137 15.1243 57.2859 14.5816 58.2869 14.1817C59.2879 13.7817 60.4319 13.5818 61.7475 13.5818C63.0631 13.5818 63.3205 13.6675 64.2071 13.8103C65.0937 13.9531 65.8945 14.2674 66.6667 14.6958C67.4103 15.1529 67.9823 15.8385 68.3255 16.7811C68.4685 17.181 68.4399 17.5238 68.2969 17.8095C68.1539 18.1237 67.9251 18.3522 67.6105 18.495C67.2959 18.6379 67.0099 18.7236 66.6953 18.7236C66.3807 18.7236 66.0375 18.6664 65.8373 18.5236C65.6085 18.3808 65.4369 18.1523 65.2653 17.8095C65.0937 17.4096 64.7791 17.0953 64.3787 16.8954C63.9497 16.6954 63.4921 16.5812 63.0345 16.524C62.5483 16.4669 62.1479 16.4383 61.7761 16.4383C60.8037 16.4383 60.0029 16.6097 59.4023 16.9525C58.8017 17.2953 58.5157 17.7238 58.5157 18.2665C58.5157 18.8093 58.6587 19.0663 58.9733 19.2377C59.2879 19.4091 59.7169 19.4948 60.2603 19.5234C60.8037 19.5234 61.4043 19.6091 62.0621 19.6948C62.8915 19.7805 63.6923 19.8947 64.4931 20.009C65.2939 20.1233 66.0375 20.3232 66.6953 20.6089C67.3531 20.8945 67.8965 21.323 68.2683 21.8658C68.6687 22.4085 68.8689 23.1798 68.8689 24.151C68.8689 25.1222 68.5829 25.9506 68.0109 26.6933C67.4389 27.436 66.6381 28.0073 65.6085 28.4358C64.5789 28.8357 63.3777 29.0357 62.0049 29.0357C60.6321 29.0357 60.7465 28.9785 60.0315 28.8928C59.3165 28.8071 58.6301 28.6358 57.9437 28.3787C57.2573 28.1216 56.6853 27.7217 56.1705 27.236C55.6557 26.7219 55.3125 26.0649 55.0837 25.265L55.0551 25.3507Z" fill="#8B8D94"/>
<path d="M82.9112 13.8959C83.426 13.8959 83.8264 14.0387 84.141 14.3244C84.4556 14.61 84.5986 14.9814 84.5986 15.4098V27.2931C84.5986 27.7501 84.4556 28.1215 84.141 28.4071C83.8264 28.6928 83.426 28.8356 82.9112 28.8356C82.3964 28.8356 82.0532 28.7213 81.7672 28.4928C81.4812 28.2643 81.3382 27.9786 81.2524 27.6073C80.5946 28.1215 79.851 28.5214 79.0216 28.7785C78.1922 29.007 77.42 29.1498 76.6764 29.1498C75.275 29.1498 74.0452 28.8356 73.0156 28.1786C71.986 27.5216 71.2138 26.6361 70.6418 25.4363C70.0984 24.2651 69.8124 22.894 69.8124 21.3229C69.8124 19.7518 70.127 18.4663 70.7276 17.2952C71.3282 16.1525 72.1862 15.2385 73.273 14.5815C74.3598 13.9244 75.6182 13.6102 77.0482 13.6102C78.4782 13.6102 78.3638 13.7245 79.136 13.953C79.9082 14.1815 80.5946 14.5529 81.2524 15.0671C81.3382 14.7243 81.5098 14.4386 81.7958 14.2101C82.0818 13.9816 82.4536 13.8959 82.9112 13.8959ZM77.0482 26.179C77.9062 26.179 78.7356 25.979 79.5364 25.6077C80.3372 25.2363 80.9092 24.665 81.2524 23.9223V18.8377C80.8806 18.1236 80.3086 17.5523 79.565 17.1809C78.8214 16.781 78.0778 16.581 77.3056 16.581C76.0758 16.581 75.0748 17.0381 74.3312 17.9236C73.5876 18.8091 73.1872 19.9517 73.1872 21.3515C73.1872 22.7512 73.5304 23.9509 74.2454 24.8364C74.9604 25.722 75.8756 26.1504 77.0482 26.1504V26.179Z" fill="#8B8D94"/>
<path d="M99.957 13.896C100.472 13.896 100.872 14.0674 101.187 14.4102C101.501 14.753 101.644 15.1243 101.644 15.5814V27.9216C101.644 29.3499 101.301 30.5496 100.643 31.5209C99.9856 32.4921 99.099 33.2348 97.9836 33.7204C96.8682 34.206 95.6098 34.4631 94.2656 34.4631C92.9214 34.4631 92.092 34.3203 91.1768 34.0346C90.2616 33.749 89.4036 33.2348 88.6028 32.4921C88.2024 32.0922 88.0308 31.6922 88.0594 31.2923C88.0594 30.8924 88.231 30.5211 88.517 30.2354C88.803 29.9498 89.1748 29.7784 89.6038 29.7212C90.0328 29.6927 90.4332 29.8355 90.8336 30.1783C91.4342 30.6925 92.0062 31.0352 92.521 31.2066C93.0358 31.378 93.6364 31.4352 94.2942 31.4352C94.952 31.4352 95.667 31.3209 96.2962 31.0638C96.9254 30.8067 97.4402 30.4354 97.812 29.8926C98.2124 29.3785 98.4126 28.6929 98.4126 27.8931V27.636C97.7548 28.1216 97.0112 28.4929 96.239 28.75C95.4668 28.9785 94.7232 29.1214 94.0368 29.1214C92.6354 29.1214 91.377 28.8071 90.3188 28.1501C89.2606 27.4931 88.4312 26.6076 87.8306 25.4079C87.23 24.2367 86.944 22.8655 86.944 21.2944C86.944 19.7233 87.2586 18.4379 87.8592 17.2667C88.4598 16.0955 89.3178 15.21 90.4046 14.553C91.4914 13.896 92.7498 13.5818 94.1798 13.5818C95.6098 13.5818 95.5526 13.6675 96.2962 13.8674C97.0398 14.0674 97.7548 14.4102 98.4412 14.8958C98.67 14.2102 99.1848 13.8674 100.014 13.8674L99.957 13.896ZM94.094 26.1791C95.0092 26.1791 95.8386 25.9792 96.668 25.6078C97.4688 25.2079 98.0408 24.6366 98.3554 23.8368V18.9521C97.9836 18.2094 97.4116 17.6381 96.668 17.2382C95.9244 16.8382 95.1522 16.6097 94.3514 16.6097C93.1216 16.6097 92.1206 17.0668 91.377 17.9523C90.6334 18.8378 90.233 19.9804 90.233 21.3801C90.233 22.7798 90.5762 23.9796 91.2912 24.8651C92.0062 25.7506 92.9214 26.1791 94.094 26.1791Z" fill="#8B8D94"/>
<path d="M111.683 26.2361C112.255 26.2361 112.798 26.1504 113.37 26.0076C113.914 25.8362 114.428 25.5791 114.886 25.2078C115.344 24.8079 115.773 24.6079 116.202 24.6365C116.631 24.6365 117.002 24.8079 117.288 25.0935C117.574 25.3792 117.717 25.722 117.717 26.1504C117.717 26.5789 117.517 26.9788 117.117 27.3788C116.43 28.0358 115.601 28.4928 114.686 28.7785C113.742 29.0355 112.798 29.1498 111.797 29.1498C110.281 29.1498 108.937 28.8356 107.765 28.2071C106.592 27.5787 105.677 26.7217 105.048 25.6077C104.39 24.4936 104.075 23.2082 104.075 21.7228C104.075 20.2374 104.39 18.7234 105.019 17.4951C105.648 16.2668 106.535 15.3242 107.679 14.6386C108.823 13.953 110.167 13.6102 111.74 13.6102C113.313 13.6102 114.629 13.9244 115.744 14.5529C116.831 15.1813 117.689 16.0669 118.261 17.238C118.833 18.3807 119.119 19.7232 119.119 21.2372C119.119 22.7512 119.033 22.1513 118.833 22.4941C118.633 22.8369 118.118 23.0082 117.288 23.0082H107.507C107.793 23.9795 108.308 24.7507 109.052 25.3506C109.795 25.9505 110.71 26.2361 111.769 26.2361H111.683ZM111.711 16.5239C110.567 16.5239 109.624 16.8952 108.851 17.6094C108.079 18.3235 107.593 19.2662 107.393 20.4088H115.944C115.858 19.2662 115.458 18.3235 114.8 17.6094C114.142 16.8952 113.113 16.5239 111.711 16.5239Z" fill="#8B8D94"/>
</g>
<defs>
<clipPath id="clip0_492_3541">
<rect width="143" height="37.335" fill="white"/>
</clipPath>
</defs>
</svg>
