<svg width="212" height="122" viewBox="0 0 212 122" fill="none" xmlns="http://www.w3.org/2000/svg">
<rect x="0.528229" y="19.1107" width="96" height="99" rx="10.5" transform="rotate(-3.33365 0.528229 19.1107)" fill="#F0F0F0" stroke="#E3E3E3"/>
<rect x="118.164" y="12.536" width="93" height="102" rx="10.5" transform="rotate(4.28919 118.164 12.536)" fill="#F0F0F0" stroke="#E3E3E3"/>
<rect x="137.48" y="41.3398" width="56" height="13" rx="4" transform="rotate(4.28919 137.48 41.3398)" fill="white"/>
<rect x="126.711" y="64.5996" width="56" height="13" rx="4" transform="rotate(4.28919 126.711 64.5996)" fill="white"/>
<rect x="15.6045" y="45.7793" width="56" height="11" rx="4" transform="rotate(-3.33365 15.6045 45.7793)" fill="white"/>
<rect x="19.8203" y="66.5703" width="56" height="11" rx="4" transform="rotate(-3.33365 19.8203 66.5703)" fill="white"/>
<rect x="48.5" y="0.5" width="107" height="120" rx="10.5" fill="white" stroke="#E8E8E8"/>
<path d="M117.226 46.3644L104.867 25.7529C103.836 24.749 102.164 24.749 101.133 25.7529L88.7728 46.3644C87.7421 47.3673 87.7421 48.9952 88.7728 50H117.225C118.258 48.9952 118.258 47.3673 117.226 46.3644ZM101.862 33.1519C101.862 32.3548 102.525 31.7096 103.343 31.7096C104.16 31.7096 104.823 32.3548 104.823 33.1519V39.8827C104.823 40.6788 104.16 41.325 103.343 41.325C102.525 41.325 101.862 40.6788 101.862 39.8827V33.1519ZM103.351 46.1404C102.534 46.1404 101.871 45.4962 101.871 44.6981C101.871 43.9019 102.534 43.2558 103.351 43.2558C104.169 43.2558 104.832 43.9019 104.832 44.6981C104.832 45.4962 104.169 46.1404 103.351 46.1404Z" fill="#FF8934"/>
<rect x="64" y="61" width="76" height="11" rx="4" fill="#F0F0F0"/>
<rect x="64" y="78" width="76" height="11" rx="4" fill="#F0F0F0"/>
</svg>
