<svg width="280" height="150" viewBox="30 70 230 100" fill="none" xmlns="http://www.w3.org/2000/svg">
<g clip-path="url(#clip0_7363_28951)">
<mask id="mask0_7363_28951" style="mask-type:luminance" maskUnits="userSpaceOnUse" x="-41" y="-68" width="363" height="364">
<path d="M321.943 -67.2753H-40.8096V295.478H321.943V-67.2753Z" fill="white"/>
</mask>
<g mask="url(#mask0_7363_28951)">
<mask id="mask1_7363_28951" style="mask-type:alpha" maskUnits="userSpaceOnUse" x="19" y="-7" width="243" height="243">
<path d="M19.6494 114.101C19.6494 180.882 73.7861 235.019 140.567 235.019C207.348 235.019 261.485 180.882 261.485 114.101C261.485 47.3201 207.348 -6.81653 140.567 -6.81653C73.7861 -6.81653 19.6494 47.3201 19.6494 114.101Z" fill="#7F7F7F"/>
</mask>
<g mask="url(#mask1_7363_28951)">
<mask id="mask2_7363_28951" style="mask-type:luminance" maskUnits="userSpaceOnUse" x="-41" y="-68" width="363" height="364">
<path d="M-40.8096 -67.2753H321.944V295.478H-40.8096V-67.2753Z" fill="white"/>
</mask>
<g mask="url(#mask2_7363_28951)">
<path d="M187.38 152.644H87.623C82.6146 152.644 78.5542 148.583 78.5542 143.575V84.6275C78.5542 79.6191 82.6146 75.5587 87.623 75.5587H187.38C192.389 75.5587 196.449 79.6191 196.449 84.6275V143.575C196.449 148.583 192.389 152.644 187.38 152.644Z" fill="white"/>
<path d="M187.38 152.644H87.623C82.6146 152.644 78.5542 148.583 78.5542 143.575V84.6275C78.5542 79.6191 82.6146 75.5587 87.623 75.5587H187.38C192.389 75.5587 196.449 79.6191 196.449 84.6275V143.575C196.449 148.583 192.389 152.644 187.38 152.644Z" stroke="#0B2B46" stroke-width="2.13333" stroke-linecap="round" stroke-linejoin="round"/>
<path d="M196.449 109.619H78.5542V96.0161H196.449V109.619Z" fill="#0B2B46"/>
<path d="M177.768 138.881H168.699C166.195 138.881 164.165 136.851 164.165 134.347V129.813C164.165 127.308 166.195 125.278 168.699 125.278H177.768C180.272 125.278 182.302 127.308 182.302 129.813V134.347C182.302 136.851 180.272 138.881 177.768 138.881Z" fill="#0B2B46"/>
<path d="M219.465 153.791C219.465 164.809 210.533 173.742 199.514 173.742C188.495 173.742 179.562 164.809 179.562 153.791C179.562 142.772 188.495 133.839 199.514 133.839C210.533 133.839 219.465 142.772 219.465 153.791Z" fill="#FF5F5F"/>
<path d="M219.465 153.791C219.465 164.809 210.533 173.742 199.514 173.742C188.495 173.742 179.562 164.809 179.562 153.791C179.562 142.772 188.495 133.839 199.514 133.839C210.533 133.839 219.465 142.772 219.465 153.791Z" stroke="white" stroke-width="2.13333" stroke-linecap="round" stroke-linejoin="round"/>
<path d="M205.718 147.587L193.311 159.994" stroke="white" stroke-width="4.8" stroke-linecap="round" stroke-linejoin="round"/>
<path d="M193.311 147.587L205.718 159.994" stroke="white" stroke-width="4.8" stroke-linecap="round" stroke-linejoin="round"/>
</g>
</g>
</g>
</g>
<defs>
<clipPath id="clip0_7363_28951">
<rect width="280" height="280" fill="white" transform="translate(0 -31)"/>
</clipPath>
</defs>
</svg>
