<svg width="247" height="181" viewBox="0 0 247 181" fill="none" xmlns="http://www.w3.org/2000/svg">
<path d="M116.231 180.76C142.868 180.76 164.462 177 164.462 172.363C164.462 167.725 142.868 163.966 116.231 163.966C89.5937 163.966 68 167.725 68 172.363C68 177 89.5937 180.76 116.231 180.76Z" fill="#E5E7EB"/>
<path d="M150.726 97.1679C146.55 93.4606 148.008 81.165 148.008 81.165H102.409C102.409 81.165 103.867 93.4545 99.6904 97.1679C95.5136 100.881 87.333 102.729 87.333 113.634V170.731H163.146V113.634C163.115 102.735 154.897 100.881 150.726 97.1679Z" fill="white"/>
<path d="M163.115 171.041H87.3021C87.2202 171.041 87.1416 171.008 87.0837 170.95C87.0257 170.892 86.9932 170.814 86.9932 170.732V113.634C86.9932 105.145 92.0103 101.944 96.045 99.374C97.2527 98.6517 98.4032 97.8378 99.4865 96.9396C103.496 93.3745 102.119 81.3198 102.106 81.1963C102.1 81.1531 102.103 81.109 102.116 81.0673C102.129 81.0256 102.151 80.9873 102.18 80.9553C102.21 80.9242 102.245 80.8993 102.285 80.8823C102.324 80.8653 102.366 80.8565 102.409 80.8564H148.008C148.051 80.8565 148.093 80.8653 148.132 80.8823C148.172 80.8993 148.207 80.9242 148.236 80.9553C148.266 80.9873 148.288 81.0256 148.301 81.0673C148.314 81.109 148.317 81.1531 148.311 81.1963C148.311 81.3198 146.92 93.3745 150.93 96.9396C152.014 97.8378 153.164 98.6517 154.372 99.374C158.407 101.944 163.424 105.145 163.424 113.634V170.732C163.424 170.772 163.416 170.812 163.4 170.85C163.385 170.887 163.362 170.922 163.333 170.95C163.304 170.979 163.27 171.002 163.233 171.017C163.195 171.033 163.155 171.041 163.115 171.041ZM87.611 170.423H162.806V113.634C162.806 105.485 158.153 102.513 154.044 99.8992C152.805 99.1575 151.626 98.3209 150.516 97.3968C146.618 93.9306 147.427 83.5442 147.662 81.4743H102.755C102.965 83.5442 103.799 93.9306 99.9005 97.3968C98.7909 98.3209 97.6114 99.1575 96.3724 99.8992C92.2636 102.519 87.611 105.46 87.611 113.634V170.423Z" fill="#0A6375"/>
<path d="M117.176 148.815C114.977 152.472 117.442 160.597 117.442 160.597L120.704 162.964C123.049 164.373 125.857 164.794 128.511 164.132C131.165 163.471 133.447 161.783 134.857 159.439C136.266 157.095 136.686 154.287 136.025 151.633C135.364 148.979 133.676 146.696 131.332 145.287L127.68 143.52C127.68 143.52 119.345 145.151 117.176 148.815Z" fill="#33B28A"/>
<path d="M125.968 164.75C124.045 164.752 122.158 164.226 120.513 163.23L117.225 160.845C117.17 160.807 117.13 160.75 117.114 160.684C117.009 160.351 114.643 152.392 116.879 148.654C119.129 144.947 127.272 143.285 127.618 143.217C127.68 143.196 127.748 143.196 127.81 143.217L131.436 144.984C133.45 146.17 135.015 147.987 135.891 150.153C136.767 152.32 136.905 154.714 136.282 156.966C135.659 159.218 134.311 161.202 132.446 162.61C130.582 164.019 128.305 164.773 125.968 164.756V164.75ZM117.677 160.425L120.852 162.729C121.979 163.405 123.228 163.852 124.528 164.045C125.828 164.237 127.153 164.172 128.427 163.853C129.702 163.534 130.901 162.966 131.957 162.184C133.012 161.401 133.903 160.418 134.578 159.291C135.254 158.164 135.701 156.915 135.894 155.615C136.086 154.315 136.021 152.99 135.702 151.716C135.383 150.441 134.815 149.242 134.033 148.187C133.25 147.131 132.267 146.24 131.14 145.565L127.637 143.853C126.691 144.057 119.388 145.707 117.411 148.988C115.434 152.269 117.411 159.479 117.677 160.412V160.425Z" fill="#0A6375"/>
<path d="M123.738 163.094C129.433 163.094 134.05 158.477 134.05 152.782C134.05 147.087 129.433 142.47 123.738 142.47C118.043 142.47 113.426 147.087 113.426 152.782C113.426 158.477 118.043 163.094 123.738 163.094Z" fill="#33B28A"/>
<path d="M123.72 163.396C121.376 163.39 119.101 162.608 117.248 161.173C115.395 159.739 114.069 157.731 113.477 155.463C112.885 153.196 113.059 150.796 113.974 148.638C114.889 146.481 116.492 144.686 118.533 143.535C120.574 142.384 122.939 141.941 125.259 142.274C127.578 142.608 129.722 143.7 131.356 145.38C132.99 147.059 134.023 149.233 134.292 151.561C134.561 153.889 134.053 156.24 132.846 158.249C131.902 159.825 130.564 161.129 128.964 162.031C127.364 162.933 125.557 163.404 123.72 163.396ZM123.757 142.772C122.936 142.773 122.119 142.872 121.322 143.068C118.858 143.683 116.72 145.214 115.346 147.35C113.971 149.487 113.463 152.066 113.925 154.564C114.387 157.062 115.784 159.29 117.831 160.793C119.879 162.297 122.422 162.963 124.944 162.655C127.465 162.348 129.775 161.091 131.401 159.14C133.028 157.189 133.849 154.691 133.698 152.155C133.547 149.62 132.434 147.237 130.587 145.494C128.739 143.75 126.297 142.777 123.757 142.772Z" fill="#0A6375"/>
<path d="M117.955 148.055C118.387 148.315 118.814 148.568 119.24 148.834C119.327 148.883 119.37 148.877 119.432 148.834C119.934 148.271 120.572 147.845 121.285 147.598C122.027 147.333 122.841 147.35 123.571 147.647C123.769 147.721 123.967 147.82 124.189 147.913L122.991 149.903C122.689 149.725 122.336 149.655 121.99 149.705C121.724 149.775 121.462 149.86 121.205 149.958V149.983L123.676 151.472L123.856 151.293C124.285 150.816 124.768 150.391 125.295 150.026C125.684 149.749 126.14 149.583 126.615 149.545C127.091 149.507 127.568 149.598 127.995 149.81C128.747 150.123 129.364 150.689 129.74 151.411C130.116 152.132 130.227 152.963 130.053 153.758C129.96 154.203 129.812 154.635 129.682 155.099L130.646 155.673L129.546 157.527L128.558 156.909C128.236 157.218 127.94 157.527 127.625 157.799C127.011 158.337 126.234 158.652 125.419 158.695C124.718 158.709 124.029 158.518 123.435 158.145L124.591 156.162C124.941 156.346 125.341 156.414 125.732 156.355C126.123 156.296 126.486 156.114 126.766 155.834L124.103 154.234C123.775 154.543 123.448 154.852 123.114 155.154C122.722 155.528 122.245 155.801 121.724 155.951C121.188 156.085 120.624 156.046 120.111 155.84C119.472 155.615 118.907 155.217 118.48 154.691C118.173 154.311 117.954 153.869 117.838 153.394C117.721 152.92 117.711 152.426 117.807 151.948C117.881 151.558 118.035 151.188 118.146 150.805L118.196 150.675L116.861 149.872L117.955 148.055ZM127.89 154.024C128.034 153.698 128.082 153.338 128.026 152.986C127.971 152.688 127.808 152.421 127.569 152.235C127.33 152.05 127.031 151.958 126.729 151.979C126.302 152.101 125.915 152.335 125.61 152.658L127.89 154.024ZM119.858 151.713C119.814 152.018 119.794 152.326 119.796 152.633C119.81 152.799 119.859 152.959 119.942 153.104C120.024 153.248 120.136 153.372 120.272 153.468C120.407 153.564 120.562 153.63 120.726 153.659C120.889 153.689 121.057 153.683 121.217 153.641C121.543 153.498 121.833 153.288 122.07 153.023L119.858 151.713Z" fill="white"/>
<path d="M123.627 91.9776C120.884 95.2276 121.94 103.643 121.94 103.643L124.764 106.522C126.843 108.302 129.545 109.183 132.274 108.971C135.002 108.758 137.535 107.471 139.315 105.392C141.094 103.312 141.975 100.611 141.763 97.882C141.551 95.1532 140.264 92.6204 138.184 90.8407L134.903 88.499C134.903 88.499 126.407 88.7338 123.627 91.9776Z" fill="#33B28A"/>
<path d="M131.461 109.296C128.938 109.288 126.502 108.379 124.59 106.732L121.742 103.834C121.698 103.783 121.668 103.721 121.656 103.655C121.612 103.309 120.587 95.0666 123.417 91.7549C126.246 88.4431 134.538 88.1774 134.909 88.165C134.974 88.1674 135.038 88.1866 135.094 88.2206L138.375 90.5686C140.031 91.9765 141.216 93.859 141.767 95.9616C142.319 98.0643 142.212 100.286 141.461 102.326C140.71 104.365 139.35 106.125 137.566 107.368C135.782 108.61 133.66 109.274 131.486 109.271L131.461 109.296ZM122.236 103.501L124.986 106.306C127.006 108.026 129.626 108.874 132.271 108.663C134.916 108.451 137.368 107.198 139.089 105.178C140.809 103.158 141.657 100.538 141.446 97.8931C141.234 95.2483 139.981 92.7958 137.961 91.0752L134.798 88.8138C133.834 88.8509 126.358 89.2648 123.861 92.1812C121.365 95.0975 122.119 102.543 122.236 103.501Z" fill="#0A6375"/>
<path d="M129.478 107.294C135.174 107.294 139.791 102.677 139.791 96.9822C139.791 91.2869 135.174 86.6699 129.478 86.6699C123.783 86.6699 119.166 91.2869 119.166 96.9822C119.166 102.677 123.783 107.294 129.478 107.294Z" fill="#33B28A"/>
<path d="M129.472 107.598C127.76 107.598 126.074 107.184 124.557 106.391C123.039 105.599 121.736 104.451 120.758 103.046C119.78 101.642 119.155 100.021 118.938 98.3235C118.721 96.6255 118.918 94.9002 119.511 93.2946C120.105 91.689 121.077 90.2506 122.346 89.1019C123.616 87.9532 125.144 87.1283 126.8 86.6975C128.457 86.2666 130.193 86.2425 131.861 86.6273C133.529 87.012 135.079 87.7942 136.38 88.9073C138.029 90.3189 139.206 92.2021 139.753 94.3031C140.299 96.4042 140.189 98.6223 139.436 100.659C138.684 102.695 137.325 104.452 135.544 105.693C133.762 106.933 131.643 107.598 129.472 107.598ZM129.472 86.9795C127.126 86.9792 124.854 87.8044 123.054 89.3104C121.255 90.8165 120.043 92.9076 119.63 95.2175C119.217 97.5274 119.63 99.9089 120.796 101.945C121.962 103.981 123.807 105.542 126.009 106.355C128.21 107.168 130.627 107.18 132.836 106.39C135.046 105.6 136.907 104.058 138.094 102.034C139.281 100.01 139.719 97.6328 139.33 95.3188C138.94 93.0048 137.75 90.9014 135.966 89.3769C134.163 87.8241 131.864 86.9672 129.484 86.961L129.472 86.9795Z" fill="#0A6375"/>
<path d="M124.554 91.3662L125.697 92.3424C125.708 92.3567 125.723 92.3681 125.74 92.376C125.756 92.3838 125.774 92.3879 125.793 92.3879C125.811 92.3879 125.829 92.3838 125.846 92.376C125.862 92.3681 125.877 92.3567 125.888 92.3424C126.473 91.8732 127.165 91.5568 127.903 91.4218C128.677 91.2875 129.474 91.439 130.146 91.8482C130.331 91.9594 130.504 92.0891 130.695 92.2127L129.188 93.9736C128.917 93.7514 128.58 93.6254 128.23 93.6153C127.956 93.6392 127.684 93.6784 127.415 93.7327V93.7883L129.608 95.6419L129.818 95.4874C130.318 95.09 130.863 94.7539 131.443 94.4865C131.872 94.2768 132.349 94.1874 132.825 94.2276C133.3 94.2679 133.756 94.4363 134.143 94.7151C134.906 95.186 135.452 95.9386 135.663 96.8096C135.841 97.52 135.789 98.2684 135.515 98.9475C135.354 99.3738 135.138 99.7754 134.934 100.183L135.787 100.912L134.403 102.537L133.519 101.783C133.148 102.037 132.815 102.29 132.45 102.506C131.812 102.918 131.055 103.107 130.299 103.044C129.542 102.98 128.827 102.667 128.267 102.154L129.75 100.418C130.062 100.662 130.445 100.798 130.841 100.805C131.237 100.812 131.624 100.689 131.943 100.455L129.589 98.4408C129.213 98.688 128.842 98.9413 128.459 99.1823C128.01 99.4841 127.495 99.6728 126.957 99.7322C126.406 99.7789 125.854 99.649 125.382 99.3614C124.791 99.0318 124.302 98.5468 123.967 97.9589C123.727 97.5337 123.583 97.0606 123.547 96.5736C123.511 96.0866 123.582 95.5975 123.757 95.1414C123.911 94.775 124.086 94.4181 124.282 94.0725L124.35 93.9489L123.164 92.9356L124.554 91.3662ZM133.365 98.898C133.559 98.6 133.667 98.2531 133.674 97.8971C133.675 97.5897 133.562 97.2927 133.356 97.0642C133.151 96.8357 132.867 96.6921 132.561 96.6614C132.113 96.7064 131.686 96.873 131.326 97.1433L133.365 98.898ZM125.857 95.2959C125.762 95.5863 125.69 95.8838 125.641 96.1856C125.627 96.3514 125.649 96.5183 125.707 96.6747C125.764 96.831 125.854 96.973 125.972 97.0906C126.09 97.2083 126.232 97.2989 126.388 97.356C126.544 97.4131 126.711 97.4354 126.877 97.4213C127.22 97.3376 127.542 97.1841 127.822 96.9703L125.857 95.2959Z" fill="white"/>
<path d="M96.9102 77.4512V85.7986C96.9102 89.2587 109.583 92.0638 125.209 92.0638C140.835 92.0638 153.507 89.2587 153.507 85.7986V77.4512H96.9102Z" fill="white"/>
<path d="M125.208 92.3731C111.146 92.3731 96.6011 89.9016 96.6011 85.7989V77.4515C96.6011 77.3696 96.6336 77.291 96.6916 77.2331C96.7495 77.1751 96.8281 77.1426 96.91 77.1426H153.507C153.589 77.1426 153.667 77.1751 153.725 77.2331C153.783 77.291 153.816 77.3696 153.816 77.4515V85.7989C153.816 89.9139 139.271 92.3731 125.208 92.3731ZM97.2189 77.7604V85.7928C97.2189 88.672 108.464 91.749 125.208 91.749C141.953 91.749 153.198 88.6597 153.198 85.7928V77.7604H97.2189Z" fill="#0A6375"/>
<path d="M125.209 83.7159C140.837 83.7159 153.507 80.9109 153.507 77.4507C153.507 73.9906 140.837 71.1855 125.209 71.1855C109.58 71.1855 96.9102 73.9906 96.9102 77.4507C96.9102 80.9109 109.58 83.7159 125.209 83.7159Z" fill="white"/>
<path d="M125.208 84.0191C111.146 84.0191 96.6011 81.5476 96.6011 77.4511C96.6011 73.3546 111.146 70.8955 125.208 70.8955C139.271 70.8955 153.816 73.367 153.816 77.4696C153.816 81.5723 139.271 84.0191 125.208 84.0191ZM125.208 71.5134C108.464 71.5134 97.2189 74.6027 97.2189 77.4696C97.2189 80.3366 108.464 83.4197 125.208 83.4197C141.953 83.4197 153.198 80.3304 153.198 77.4696C153.198 74.6089 141.953 71.5134 125.208 71.5134Z" fill="#0A6375"/>
<path d="M125.209 179.121C146.144 179.121 163.115 175.365 163.115 170.731C163.115 166.096 146.144 162.34 125.209 162.34C104.273 162.34 87.3022 166.096 87.3022 170.731C87.3022 175.365 104.273 179.121 125.209 179.121Z" fill="white"/>
<path d="M125.208 179.425C103.781 179.425 86.9932 175.607 86.9932 170.732C86.9932 165.857 103.781 162.032 125.208 162.032C146.636 162.032 163.424 165.851 163.424 170.732C163.424 175.613 146.636 179.425 125.208 179.425ZM125.208 162.65C107.049 162.65 87.611 165.894 87.611 170.732C87.611 175.57 107.049 178.807 125.208 178.807C143.368 178.807 162.806 175.564 162.806 170.732C162.806 165.9 143.368 162.65 125.208 162.65Z" fill="#0A6375"/>
<path d="M91.8436 163.613C91.7617 163.613 91.6831 163.581 91.6252 163.523C91.5672 163.465 91.5347 163.386 91.5347 163.304V112.021C91.5347 108.654 95.9648 105.385 99.8697 102.494C102.218 100.757 104.436 99.1199 104.769 98.0139C105.341 96.0768 105.687 94.0803 105.801 92.0639C105.8 92.0225 105.808 91.9813 105.824 91.9432C105.84 91.905 105.864 91.8707 105.895 91.8426C105.925 91.8145 105.961 91.7933 106 91.7803C106.04 91.7673 106.081 91.7629 106.123 91.7673C106.163 91.7689 106.203 91.7785 106.24 91.7955C106.277 91.8125 106.31 91.8366 106.337 91.8664C106.365 91.8963 106.386 91.9313 106.4 91.9694C106.414 92.0075 106.421 92.048 106.419 92.0886C106.303 94.1593 105.948 96.2098 105.363 98.1993C104.961 99.4968 102.774 101.116 100.234 102.988C96.6383 105.651 92.1525 108.969 92.1525 112.021V163.304C92.1525 163.386 92.12 163.465 92.062 163.523C92.0041 163.581 91.9255 163.613 91.8436 163.613Z" fill="#E5E7EB"/>
<path d="M158.573 163.613C158.491 163.613 158.413 163.581 158.355 163.523C158.297 163.465 158.264 163.386 158.264 163.305V112.021C158.264 108.969 153.779 105.651 150.183 102.988C147.643 101.134 145.456 99.4971 145.054 98.1996C144.469 96.2101 144.114 94.1596 143.998 92.0889C143.996 92.0483 144.003 92.0078 144.017 91.9697C144.031 91.9316 144.052 91.8966 144.079 91.8667C144.107 91.8369 144.14 91.8128 144.177 91.7958C144.214 91.7787 144.254 91.7692 144.294 91.7676C144.374 91.7675 144.451 91.7984 144.509 91.8537C144.566 91.9089 144.6 91.9844 144.603 92.0642C144.718 94.0805 145.064 96.0771 145.635 98.0142C145.969 99.1202 148.187 100.758 150.535 102.494C154.44 105.385 158.87 108.672 158.87 112.021V163.305C158.87 163.384 158.839 163.461 158.784 163.519C158.729 163.576 158.653 163.61 158.573 163.613Z" fill="#E5E7EB"/>
<path d="M97.04 161.907V167.215C97.04 169.223 101.983 170.854 108.007 170.854C114.031 170.854 118.968 169.223 118.968 167.215V161.907H97.04Z" fill="#33B28A"/>
<path d="M108.007 171.163C102.446 171.163 96.731 169.687 96.731 167.215V161.908C96.731 161.826 96.7635 161.747 96.8214 161.689C96.8794 161.631 96.958 161.599 97.0399 161.599H118.968C119.05 161.599 119.129 161.631 119.187 161.689C119.244 161.747 119.277 161.826 119.277 161.908V167.215C119.277 169.687 113.543 171.163 108.007 171.163ZM97.3488 162.217V167.215C97.3488 168.822 101.631 170.545 108.007 170.545C114.383 170.545 118.659 168.822 118.659 167.215V162.217H97.3488Z" fill="#0A6375"/>
<path d="M108.007 165.547C114.061 165.547 118.968 163.918 118.968 161.908C118.968 159.898 114.061 158.269 108.007 158.269C101.953 158.269 97.0459 159.898 97.0459 161.908C97.0459 163.918 101.953 165.547 108.007 165.547Z" fill="#0A6375"/>
<path d="M108.007 165.856C102.446 165.856 96.731 164.38 96.731 161.908C96.731 159.437 102.465 157.96 108.007 157.96C113.549 157.96 119.277 159.437 119.277 161.908C119.277 164.38 113.543 165.856 108.007 165.856ZM108.007 158.578C101.631 158.578 97.3488 160.302 97.3488 161.908C97.3488 163.515 101.631 165.238 108.007 165.238C114.383 165.238 118.659 163.515 118.659 161.908C118.659 160.302 114.377 158.578 108.007 158.578Z" fill="#0A6375"/>
<path d="M99.6226 154.636V159.937C99.6226 161.951 104.535 163.576 110.59 163.576C116.645 163.576 121.551 161.951 121.551 159.937V154.636H99.6226Z" fill="#33B28A"/>
<path d="M110.59 163.886C105.029 163.886 99.3135 162.409 99.3135 159.937V154.636C99.3135 154.554 99.346 154.476 99.404 154.418C99.4619 154.36 99.5405 154.327 99.6224 154.327H121.551C121.633 154.327 121.711 154.36 121.769 154.418C121.827 154.476 121.86 154.554 121.86 154.636V159.937C121.86 162.409 116.126 163.886 110.59 163.886ZM99.9313 154.926V159.919C99.9313 161.532 104.213 163.249 110.59 163.249C116.966 163.249 121.242 161.532 121.242 159.919V154.926H99.9313Z" fill="#0A6375"/>
<path d="M110.59 158.276C116.644 158.276 121.551 156.646 121.551 154.636C121.551 152.626 116.644 150.997 110.59 150.997C104.536 150.997 99.6289 152.626 99.6289 154.636C99.6289 156.646 104.536 158.276 110.59 158.276Z" fill="#0A6375"/>
<path d="M110.59 158.578C105.029 158.578 99.3135 157.101 99.3135 154.636C99.3135 152.17 105.047 150.688 110.59 150.688C116.132 150.688 121.86 152.164 121.86 154.636C121.86 157.107 116.126 158.578 110.59 158.578ZM110.59 151.305C104.213 151.305 99.9313 153.023 99.9313 154.636C99.9313 156.248 104.213 157.96 110.59 157.96C116.966 157.96 121.242 156.242 121.242 154.636C121.242 153.029 116.96 151.305 110.59 151.305Z" fill="#0A6375"/>
<path d="M97.4043 146.523V151.837C97.4043 153.845 102.316 155.476 108.371 155.476C114.427 155.476 119.332 153.845 119.332 151.837V146.523H97.4043Z" fill="#33B28A"/>
<path d="M108.347 155.778C102.786 155.778 97.0708 154.302 97.0708 151.83V146.523C97.0708 146.441 97.1033 146.362 97.1613 146.304C97.2192 146.246 97.2978 146.214 97.3797 146.214H119.308C119.39 146.214 119.468 146.246 119.526 146.304C119.584 146.362 119.617 146.441 119.617 146.523V151.836C119.648 154.308 113.883 155.778 108.347 155.778ZM97.6887 146.832V151.836C97.6887 153.443 101.971 155.167 108.347 155.167C114.723 155.167 119.03 153.437 119.03 151.836V146.832H97.6887Z" fill="#0A6375"/>
<path d="M108.347 150.162C114.4 150.162 119.308 148.533 119.308 146.523C119.308 144.513 114.4 142.884 108.347 142.884C102.293 142.884 97.3857 144.513 97.3857 146.523C97.3857 148.533 102.293 150.162 108.347 150.162Z" fill="#0A6375"/>
<path d="M108.347 150.472C102.786 150.472 97.0708 148.995 97.0708 146.523C97.0708 144.052 102.805 142.575 108.347 142.575C113.889 142.575 119.648 144.052 119.648 146.523C119.648 148.995 113.883 150.472 108.347 150.472ZM108.347 143.193C101.971 143.193 97.6887 144.917 97.6887 146.523C97.6887 148.13 101.971 149.854 108.347 149.854C114.723 149.854 119.03 148.13 119.03 146.523C119.03 144.917 114.705 143.187 108.347 143.187V143.193Z" fill="#0A6375"/>
<path d="M125.9 160.981V166.289C125.9 168.303 130.806 169.928 136.861 169.928C142.917 169.928 147.829 168.303 147.829 166.289V160.981H125.9Z" fill="#33B28A"/>
<path d="M136.862 170.236C131.301 170.236 125.592 168.76 125.592 166.288V160.981C125.592 160.899 125.624 160.82 125.682 160.762C125.74 160.704 125.819 160.672 125.901 160.672H147.829C147.911 160.672 147.989 160.704 148.047 160.762C148.105 160.82 148.138 160.899 148.138 160.981V166.288C148.138 168.76 142.404 170.236 136.862 170.236ZM126.21 161.29V166.288C126.21 167.901 130.492 169.619 136.862 169.619C143.232 169.619 147.52 167.901 147.52 166.288V161.29H126.21Z" fill="#0A6375"/>
<path d="M136.861 164.62C142.915 164.62 147.822 162.991 147.822 160.981C147.822 158.971 142.915 157.342 136.861 157.342C130.808 157.342 125.9 158.971 125.9 160.981C125.9 162.991 130.808 164.62 136.861 164.62Z" fill="#0A6375"/>
<path d="M136.862 164.929C131.301 164.929 125.592 163.453 125.592 160.981C125.592 158.51 131.326 157.039 136.862 157.039C142.398 157.039 148.138 158.516 148.138 160.981C148.138 163.446 142.404 164.929 136.862 164.929ZM136.862 157.657C130.492 157.657 126.21 159.375 126.21 160.981C126.21 162.588 130.492 164.311 136.862 164.311C143.232 164.311 147.52 162.594 147.52 160.981C147.52 159.368 143.238 157.657 136.862 157.657Z" fill="#0A6375"/>
<path d="M124.473 154.691V159.999C124.473 162.007 129.379 163.638 135.434 163.638C141.489 163.638 146.401 162.007 146.401 159.999V154.691H124.473Z" fill="#33B28A"/>
<path d="M135.434 163.946C129.873 163.946 124.164 162.47 124.164 159.998V154.691C124.164 154.609 124.197 154.53 124.255 154.472C124.312 154.414 124.391 154.382 124.473 154.382H146.401C146.483 154.382 146.562 154.414 146.62 154.472C146.678 154.53 146.71 154.609 146.71 154.691V159.998C146.71 162.47 140.976 163.946 135.434 163.946ZM124.782 155V159.998C124.782 161.605 129.064 163.329 135.434 163.329C141.804 163.329 146.092 161.605 146.092 159.998V155H124.782Z" fill="#0A6375"/>
<path d="M135.434 158.33C141.488 158.33 146.395 156.701 146.395 154.691C146.395 152.681 141.488 151.052 135.434 151.052C129.381 151.052 124.473 152.681 124.473 154.691C124.473 156.701 129.381 158.33 135.434 158.33Z" fill="#0A6375"/>
<path d="M135.434 158.633C129.873 158.633 124.164 157.156 124.164 154.685C124.164 152.213 129.898 150.736 135.434 150.736C140.97 150.736 146.71 152.213 146.71 154.685C146.71 157.156 140.976 158.633 135.434 158.633ZM135.434 151.354C129.064 151.354 124.782 153.078 124.782 154.685C124.782 156.291 129.064 158.015 135.434 158.015C141.804 158.015 146.092 156.291 146.092 154.685C146.092 153.078 141.81 151.36 135.434 151.36V151.354Z" fill="#0A6375"/>
<path d="M126.24 147.029V152.337C126.24 154.345 131.146 155.976 137.201 155.976C143.256 155.976 148.168 154.345 148.168 152.337V147.029H126.24Z" fill="#33B28A"/>
<path d="M137.202 156.285C131.641 156.285 125.932 154.809 125.932 152.337V147.03C125.932 146.948 125.964 146.869 126.022 146.811C126.08 146.753 126.159 146.721 126.241 146.721H148.169C148.251 146.721 148.329 146.753 148.387 146.811C148.445 146.869 148.478 146.948 148.478 147.03V152.337C148.478 154.809 142.744 156.285 137.202 156.285ZM126.55 147.339V152.337C126.55 153.944 130.831 155.667 137.202 155.667C143.572 155.667 147.86 153.944 147.86 152.337V147.339H126.55Z" fill="#0A6375"/>
<path d="M137.201 150.669C143.255 150.669 148.162 149.04 148.162 147.03C148.162 145.02 143.255 143.391 137.201 143.391C131.148 143.391 126.24 145.02 126.24 147.03C126.24 149.04 131.148 150.669 137.201 150.669Z" fill="#0A6375"/>
<path d="M137.202 150.977C131.641 150.977 125.932 149.501 125.932 147.029C125.932 144.558 131.665 143.081 137.202 143.081C142.738 143.081 148.478 144.558 148.478 147.029C148.478 149.501 142.744 150.977 137.202 150.977ZM137.202 143.699C130.831 143.699 126.55 145.423 126.55 147.029C126.55 148.636 130.831 150.36 137.202 150.36C143.572 150.36 147.86 148.636 147.86 147.029C147.86 145.423 143.578 143.699 137.202 143.699Z" fill="#0A6375"/>
<path d="M124.473 139.337V144.644C124.473 146.652 129.379 148.284 135.434 148.284C141.489 148.284 146.401 146.652 146.401 144.644V139.337H124.473Z" fill="#33B28A"/>
<path d="M135.434 148.593C129.873 148.593 124.164 147.116 124.164 144.645V139.337C124.164 139.255 124.197 139.177 124.255 139.119C124.312 139.061 124.391 139.028 124.473 139.028H146.401C146.483 139.028 146.562 139.061 146.62 139.119C146.678 139.177 146.71 139.255 146.71 139.337V144.645C146.71 147.116 140.976 148.593 135.434 148.593ZM124.782 139.646V144.645C124.782 146.251 129.064 147.975 135.434 147.975C141.804 147.975 146.092 146.251 146.092 144.645V139.646H124.782Z" fill="#0A6375"/>
<path d="M135.434 142.977C141.488 142.977 146.395 141.347 146.395 139.337C146.395 137.328 141.488 135.698 135.434 135.698C129.381 135.698 124.473 137.328 124.473 139.337C124.473 141.347 129.381 142.977 135.434 142.977Z" fill="#0A6375"/>
<path d="M135.434 143.285C129.873 143.285 124.164 141.808 124.164 139.337C124.164 136.865 129.898 135.389 135.434 135.389C140.97 135.389 146.71 136.865 146.71 139.337C146.71 141.808 140.976 143.285 135.434 143.285ZM135.434 136.007C129.064 136.007 124.782 137.73 124.782 139.337C124.782 140.943 129.064 142.667 135.434 142.667C141.804 142.667 146.092 140.943 146.092 139.337C146.092 137.73 141.81 136.007 135.434 136.007Z" fill="#0A6375"/>
<path d="M128.007 133.047V138.354C128.007 140.362 132.913 141.987 138.968 141.987C145.023 141.987 149.923 140.362 149.923 138.354V133.047H128.007Z" fill="#33B28A"/>
<path d="M138.969 142.297C133.408 142.297 127.699 140.826 127.699 138.355V133.047C127.699 132.965 127.731 132.887 127.789 132.829C127.847 132.771 127.926 132.738 128.008 132.738H149.924C150.005 132.738 150.084 132.771 150.142 132.829C150.2 132.887 150.232 132.965 150.232 133.047V138.355C150.245 140.826 144.511 142.297 138.969 142.297ZM128.298 133.356V138.355C128.298 139.961 132.58 141.679 138.95 141.679C145.32 141.679 149.608 139.961 149.608 138.355V133.356H128.298Z" fill="#0A6375"/>
<path d="M138.968 136.687C145.022 136.687 149.929 135.057 149.929 133.047C149.929 131.038 145.022 129.408 138.968 129.408C132.915 129.408 128.007 131.038 128.007 133.047C128.007 135.057 132.915 136.687 138.968 136.687Z" fill="#0A6375"/>
<path d="M138.969 137.008C133.408 137.008 127.699 135.538 127.699 133.066C127.699 130.595 133.433 129.118 138.969 129.118C144.505 129.118 150.245 130.595 150.245 133.066C150.245 135.538 144.511 137.008 138.969 137.008ZM138.969 129.736C132.623 129.717 128.298 131.448 128.298 133.048C128.298 134.648 132.623 136.39 138.969 136.39C145.314 136.39 149.627 134.673 149.627 133.066C149.627 131.46 145.345 129.717 138.969 129.717V129.736Z" fill="#0A6375"/>
<path d="M125.604 126.758V132.065C125.604 134.08 130.51 135.705 136.565 135.705C142.62 135.705 147.532 134.08 147.532 132.065V126.764L125.604 126.758Z" fill="#33B28A"/>
<path d="M136.565 136.007C131.004 136.007 125.295 134.53 125.295 132.058V126.757C125.295 126.675 125.327 126.597 125.385 126.539C125.443 126.481 125.522 126.448 125.604 126.448H147.532C147.614 126.448 147.693 126.481 147.75 126.539C147.808 126.597 147.841 126.675 147.841 126.757V132.065C147.841 134.536 142.107 136.007 136.565 136.007ZM125.913 127.066V132.065C125.913 133.677 130.195 135.395 136.565 135.395C142.935 135.395 147.223 133.677 147.223 132.065V127.072L125.913 127.066Z" fill="#0A6375"/>
<path d="M136.565 130.397C142.619 130.397 147.526 128.767 147.526 126.757C147.526 124.748 142.619 123.118 136.565 123.118C130.511 123.118 125.604 124.748 125.604 126.757C125.604 128.767 130.511 130.397 136.565 130.397Z" fill="#33B28A"/>
<path d="M136.565 130.7C131.004 130.7 125.295 129.223 125.295 126.758C125.295 124.292 131.023 122.81 136.565 122.81C142.107 122.81 147.841 124.286 147.841 126.758C147.841 129.229 142.107 130.7 136.565 130.7ZM136.565 123.427C130.195 123.427 125.913 125.145 125.913 126.758C125.913 128.37 130.195 130.082 136.565 130.082C142.935 130.082 147.223 128.364 147.223 126.758C147.223 125.151 142.941 123.415 136.565 123.415V123.427Z" fill="#0A6375"/>
<path d="M113.519 167.655L113.76 171.609C113.809 174.26 118.869 176.317 125.06 176.2C131.251 176.082 136.231 173.839 136.182 171.189L135.941 167.234L113.519 167.655Z" fill="#33B28A"/>
<path d="M124.591 176.514C122.01 176.563 119.442 176.127 117.022 175.229C114.767 174.315 113.506 173.029 113.481 171.614L113.24 167.672C113.238 167.589 113.266 167.507 113.321 167.444C113.379 167.383 113.459 167.347 113.543 167.345L135.966 166.925C136.044 166.925 136.12 166.955 136.178 167.009C136.235 167.063 136.27 167.137 136.275 167.215L136.516 171.17C136.571 174.049 131.573 176.391 125.091 176.508L124.591 176.514ZM113.877 167.957L114.087 171.608C114.087 172.757 115.255 173.87 117.238 174.698C119.744 175.616 122.406 176.036 125.073 175.933C130.979 175.822 135.935 173.672 135.892 171.238L135.669 167.592L113.877 167.957Z" fill="#0A6375"/>
<path d="M124.813 172.255C131.006 172.139 135.985 169.893 135.936 167.239C135.886 164.585 130.826 162.526 124.634 162.642C118.441 162.758 113.462 165.003 113.511 167.658C113.561 170.312 118.621 172.37 124.813 172.255Z" fill="#33B28A"/>
<path d="M124.319 172.561C121.738 172.608 119.17 172.172 116.75 171.275C114.495 170.361 113.234 169.076 113.209 167.661C113.16 164.794 118.152 162.452 124.634 162.335C127.383 162.229 130.127 162.664 132.709 163.614C134.965 164.528 136.225 165.813 136.25 167.228C136.305 170.095 131.307 172.437 124.825 172.554L124.319 172.561ZM125.14 162.959H124.646C118.739 163.07 113.784 165.22 113.827 167.655C113.827 168.792 115.001 169.904 116.985 170.707C119.488 171.627 122.148 172.047 124.813 171.943C130.726 171.838 135.681 169.681 135.632 167.247C135.632 166.11 134.464 164.998 132.481 164.195C130.133 163.327 127.643 162.907 125.14 162.959Z" fill="#0A6375"/>
<path d="M132.691 166.771L131.103 166.931C130.998 166.931 130.985 166.931 131.029 167.012C131.194 167.159 131.32 167.345 131.395 167.553C131.469 167.762 131.49 167.986 131.455 168.204C131.338 168.624 130.837 168.915 130.071 169.082C129.861 169.125 129.632 169.162 129.398 169.199L127.865 167.864C128.153 167.855 128.431 167.754 128.656 167.574C128.732 167.456 128.788 167.327 128.823 167.191H128.767L125.802 167.487L125.882 167.63C126.102 167.947 126.256 168.307 126.333 168.686C126.426 169.304 125.931 169.675 124.887 169.86C123.878 170.028 122.846 169.989 121.853 169.743C121.102 169.584 120.385 169.289 119.74 168.871C119.413 168.649 119.122 168.414 118.826 168.186L117.738 168.297L116.991 167.222L118.06 167.111C118.005 166.907 117.964 166.701 117.936 166.493C117.93 166.288 117.986 166.087 118.096 165.915C118.206 165.743 118.366 165.608 118.554 165.529C119.032 165.29 119.553 165.147 120.086 165.109L120.982 166.091C120.247 166.215 119.858 166.468 119.987 166.9L122.916 166.592C122.836 166.375 122.743 166.165 122.675 165.974C122.62 165.863 122.6 165.739 122.616 165.617C122.633 165.494 122.686 165.38 122.768 165.288C123.036 165.045 123.373 164.89 123.732 164.843C124.341 164.717 124.964 164.669 125.585 164.701C126.599 164.745 127.596 164.966 128.533 165.356C128.885 165.51 129.187 165.683 129.521 165.85L129.639 165.912L131.196 165.751L132.691 166.771ZM120.846 167.963C121.097 168.175 121.387 168.337 121.699 168.439C121.98 168.551 122.281 168.603 122.583 168.592C122.885 168.582 123.181 168.508 123.454 168.377C123.67 168.179 123.54 167.938 123.485 167.698L120.846 167.963ZM127.643 166.11C127.334 165.986 127.074 165.869 126.778 165.776C126.08 165.56 125.202 165.621 125.042 165.893C124.961 166.035 125.042 166.202 125.122 166.375L127.643 166.11Z" fill="white"/>
<path d="M132.184 121.012L131.387 124.892C130.769 127.468 135.095 130.768 141.113 132.263C147.131 133.758 152.512 132.881 153.149 130.304L153.946 126.424L132.184 121.012Z" fill="#33B28A"/>
<path d="M146.717 133.301C144.799 133.285 142.89 133.036 141.032 132.559C134.767 131.002 130.399 127.616 131.084 124.817L131.882 120.943C131.89 120.903 131.906 120.864 131.929 120.83C131.952 120.796 131.983 120.767 132.017 120.745C132.09 120.703 132.176 120.69 132.258 120.708L154.02 126.121C154.097 126.14 154.163 126.188 154.206 126.254C154.248 126.321 154.263 126.402 154.248 126.479L153.451 130.359C153.112 131.75 151.598 132.72 149.194 133.109C148.375 133.238 147.546 133.302 146.717 133.301ZM132.419 121.388L131.69 124.953C131.072 127.332 135.447 130.514 141.187 131.96C143.762 132.658 146.449 132.843 149.095 132.503C151.209 132.164 152.574 131.33 152.852 130.23L153.581 126.652L132.419 121.388Z" fill="#0A6375"/>
<path d="M153.953 126.433C154.594 123.857 150.241 120.556 144.231 119.061C138.221 117.566 132.829 118.442 132.188 121.019C131.547 123.595 135.9 126.896 141.91 128.391C147.92 129.886 153.312 129.01 153.953 126.433Z" fill="#33B28A"/>
<path d="M147.508 129.421C145.592 129.404 143.685 129.155 141.829 128.679C139.147 128.069 136.611 126.937 134.365 125.349C132.419 123.878 131.542 122.309 131.894 120.937C132.246 119.566 133.748 118.596 136.151 118.206C141.656 117.602 147.196 118.98 151.777 122.093C153.717 123.563 154.601 125.127 154.249 126.498C153.903 127.876 152.395 128.846 149.985 129.235C149.166 129.363 148.337 129.425 147.508 129.421ZM138.623 118.633C137.824 118.63 137.027 118.69 136.238 118.812C134.125 119.158 132.759 119.986 132.481 121.086C132.203 122.186 133.031 123.557 134.736 124.855C139.183 127.859 144.55 129.194 149.886 128.624C152.006 128.284 153.371 127.456 153.643 126.35C153.921 125.25 153.099 123.878 151.394 122.581C149.21 121.046 146.749 119.95 144.146 119.356C142.341 118.895 140.486 118.652 138.623 118.633Z" fill="#0A6375"/>
<path d="M150.924 125.132L149.349 124.872C149.25 124.872 149.231 124.872 149.262 124.934C149.377 125.117 149.446 125.324 149.464 125.54C149.481 125.755 149.446 125.971 149.361 126.17C149.138 126.547 148.601 126.707 147.792 126.664C147.581 126.664 147.347 126.621 147.112 126.602L145.981 124.909C146.261 124.977 146.556 124.953 146.821 124.841C146.922 124.744 147.009 124.634 147.081 124.514L147.032 124.477L144.09 123.995C144.09 124.044 144.09 124.094 144.134 124.149C144.263 124.516 144.318 124.904 144.294 125.292C144.226 125.91 143.677 126.145 142.595 126.046C141.576 125.949 140.588 125.644 139.691 125.15C139.008 124.801 138.395 124.33 137.881 123.76C137.621 123.457 137.411 123.142 137.177 122.858L136.095 122.685L135.65 121.449L136.713 121.622C136.713 121.416 136.725 121.209 136.75 121.004C136.795 120.805 136.899 120.623 137.049 120.484C137.199 120.345 137.388 120.255 137.591 120.226C138.113 120.123 138.65 120.123 139.172 120.226L139.79 121.406C139.043 121.338 138.604 121.474 138.61 121.925L141.526 122.395C141.526 122.16 141.471 121.937 141.458 121.715C141.438 121.597 141.453 121.476 141.5 121.367C141.547 121.257 141.625 121.163 141.724 121.097C142.044 120.928 142.409 120.863 142.768 120.912C143.399 120.948 144.022 121.067 144.622 121.264C145.59 121.565 146.496 122.038 147.297 122.66C147.6 122.895 147.847 123.142 148.125 123.396L148.218 123.482L149.769 123.729L150.924 125.132ZM139.185 123.21C139.37 123.481 139.607 123.712 139.883 123.89C140.126 124.07 140.403 124.198 140.697 124.267C140.991 124.336 141.297 124.344 141.594 124.291C141.854 124.156 141.792 123.884 141.798 123.674L139.185 123.21ZM146.259 123.173C145.987 122.969 145.771 122.784 145.512 122.623C144.894 122.228 144.029 122.061 143.806 122.283C143.683 122.401 143.726 122.586 143.757 122.771L146.259 123.173Z" fill="white"/>
<path d="M105.394 128.357L108.773 130.427C110.973 131.91 115.57 128.944 119.018 123.809C122.465 118.675 123.497 113.306 121.291 111.823L117.918 109.753L105.394 128.357Z" fill="#33B28A"/>
<path d="M110.126 131.101C109.586 131.113 109.054 130.962 108.6 130.669L105.233 128.599C105.164 128.553 105.115 128.482 105.098 128.401C105.08 128.32 105.096 128.236 105.14 128.166L117.664 109.562C117.707 109.496 117.775 109.448 117.852 109.431C117.93 109.414 118.011 109.428 118.078 109.469L121.452 111.539C123.843 113.152 122.879 118.602 119.277 123.965C116.33 128.358 112.666 131.101 110.126 131.101ZM105.801 128.24L108.891 130.15C110.923 131.515 115.415 128.518 118.721 123.619C122.026 118.719 123.102 113.424 121.075 112.058L117.986 110.149L105.801 128.24Z" fill="#0A6375"/>
<path d="M115.643 121.712C119.101 116.573 120.118 111.206 117.916 109.724C115.713 108.242 111.124 111.206 107.667 116.344C104.209 121.482 103.191 126.849 105.393 128.331C107.596 129.814 112.185 126.85 115.643 121.712Z" fill="#33B28A"/>
<path d="M106.746 129.031C106.207 129.042 105.677 128.889 105.226 128.592C104.052 127.801 103.651 126.053 104.108 123.649C105.426 118.271 108.612 113.537 113.098 110.291C115.143 108.975 116.916 108.678 118.09 109.469C119.264 110.26 119.66 112.015 119.209 114.412C117.884 119.787 114.699 124.519 110.219 127.77C109.202 128.506 107.999 128.943 106.746 129.031ZM116.558 109.66C115.424 109.749 114.338 110.151 113.419 110.822C109.071 113.98 105.982 118.578 104.701 123.797C104.306 125.898 104.615 127.474 105.554 128.122C106.493 128.771 108.069 128.456 109.879 127.294C114.225 124.133 117.313 119.537 118.597 114.319C118.999 112.218 118.69 110.649 117.744 109.994C117.392 109.765 116.978 109.649 116.558 109.66Z" fill="#0A6375"/>
<path d="M115.669 112.133L114.89 113.529C114.841 113.616 114.847 113.64 114.89 113.634C115.108 113.58 115.336 113.583 115.553 113.643C115.769 113.702 115.966 113.816 116.126 113.974C116.404 114.308 116.367 114.864 116.052 115.611C115.965 115.809 115.86 116.013 115.762 116.229L113.784 116.711C113.944 116.472 114.022 116.189 114.007 115.902C113.947 115.774 113.873 115.653 113.784 115.543L113.735 115.581L112.283 118.182H112.437C112.827 118.184 113.211 118.266 113.568 118.423C114.112 118.688 114.149 119.319 113.698 120.276C113.248 121.199 112.618 122.023 111.844 122.698C111.282 123.224 110.629 123.643 109.916 123.934C109.546 124.076 109.194 124.175 108.829 124.292L108.298 125.244H106.994L107.513 124.305C107.315 124.235 107.123 124.15 106.938 124.052C106.767 123.942 106.632 123.783 106.554 123.595C106.475 123.407 106.457 123.2 106.5 123.001C106.577 122.475 106.757 121.968 107.031 121.512L108.347 121.333C108.032 122.013 108.007 122.476 108.44 122.618C108.918 121.761 109.395 120.902 109.873 120.042C109.645 119.986 109.422 119.937 109.212 119.875C109.09 119.856 108.977 119.801 108.887 119.717C108.797 119.634 108.734 119.525 108.705 119.405C108.654 119.046 108.719 118.68 108.891 118.361C109.136 117.783 109.458 117.24 109.848 116.748C110.461 115.942 111.215 115.253 112.073 114.716C112.4 114.512 112.691 114.363 113.043 114.184L113.16 114.129L113.926 112.757L115.669 112.133ZM109.855 122.513C110.172 122.43 110.47 122.285 110.732 122.087C110.984 121.921 111.2 121.704 111.364 121.451C111.529 121.198 111.64 120.914 111.69 120.616C111.653 120.326 111.381 120.289 111.152 120.202L109.855 122.513ZM112.233 115.846C111.949 116.038 111.702 116.18 111.461 116.365C110.88 116.816 110.429 117.57 110.559 117.854C110.627 118.009 110.819 118.027 111.004 118.064L112.233 115.846Z" fill="white"/>
<path d="M97.2314 140.227L97.4724 144.181C97.5218 146.838 102.582 148.889 108.773 148.778C114.964 148.667 119.944 146.418 119.895 143.761L119.654 139.807L97.2314 140.227Z" fill="#33B28A"/>
<path d="M108.26 149.094C102.082 149.094 97.2191 146.981 97.1388 144.188L96.904 140.246C96.9002 140.205 96.9055 140.164 96.9194 140.126C96.9332 140.087 96.9554 140.052 96.9844 140.023C97.0113 139.992 97.0444 139.966 97.0816 139.948C97.1188 139.93 97.1593 139.92 97.2006 139.918L119.648 139.48C119.726 139.478 119.802 139.506 119.86 139.559C119.917 139.612 119.952 139.686 119.957 139.764L120.198 143.718C120.198 145.145 119.018 146.48 116.799 147.481C114.251 148.529 111.522 149.066 108.767 149.063L108.26 149.094ZM97.559 140.53L97.7814 144.163C97.8308 146.634 102.86 148.581 108.767 148.488C111.441 148.487 114.088 147.96 116.558 146.937C118.511 146.06 119.648 144.904 119.598 143.768L119.376 140.122L97.559 140.53Z" fill="#0A6375"/>
<path d="M108.53 144.828C114.722 144.712 119.702 142.467 119.652 139.812C119.603 137.158 114.542 135.1 108.35 135.215C102.158 135.331 97.1779 137.577 97.2275 140.231C97.277 142.885 102.337 144.943 108.53 144.828Z" fill="#33B28A"/>
<path d="M108.026 145.139C101.81 145.139 96.9783 143.026 96.9041 140.233C96.83 137.44 101.847 135.031 108.329 134.907C111.08 134.805 113.825 135.24 116.41 136.186C118.665 137.107 119.92 138.392 119.944 139.807C119.975 141.216 118.764 142.55 116.546 143.551C113.998 144.599 111.269 145.137 108.514 145.133L108.026 145.139ZM108.86 135.519H108.359C102.453 135.63 97.4973 137.78 97.5405 140.221C97.5838 142.661 102.626 144.62 108.532 144.509C111.2 144.511 113.842 143.992 116.311 142.983C118.264 142.099 119.401 140.944 119.345 139.807C119.345 138.676 118.177 137.564 116.194 136.755C113.848 135.889 111.36 135.47 108.86 135.519Z" fill="#0A6375"/>
<path d="M116.404 139.35L114.816 139.504C114.711 139.504 114.699 139.535 114.742 139.585C114.907 139.732 115.033 139.918 115.108 140.126C115.182 140.335 115.203 140.559 115.168 140.777C115.051 141.197 114.55 141.488 113.784 141.661C113.574 141.704 113.345 141.735 113.111 141.778L111.578 140.437C111.865 140.427 112.142 140.328 112.369 140.153C112.443 140.031 112.501 139.901 112.542 139.764H112.48L109.515 140.06L109.595 140.196C109.817 140.516 109.97 140.878 110.046 141.259C110.139 141.877 109.644 142.248 108.6 142.427C107.592 142.594 106.56 142.557 105.566 142.316C104.815 142.153 104.099 141.855 103.453 141.438C103.126 141.216 102.835 140.987 102.545 140.752L101.451 140.864L100.71 139.795L101.779 139.684C101.723 139.48 101.68 139.274 101.649 139.066C101.643 138.861 101.698 138.658 101.808 138.485C101.918 138.312 102.078 138.176 102.267 138.096C102.743 137.858 103.262 137.717 103.793 137.682L104.695 138.658C103.96 138.788 103.565 139.035 103.694 139.467L106.623 139.165C106.543 138.948 106.456 138.732 106.382 138.547C106.332 138.435 106.314 138.312 106.33 138.191C106.347 138.069 106.397 137.955 106.475 137.861C106.742 137.616 107.079 137.458 107.439 137.41C108.048 137.283 108.671 137.237 109.292 137.274C110.306 137.315 111.304 137.536 112.239 137.929C112.598 138.077 112.894 138.25 113.228 138.423L113.345 138.485L114.902 138.324L116.404 139.35ZM104.559 140.542C104.812 140.75 105.101 140.909 105.412 141.012C105.693 141.123 105.993 141.176 106.295 141.166C106.597 141.157 106.894 141.085 107.167 140.956C107.383 140.759 107.259 140.512 107.167 140.277L104.559 140.542ZM111.356 138.689C111.041 138.565 110.781 138.442 110.485 138.349C109.786 138.133 108.909 138.195 108.755 138.466C108.668 138.615 108.755 138.781 108.835 138.948L111.356 138.689Z" fill="white"/>
<path d="M128.595 56.9381L131.19 59.9101C132.839 61.9738 138.079 60.528 142.892 56.6663C147.705 52.8046 150.263 48.0161 148.614 45.9524L146.025 42.9805L128.595 56.9381Z" fill="#33B28A"/>
<path d="M133.636 61.1646C133.136 61.2038 132.634 61.1291 132.168 60.9461C131.701 60.7631 131.282 60.4765 130.942 60.108L128.359 57.1423C128.332 57.111 128.312 57.0747 128.299 57.0354C128.287 56.9962 128.282 56.9548 128.285 56.9136C128.295 56.829 128.337 56.7515 128.403 56.6974L145.827 42.7397C145.889 42.6904 145.969 42.6673 146.049 42.6754C146.128 42.6835 146.201 42.722 146.253 42.783L148.848 45.7549C149.732 46.8609 149.589 48.6465 148.446 50.7844C147.075 53.1555 145.253 55.2356 143.083 56.9075C139.673 59.6384 136.12 61.1646 133.636 61.1646ZM129.039 56.9816L131.418 59.7064C132.944 61.6094 138.103 60.1018 142.694 56.4255C144.8 54.8065 146.569 52.7916 147.903 50.494C148.904 48.6404 149.077 47.0277 148.372 46.1689L145.981 43.4255L129.039 56.9816Z" fill="#0A6375"/>
<path d="M140.3 53.6963C145.113 49.8417 147.676 45.0458 146.025 42.9842C144.374 40.9227 139.134 42.3762 134.321 46.2307C129.508 50.0852 126.945 54.8812 128.596 56.9427C130.247 59.0043 135.487 57.5508 140.3 53.6963Z" fill="#33B28A"/>
<path d="M131.041 58.1924C130.543 58.2312 130.041 58.1562 129.576 57.9732C129.11 57.7902 128.692 57.5039 128.354 57.1359C126.568 54.9054 129.107 50.0057 134.124 46.0142C136.228 44.252 138.657 42.9191 141.273 42.0908C143.615 41.442 145.382 41.6891 146.266 42.7889C148.045 45.0195 145.512 49.913 140.495 53.9106C137.084 56.6848 133.531 58.1924 131.041 58.1924ZM143.578 42.3564C142.854 42.3711 142.135 42.4812 141.44 42.6839C138.906 43.4814 136.553 44.7682 134.514 46.4715C129.917 50.1787 127.322 54.8559 128.835 56.7466C130.349 58.6373 135.515 57.1297 140.105 53.4534C144.696 49.7771 147.297 45.0689 145.784 43.1782C145.501 42.8851 145.156 42.6591 144.774 42.5168C144.392 42.3746 143.984 42.3198 143.578 42.3564Z" fill="#0A6375"/>
<path d="M143.176 44.5928L142.021 45.6864C141.947 45.7544 141.947 45.7791 142.021 45.7914C142.242 45.8062 142.455 45.8769 142.641 45.9968C142.827 46.1168 142.979 46.2822 143.084 46.4773C143.244 46.8789 143.047 47.3917 142.528 48.0096L142.07 48.5101L140.05 48.3865C140.291 48.127 140.495 47.8798 140.495 47.6821C140.482 47.542 140.449 47.4046 140.396 47.2743H140.34L138.184 49.3318L138.326 49.3936C138.695 49.5089 139.036 49.7004 139.327 49.9559C139.766 50.3699 139.611 50.9754 138.901 51.7539C138.206 52.5021 137.365 53.0994 136.429 53.5086C135.742 53.848 134.999 54.0575 134.236 54.1265C133.84 54.1265 133.482 54.1265 133.099 54.1265L132.308 54.8741L131.072 54.4787L131.851 53.7434C131.685 53.6186 131.528 53.4823 131.381 53.3356C131.249 53.1811 131.168 52.9898 131.148 52.7877C131.128 52.5856 131.171 52.3822 131.27 52.2049C131.505 51.7359 131.828 51.3164 132.222 50.9692L133.525 51.1978C133.025 51.7477 132.864 52.1802 133.229 52.4335L135.354 50.4069C135.163 50.2895 134.959 50.1783 134.779 50.0547C134.665 49.9996 134.571 49.9108 134.509 49.8003C134.447 49.6898 134.421 49.5629 134.433 49.4369C134.498 49.0817 134.668 48.7542 134.922 48.4977C135.329 48.0269 135.796 47.6115 136.312 47.262C137.134 46.6783 138.055 46.2472 139.03 45.9892C139.401 45.8903 139.747 45.847 140.112 45.7791H140.241L141.372 44.704L143.176 44.5928ZM134.563 52.7301C134.889 52.7449 135.214 52.6967 135.521 52.588C136.139 52.3779 136.806 51.8342 136.868 51.4758C136.93 51.1175 136.67 51.0742 136.479 50.9198L134.563 52.7301ZM138.802 47.1075C138.481 47.2002 138.184 47.262 137.912 47.367C137.226 47.6203 136.577 48.2011 136.615 48.5101C136.615 48.6769 136.812 48.7572 136.973 48.8437L138.802 47.1075Z" fill="white"/>
<path d="M106.054 38.6924L103.299 41.5099C101.377 43.3264 103.249 48.43 107.475 52.9157C111.702 57.4015 116.688 59.5764 118.597 57.766L121.353 54.9424L106.054 38.6924Z" fill="#33B28A"/>
<path d="M116.775 58.7113C115.747 58.6727 114.739 58.4268 113.809 57.9884C111.34 56.8094 109.126 55.1597 107.29 53.1319C102.879 48.4485 101.056 43.246 103.132 41.2874L105.882 38.4761C105.909 38.4445 105.943 38.4198 105.982 38.4037C106.02 38.3877 106.062 38.3807 106.104 38.3834C106.188 38.3859 106.268 38.4214 106.326 38.4822L121.631 54.7322C121.686 54.7897 121.716 54.866 121.716 54.9454C121.716 55.0247 121.686 55.1011 121.631 55.1585L118.875 57.9822C118.297 58.4908 117.543 58.7525 116.775 58.7113ZM106.055 39.1372L103.521 41.726C101.748 43.4005 103.663 48.4238 107.698 52.7056C109.495 54.6844 111.666 56.2868 114.087 57.4199C116.039 58.2726 117.633 58.3158 118.455 57.5435L120.995 54.9423L106.055 39.1372Z" fill="#0A6375"/>
<path d="M121.39 54.9524C123.313 53.1417 121.445 48.0347 117.218 43.5456C112.99 39.0566 108.004 36.8853 106.082 38.696C104.159 40.5067 106.027 45.6137 110.254 50.1028C114.482 54.5919 119.467 56.7631 121.39 54.9524Z" fill="#33B28A"/>
<path d="M119.524 55.8933C117.016 55.8933 113.346 53.8173 110.028 50.3325C105.616 45.6491 103.793 40.4466 105.869 38.4941C106.895 37.5241 108.687 37.5241 110.911 38.4941C113.384 39.6718 115.602 41.3215 117.442 43.3506C119.357 45.3032 120.87 47.6122 121.897 50.1472C122.731 52.4209 122.626 54.2066 121.6 55.1766C121.027 55.6752 120.283 55.9321 119.524 55.8933ZM107.939 38.3644C107.341 38.3301 106.753 38.527 106.296 38.9143C104.529 40.5764 106.444 45.5996 110.479 49.8877C114.513 54.1757 119.413 56.3815 121.18 54.7194C122.002 53.9471 122.051 52.353 121.322 50.3511C120.324 47.8908 118.855 45.6492 116.997 43.7522C115.218 41.7811 113.068 40.1792 110.67 39.0379C109.815 38.6303 108.886 38.4011 107.939 38.3644Z" fill="#0A6375"/>
<path d="M119.555 52.2363L118.375 51.1736C118.301 51.0994 118.276 51.1056 118.27 51.1736C118.269 51.3961 118.213 51.6148 118.104 51.8093C117.996 52.0038 117.841 52.1677 117.652 52.2857C117.269 52.4773 116.732 52.3228 116.077 51.8532C115.904 51.7235 115.731 51.5814 115.545 51.4331L115.502 49.4126C115.702 49.6168 115.962 49.753 116.243 49.8019C116.383 49.7772 116.519 49.7314 116.645 49.666V49.6104L114.445 47.627C114.424 47.6748 114.408 47.7244 114.396 47.7753C114.308 48.1524 114.144 48.5077 113.914 48.8195C113.537 49.2891 112.919 49.184 112.06 48.5353C111.261 47.9032 110.599 47.1148 110.114 46.2183C109.731 45.5582 109.471 44.8337 109.348 44.0804C109.292 43.6912 109.274 43.3266 109.243 42.9497L108.434 42.2206L108.724 40.954L109.521 41.6646C109.651 41.4916 109.756 41.3062 109.886 41.1641C110.03 41.0217 110.214 40.9266 110.414 40.8913C110.614 40.856 110.819 40.8821 111.004 40.9664C111.499 41.1594 111.953 41.4469 112.339 41.8128L112.233 43.1289C111.647 42.6779 111.195 42.5481 110.961 42.9374L113.148 44.896C113.253 44.6921 113.352 44.482 113.457 44.2781C113.502 44.1642 113.581 44.0663 113.682 43.9969C113.783 43.9276 113.903 43.89 114.025 43.8889C114.385 43.9204 114.726 44.0629 115.002 44.2967C115.505 44.6664 115.96 45.0982 116.355 45.5818C116.998 46.3574 117.5 47.24 117.838 48.1893C117.967 48.5538 118.035 48.8936 118.134 49.252C118.134 49.2891 118.134 49.3323 118.134 49.3817L119.302 50.4198L119.555 52.2363ZM110.757 44.3276C110.769 44.6535 110.842 44.9743 110.973 45.2729C111.233 45.8908 111.826 46.5087 112.209 46.5087C112.592 46.5087 112.598 46.28 112.734 46.0761L110.757 44.3276ZM116.701 48.1028C116.583 47.7876 116.497 47.4849 116.367 47.2377C116.064 46.5766 115.428 45.9711 115.131 46.0391C114.964 46.07 114.903 46.2491 114.829 46.4222L116.701 48.1028Z" fill="white"/>
<path d="M140.655 155.5C138.456 159.164 140.921 167.283 140.921 167.283L144.183 169.656C146.528 171.065 149.336 171.485 151.99 170.824C154.644 170.163 156.926 168.475 158.336 166.131C159.745 163.787 160.165 160.979 159.504 158.324C158.843 155.67 157.155 153.388 154.811 151.978L151.184 150.205C151.184 150.205 142.861 151.836 140.655 155.5Z" fill="#33B28A"/>
<path d="M149.484 171.435C147.562 171.437 145.675 170.913 144.029 169.921L140.742 167.536C140.688 167.496 140.649 167.44 140.63 167.376C140.525 167.036 138.159 159.078 140.396 155.339C142.645 151.632 150.788 149.97 151.134 149.902C151.197 149.884 151.263 149.884 151.326 149.902L154.953 151.675C156.948 152.869 158.496 154.685 159.359 156.844C160.223 159.002 160.354 161.385 159.734 163.625C159.113 165.866 157.774 167.841 155.923 169.247C154.071 170.653 151.809 171.413 149.484 171.41V171.435ZM141.193 167.11L144.368 169.415C146.643 170.753 149.354 171.139 151.911 170.488C154.469 169.836 156.665 168.201 158.022 165.938C159.379 163.674 159.787 160.966 159.156 158.404C158.526 155.841 156.908 153.632 154.656 152.256L151.159 150.532C150.214 150.73 142.91 152.386 140.933 155.661C138.95 158.948 140.927 166.171 141.193 167.098V167.11Z" fill="#0A6375"/>
<path d="M147.254 169.78C152.949 169.78 157.566 165.163 157.566 159.468C157.566 153.772 152.949 149.155 147.254 149.155C141.559 149.155 136.942 153.772 136.942 159.468C136.942 165.163 141.559 169.78 147.254 169.78Z" fill="#33B28A"/>
<path d="M147.242 170.088C145.318 170.09 143.431 169.565 141.786 168.568C140.59 167.849 139.548 166.902 138.718 165.781C137.889 164.66 137.288 163.386 136.951 162.033C136.613 160.679 136.546 159.272 136.752 157.893C136.958 156.513 137.434 155.188 138.153 153.992C138.871 152.797 139.818 151.754 140.94 150.925C142.061 150.095 143.335 149.495 144.688 149.157C146.042 148.82 147.448 148.752 148.828 148.959C150.207 149.165 151.533 149.641 152.728 150.359C154.722 151.555 156.267 153.372 157.129 155.532C157.99 157.691 158.119 160.073 157.496 162.313C156.873 164.552 155.533 166.526 153.681 167.93C151.828 169.335 149.566 170.093 147.242 170.088ZM147.273 149.463C144.854 149.462 142.517 150.337 140.695 151.926C138.872 153.515 137.688 155.711 137.36 158.107C137.033 160.503 137.585 162.937 138.915 164.957C140.244 166.977 142.261 168.446 144.591 169.093C146.921 169.74 149.407 169.521 151.587 168.475C153.768 167.43 155.496 165.629 156.45 163.408C157.405 161.186 157.522 158.693 156.78 156.392C156.038 154.09 154.486 152.136 152.413 150.891C150.86 149.958 149.084 149.465 147.273 149.463Z" fill="#0A6375"/>
<path d="M141.471 154.747C141.903 155.001 142.33 155.26 142.756 155.52C142.842 155.569 142.886 155.563 142.947 155.489C143.453 154.929 144.09 154.504 144.801 154.253C145.544 153.991 146.357 154.008 147.087 154.302C147.285 154.383 147.483 154.475 147.705 154.568L146.513 156.558C146.208 156.383 145.854 156.314 145.505 156.36C145.24 156.43 144.978 156.515 144.721 156.613V156.669L147.192 158.158L147.378 157.973C147.805 157.505 148.286 157.09 148.811 156.737C149.199 156.459 149.655 156.292 150.13 156.253C150.606 156.213 151.083 156.304 151.511 156.514C152.343 156.854 153.009 157.506 153.365 158.331C153.658 159.004 153.732 159.752 153.575 160.469C153.482 160.907 153.334 161.346 153.204 161.803L154.174 162.384L153.074 164.238L152.08 163.62C151.758 163.929 151.462 164.238 151.147 164.51C150.533 165.047 149.756 165.363 148.941 165.405C148.24 165.423 147.55 165.231 146.957 164.856L148.138 162.897C148.485 163.088 148.885 163.16 149.277 163.101C149.669 163.041 150.031 162.855 150.306 162.569L147.643 160.975C147.316 161.278 147.025 161.593 146.655 161.89C146.266 162.265 145.791 162.539 145.271 162.687C144.733 162.82 144.168 162.783 143.652 162.582C143.014 162.353 142.451 161.956 142.021 161.433C141.714 161.053 141.495 160.61 141.379 160.136C141.264 159.661 141.255 159.167 141.353 158.689C141.443 158.302 141.554 157.921 141.687 157.546C141.687 157.503 141.687 157.466 141.736 157.41L140.402 156.607L141.471 154.747ZM151.406 160.716C151.548 160.389 151.595 160.03 151.542 159.678C151.487 159.381 151.325 159.115 151.087 158.93C150.849 158.744 150.552 158.652 150.251 158.671C149.822 158.79 149.434 159.023 149.126 159.344L151.406 160.716ZM143.374 158.405C143.33 158.708 143.309 159.014 143.312 159.319C143.326 159.485 143.375 159.646 143.458 159.79C143.54 159.934 143.652 160.059 143.788 160.156C143.923 160.252 144.078 160.318 144.241 160.349C144.404 160.379 144.572 160.374 144.733 160.333C145.061 160.191 145.354 159.98 145.592 159.715L143.374 158.405Z" fill="white"/>
<path d="M104.498 153.393C100.308 152.541 93.4686 157.564 93.4686 157.564L92.3194 161.426C92.0472 162.752 92.0389 164.12 92.2951 165.449C92.5513 166.779 93.0669 168.046 93.8124 169.176C94.558 170.307 95.519 171.279 96.6405 172.039C97.7619 172.798 99.022 173.329 100.349 173.601C103.028 174.151 105.816 173.613 108.099 172.108C110.382 170.602 111.974 168.251 112.524 165.572L112.993 161.568C112.993 161.568 108.681 154.252 104.498 153.393Z" fill="#33B28A"/>
<path d="M102.446 174.123C100.868 174.126 99.3097 173.777 97.8833 173.103C96.4569 172.428 95.1987 171.444 94.2 170.222C93.2013 169 92.4872 167.572 92.1096 166.039C91.732 164.507 91.7003 162.91 92.0168 161.364L93.1722 157.478C93.1907 157.412 93.2324 157.355 93.2896 157.317C93.5738 157.107 100.29 152.22 104.56 153.091C108.829 153.969 113.08 161.124 113.259 161.408C113.289 161.467 113.302 161.533 113.296 161.599L112.833 165.609C112.348 168.008 111.05 170.166 109.157 171.718C107.265 173.269 104.894 174.119 102.446 174.123ZM93.7344 157.75L92.6161 161.519C92.0868 164.12 92.6126 166.826 94.0778 169.039C95.543 171.253 97.8276 172.794 100.429 173.323C103.03 173.853 105.736 173.327 107.949 171.862C110.163 170.396 111.704 168.112 112.233 165.51L112.684 161.636C112.184 160.808 108.205 154.469 104.448 153.697C100.679 152.931 94.5253 157.194 93.7344 157.75Z" fill="#0A6375"/>
<path d="M102.947 171.245C108.642 171.245 113.259 166.628 113.259 160.932C113.259 155.237 108.642 150.62 102.947 150.62C97.2512 150.62 92.6343 155.237 92.6343 160.932C92.6343 166.628 97.2512 171.245 102.947 171.245Z" fill="#33B28A"/>
<path d="M102.965 171.559C101.466 171.582 99.98 171.287 98.6034 170.694C97.2267 170.102 95.9909 169.225 94.9772 168.121C93.9635 167.017 93.1948 165.711 92.7215 164.289C92.2482 162.867 92.0811 161.361 92.2311 159.869C92.3811 158.378 92.8448 156.935 93.5919 155.636C94.3389 154.337 95.3523 153.21 96.5656 152.33C97.7789 151.45 99.1645 150.837 100.632 150.53C102.099 150.224 103.614 150.231 105.078 150.552C107.838 151.118 110.26 152.758 111.812 155.11C113.363 157.462 113.917 160.334 113.351 163.094C112.852 165.482 111.548 167.625 109.657 169.166C107.766 170.707 105.404 171.551 102.965 171.559ZM102.922 150.929C101.032 150.935 99.182 151.477 97.5872 152.491C95.9923 153.506 94.7176 154.952 93.9105 156.661C93.1035 158.37 92.7973 160.273 93.0273 162.149C93.2573 164.025 94.0142 165.798 95.2102 167.261C96.4063 168.725 97.9925 169.82 99.7852 170.419C101.578 171.018 103.504 171.097 105.339 170.647C107.175 170.197 108.846 169.236 110.158 167.875C111.47 166.514 112.369 164.809 112.752 162.958L113.055 163.02L112.752 162.958C113.283 160.359 112.761 157.655 111.3 155.44C109.839 153.225 107.559 151.68 104.961 151.145C104.292 151.006 103.611 150.933 102.928 150.929H102.922Z" fill="#0A6375"/>
<path d="M105.48 153.906C105.381 154.4 105.282 154.888 105.177 155.376C105.177 155.475 105.177 155.512 105.264 155.549C105.958 155.832 106.57 156.284 107.043 156.865C107.538 157.479 107.791 158.253 107.754 159.04C107.754 159.25 107.723 159.466 107.704 159.695L105.437 159.25C105.504 158.907 105.452 158.552 105.288 158.243C105.137 158.012 104.969 157.791 104.788 157.582H104.745L104.164 160.418L104.399 160.523C104.989 160.771 105.549 161.086 106.067 161.462C106.457 161.735 106.766 162.11 106.96 162.545C107.153 162.981 107.225 163.461 107.167 163.934C107.122 164.829 106.729 165.671 106.073 166.281C105.536 166.781 104.855 167.099 104.127 167.19C103.676 167.245 103.219 167.251 102.743 167.282L102.52 168.388L100.426 167.956L100.661 166.819C100.265 166.621 99.8758 166.448 99.5113 166.238C98.7999 165.84 98.2445 165.213 97.9357 164.459C97.6852 163.802 97.6358 163.086 97.7936 162.401L100.03 162.865C99.9668 163.256 100.033 163.658 100.22 164.008C100.406 164.359 100.702 164.638 101.062 164.805C101.272 163.779 101.476 162.772 101.68 161.759C101.278 161.555 100.877 161.351 100.481 161.141C99.9902 160.899 99.5658 160.541 99.2456 160.097C98.939 159.637 98.7875 159.091 98.8131 158.54C98.8133 157.862 98.9992 157.197 99.3507 156.618C99.6067 156.202 99.9517 155.848 100.361 155.581C100.77 155.313 101.233 155.14 101.717 155.073C102.111 155.028 102.507 155.007 102.903 155.011H103.046L103.361 153.485L105.48 153.906ZM103.157 165.262C103.51 165.289 103.864 165.214 104.176 165.046C104.438 164.895 104.636 164.653 104.732 164.366C104.827 164.079 104.814 163.767 104.695 163.489C104.442 163.124 104.094 162.835 103.688 162.655L103.157 165.262ZM102.675 156.945C102.373 157.006 102.075 157.089 101.785 157.193C101.634 157.261 101.5 157.361 101.391 157.486C101.283 157.612 101.203 157.759 101.157 157.918C101.111 158.078 101.1 158.245 101.126 158.409C101.151 158.573 101.211 158.729 101.303 158.867C101.542 159.13 101.832 159.34 102.156 159.485L102.675 156.945Z" fill="white"/>
<path d="M134.878 77.2973C133.803 74.3192 131.869 70.1177 129.175 68.6472C124.85 66.3302 115.631 69.6358 115.631 69.6358L113.098 73.5283C112.484 74.6872 112.066 75.94 111.862 77.2356L134.878 77.2973Z" fill="#33B28A"/>
<path d="M134.878 77.6057H111.85C111.806 77.6065 111.762 77.5975 111.721 77.5794C111.681 77.5612 111.645 77.5343 111.616 77.5007C111.586 77.4665 111.564 77.4259 111.552 77.3819C111.54 77.338 111.539 77.292 111.548 77.2473C111.764 75.9042 112.204 74.6071 112.851 73.4104L115.397 69.4993C115.435 69.4437 115.489 69.4007 115.551 69.3757C115.935 69.2398 124.937 66.0454 129.342 68.4056C132.079 69.8638 134.038 73.9665 135.194 77.1917C135.21 77.2384 135.216 77.2884 135.209 77.3376C135.203 77.3867 135.184 77.4336 135.156 77.4742C135.127 77.5148 135.09 77.5479 135.046 77.5708C135.002 77.5937 134.953 77.6057 134.903 77.6057H134.878ZM112.215 76.9878H134.458C133.328 73.9541 131.505 70.2592 129.052 68.9555C125.116 66.8548 116.849 69.5734 115.86 69.9318L113.389 73.7317C112.841 74.7522 112.451 75.8502 112.234 76.9878H112.215Z" fill="#0A6375"/>
<path d="M136.843 77.2969C136.961 75.6695 136.742 74.0354 136.2 72.4964C135.658 70.9574 134.804 69.5466 133.693 68.352C132.582 67.1574 131.236 66.2046 129.74 65.5531C128.244 64.9017 126.63 64.5654 124.998 64.5654C123.367 64.5654 121.753 64.9017 120.257 65.5531C118.761 66.2046 117.415 67.1574 116.304 68.352C115.193 69.5466 114.339 70.9574 113.797 72.4964C113.255 74.0354 113.036 75.6695 113.154 77.2969H136.843Z" fill="#33B28A"/>
<path d="M136.843 77.6062H113.154C113.076 77.6065 113.001 77.5773 112.944 77.5246C112.886 77.472 112.851 77.3996 112.845 77.322C112.726 75.6531 112.952 73.9776 113.509 72.3998C114.065 70.8221 114.941 69.3759 116.081 68.1515C117.222 66.927 118.602 65.9505 120.136 65.2828C121.67 64.6151 123.325 64.2705 124.998 64.2705C126.671 64.2705 128.327 64.6151 129.861 65.2828C131.395 65.9505 132.775 66.927 133.915 68.1515C135.056 69.3759 135.931 70.8221 136.488 72.3998C137.045 73.9776 137.271 75.6531 137.152 77.322C137.146 77.3996 137.11 77.472 137.053 77.5246C136.996 77.5773 136.921 77.6065 136.843 77.6062ZM113.444 76.9884H136.553C136.625 75.4261 136.379 73.8654 135.831 72.4006C135.283 70.9358 134.444 69.5974 133.364 68.4663C132.284 67.3352 130.986 66.4348 129.548 65.8196C128.11 65.2045 126.562 64.8873 124.998 64.8873C123.434 64.8873 121.887 65.2045 120.449 65.8196C119.011 66.4348 117.713 67.3352 116.633 68.4663C115.553 69.5974 114.713 70.9358 114.165 72.4006C113.617 73.8654 113.372 75.4261 113.444 76.9884Z" fill="#0A6375"/>
<path d="M122.205 75.9072C122.57 76.2779 122.947 76.6301 123.324 76.9947L123.157 77.2974H127.569C127.297 77.0255 127.019 76.766 126.722 76.5189L126.5 76.3212L128.069 73.3678H128.131C128.26 73.6572 128.372 73.9543 128.464 74.2575C128.542 74.6524 128.483 75.0619 128.298 75.4191L130.658 76.6548C130.751 76.4139 130.849 76.1852 130.924 75.9505C131.227 75.0944 131.201 74.156 130.849 73.3183C130.52 72.5213 129.995 71.8201 129.323 71.2794C129.237 71.2052 129.224 71.1558 129.274 71.0631C129.552 70.5565 129.824 70.0436 130.096 69.537L127.921 68.4248L127.062 69.988L126.907 69.9448C126.469 69.8117 126.023 69.7023 125.573 69.6173C125.016 69.5349 124.448 69.5757 123.909 69.7369C123.37 69.8981 122.873 70.1758 122.453 70.5503C121.868 71.072 121.44 71.7458 121.217 72.4966C121.01 73.0956 121 73.7446 121.186 74.3502C121.391 74.9459 121.741 75.4811 122.205 75.9072ZM124.936 71.9837C125.29 71.9594 125.645 71.9594 125.999 71.9837C125.511 72.892 125.054 73.7447 124.597 74.6097C124.284 74.3493 124.031 74.0248 123.855 73.6582C123.802 73.4767 123.788 73.2858 123.815 73.0986C123.842 72.9114 123.91 72.7322 124.012 72.5733C124.115 72.4144 124.251 72.2795 124.41 72.1777C124.57 72.076 124.749 72.0098 124.936 71.9837Z" fill="white"/>
<path d="M140.371 77.6062H109.329C109.248 77.6062 109.169 77.5736 109.111 77.5157C109.053 77.4577 109.021 77.3792 109.021 77.2972C109.021 77.2153 109.053 77.1367 109.111 77.0788C109.169 77.0208 109.248 76.9883 109.329 76.9883H140.371C140.453 76.9883 140.532 77.0208 140.59 77.0788C140.648 77.1367 140.68 77.2153 140.68 77.2972C140.68 77.3792 140.648 77.4577 140.59 77.5157C140.532 77.5736 140.453 77.6062 140.371 77.6062Z" fill="#0A6375"/>
<g clip-path="url(#clip0_7362_28464)">
<path fill-rule="evenodd" clip-rule="evenodd" d="M194.862 70.469C194.713 70.1425 194.579 69.8161 194.46 69.4855C194.282 68.9897 194.171 68.4717 194.02 67.9686C193.956 67.7552 193.78 67.2012 193.769 67.1178C193.675 66.3895 194.213 66.1299 194.374 66.0662C194.451 66.0331 195.251 65.7201 195.674 66.5868C196.192 67.6463 196.563 68.7532 196.782 69.8765C197.213 70.7656 197.771 71.6166 198.404 72.3528C200.924 75.2806 204.097 74.7806 207.431 73.8543C207.943 73.7088 208.478 73.9978 208.642 74.5016C208.806 75.0092 208.543 75.5574 208.044 75.7406C206.224 76.4218 203.311 78.8083 202.583 80.6752C202.43 81.066 202.502 81.891 202.524 82.7126C202.554 83.8534 202.532 84.9958 202.308 85.5334C202.276 85.6164 201.839 86.491 201.68 86.6447C201.297 87.0109 200.9 86.9649 200.661 86.889C200.422 86.813 200.122 86.6175 199.916 86.2157C199.7 85.7959 199.536 84.8597 199.469 84.6678C199.224 83.9717 198.708 82.6152 198.097 81.4942C197.767 80.8907 197.441 80.3399 197.086 80.118C195.771 79.2966 194.182 79.8955 192.855 80.4445C192.703 80.506 192.551 80.5714 192.398 80.6328C191.883 80.948 191.322 81.2302 190.713 81.4715C189.794 81.8371 189.405 81.0068 189.381 80.9514C189.329 80.8294 189.088 80.1939 189.733 79.741C189.804 79.6932 190.346 79.4122 190.554 79.3029C190.844 79.151 191.142 79.0135 191.442 78.8796C194.411 77.0053 195.412 73.7064 194.862 70.469ZM196.909 73.6635C198.809 75.8639 200.992 76.5885 203.339 76.5524L203.339 76.5525C202.158 77.6389 201.15 78.8726 200.73 79.9528C200.57 80.362 200.524 81.1115 200.523 81.9394C200.218 81.2511 199.861 80.5273 199.485 79.928C199.057 79.244 198.583 78.7079 198.141 78.4312C197.288 77.8981 196.349 77.7253 195.402 77.7692C196.219 76.5332 196.714 75.1323 196.909 73.6635Z" fill="#5FA8EE"/>
</g>
<g clip-path="url(#clip1_7362_28464)">
<path fill-rule="evenodd" clip-rule="evenodd" d="M170.795 24.8336C170.721 24.6715 170.655 24.5095 170.596 24.3453C170.507 24.0992 170.452 23.842 170.377 23.5922C170.345 23.4862 170.258 23.2112 170.252 23.1697C170.206 22.8081 170.473 22.6792 170.553 22.6476C170.591 22.6312 170.988 22.4758 171.198 22.9061C171.455 23.4321 171.64 23.9817 171.748 24.5394C171.962 24.9809 172.24 25.4034 172.554 25.7689C173.805 27.2226 175.38 26.9743 177.036 26.5144C177.29 26.4422 177.555 26.5857 177.637 26.8358C177.719 27.0878 177.588 27.36 177.34 27.451C176.436 27.7892 174.99 28.9741 174.628 29.901C174.553 30.095 174.588 30.5046 174.6 30.9126C174.614 31.479 174.603 32.0462 174.492 32.3131C174.476 32.3543 174.259 32.7885 174.18 32.8649C173.99 33.0467 173.793 33.0239 173.674 32.9861C173.556 32.9484 173.407 32.8513 173.304 32.6519C173.197 32.4434 173.116 31.9786 173.082 31.8833C172.961 31.5377 172.705 30.8642 172.401 30.3076C172.238 30.008 172.076 29.7345 171.899 29.6243C171.247 29.2166 170.458 29.5139 169.799 29.7865C169.723 29.817 169.648 29.8495 169.572 29.88C169.316 30.0365 169.037 30.1766 168.735 30.2964C168.279 30.4779 168.086 30.0656 168.074 30.0381C168.048 29.9775 167.929 29.662 168.249 29.4372C168.284 29.4135 168.553 29.2739 168.656 29.2197C168.8 29.1442 168.948 29.076 169.097 29.0095C170.571 28.0789 171.068 26.441 170.795 24.8336ZM171.812 26.4197C172.755 27.5122 173.839 27.8719 175.004 27.8541L175.004 27.8541C174.418 28.3935 173.917 29.006 173.709 29.5423C173.629 29.7455 173.606 30.1176 173.606 30.5287C173.454 30.1869 173.277 29.8276 173.091 29.53C172.878 29.1904 172.643 28.9243 172.423 28.7868C171.999 28.5222 171.534 28.4364 171.063 28.4582C171.469 27.8445 171.715 27.149 171.812 26.4197Z" fill="#AB92F0"/>
</g>
<g clip-path="url(#clip2_7362_28464)">
<path fill-rule="evenodd" clip-rule="evenodd" d="M59.7116 58.8349C59.6042 58.7229 59.5031 58.6087 59.4076 58.4907C59.2643 58.3137 59.1454 58.118 59.0122 57.9341C58.9556 57.8562 58.8049 57.6551 58.7884 57.6226C58.6463 57.3388 58.8292 57.1562 58.8858 57.1073C58.9126 57.0828 59.1944 56.8412 59.4904 57.1347C59.8525 57.4935 60.1617 57.8924 60.4107 58.3198C60.7133 58.6213 61.0623 58.8892 61.4256 59.0995C62.8708 59.9359 64.0945 59.2802 65.3235 58.4275C65.5118 58.2953 65.7713 58.3371 65.9098 58.5194C66.0494 58.7031 66.0199 58.9644 65.8422 59.1102C65.1963 59.6473 64.347 61.0361 64.3155 61.9017C64.309 62.0828 64.4557 62.4094 64.5818 62.7415C64.7563 63.2029 64.9099 63.6723 64.8952 63.9236C64.8935 63.9621 64.8399 64.3812 64.7969 64.4666C64.6928 64.6705 64.5241 64.7083 64.4157 64.7114C64.3073 64.7144 64.1571 64.6773 64.0157 64.5427C63.8678 64.402 63.6678 64.0432 63.6129 63.9745C63.4138 63.7252 63.0102 63.245 62.6012 62.8745C62.3809 62.675 62.1693 62.4966 61.9927 62.4566C61.3393 62.3085 60.7758 62.7792 60.3124 63.1921C60.2588 63.2389 60.2062 63.2872 60.1528 63.334C59.9872 63.536 59.7983 63.7311 59.5842 63.9162C59.2613 64.1962 58.984 63.9127 58.9664 63.8936C58.928 63.8511 58.7393 63.626 58.9381 63.3493C58.9601 63.3198 59.1412 63.128 59.2106 63.0537C59.3075 62.9504 59.4096 62.8519 59.513 62.7545C60.4578 61.5669 60.3969 60.0779 59.7116 58.8349ZM61.0019 59.8473C62.0905 60.475 63.0845 60.4601 64.0375 60.1113L64.0373 60.1113C63.7101 60.7228 63.4742 61.3698 63.4565 61.8705C63.4496 62.0603 63.5374 62.3727 63.6549 62.7108C63.4324 62.4733 63.1837 62.2287 62.9449 62.0376C62.6728 61.8193 62.4032 61.668 62.1833 61.6179C61.759 61.5219 61.3515 61.5849 60.9711 61.7376C61.1286 61.1169 61.1313 60.4746 61.0019 59.8473Z" fill="#009F6D"/>
</g>
<g clip-path="url(#clip3_7362_28464)">
<path fill-rule="evenodd" clip-rule="evenodd" d="M24.9101 34.9628C24.8027 34.8508 24.7016 34.7366 24.6061 34.6186C24.4628 34.4416 24.3439 34.2459 24.2107 34.0621C24.1541 33.9841 24.0034 33.783 23.9869 33.7506C23.8448 33.4667 24.0277 33.2841 24.0842 33.2352C24.111 33.2107 24.3929 32.9691 24.6889 33.2627C25.051 33.6214 25.3602 34.0203 25.6092 34.4477C25.9118 34.7493 26.2608 35.0171 26.6241 35.2275C28.0693 36.0638 29.293 35.4081 30.522 34.5555C30.7103 34.4232 30.9697 34.4651 31.1083 34.6474C31.2478 34.8311 31.2184 35.0923 31.0407 35.2382C30.3948 35.7752 29.5454 37.164 29.514 38.0296C29.5075 38.2108 29.6541 38.5373 29.7803 38.8694C29.9548 39.3309 30.1084 39.8003 30.0937 40.0515C30.092 40.0901 30.0384 40.5092 29.9954 40.5945C29.8912 40.7985 29.7225 40.8363 29.6142 40.8393C29.5058 40.8423 29.3556 40.8052 29.2141 40.6706C29.0663 40.53 28.8663 40.1711 28.8114 40.1024C28.6123 39.8532 28.2087 39.3729 27.7997 39.0024C27.5793 38.8029 27.3678 38.6246 27.1912 38.5845C26.5378 38.4364 25.9742 38.9071 25.5109 39.32C25.4573 39.3669 25.4047 39.4152 25.3513 39.4619C25.1857 39.6639 24.9967 39.859 24.7827 40.0441C24.4598 40.3241 24.1825 40.0407 24.1649 40.0215C24.1264 39.979 23.9377 39.7539 24.1365 39.4773C24.1586 39.4477 24.3397 39.2559 24.4091 39.1816C24.506 39.0783 24.608 38.9798 24.7115 38.8824C25.6563 37.6949 25.5954 36.2059 24.9101 34.9628ZM26.2004 35.9752C27.289 36.6029 28.283 36.588 29.2359 36.2392L29.2358 36.2393C28.9086 36.8507 28.6727 37.4978 28.655 37.9984C28.6481 38.1882 28.7359 38.5007 28.8534 38.8387C28.6309 38.6012 28.3822 38.3566 28.1434 38.1655C27.8712 37.9473 27.6017 37.7959 27.3818 37.7459C26.9575 37.6498 26.55 37.7128 26.1696 37.8655C26.3271 37.2448 26.3298 36.6025 26.2004 35.9752Z" fill="#4ADE80"/>
</g>
<g clip-path="url(#clip4_7362_28464)">
<path fill-rule="evenodd" clip-rule="evenodd" d="M4.22041 94.0732C4.11302 93.9611 4.01187 93.847 3.91639 93.7289C3.77311 93.5519 3.65416 93.3563 3.52097 93.1724C3.4644 93.0944 3.31369 92.8934 3.29722 92.8609C3.15508 92.5771 3.33797 92.3944 3.39454 92.3456C3.42135 92.3211 3.70322 92.0795 3.99919 92.373C4.36133 92.7318 4.67054 93.1307 4.9195 93.5581C5.22212 93.8596 5.57111 94.1275 5.9344 94.3378C7.37958 95.1742 8.60328 94.5185 9.8323 93.6658C10.0206 93.5336 10.28 93.5754 10.4186 93.7577C10.5581 93.9414 10.5287 94.2026 10.351 94.3485C9.70513 94.8856 8.85575 96.2743 8.82431 97.14C8.8178 97.3211 8.96444 97.6477 9.09058 97.9798C9.26513 98.4412 9.41873 98.9106 9.40396 99.1619C9.40231 99.2004 9.34868 99.6195 9.3057 99.7049C9.20155 99.9088 9.03285 99.9466 8.92449 99.9496C8.81612 99.9527 8.6659 99.9155 8.52444 99.781C8.37659 99.6403 8.17657 99.2815 8.12171 99.2128C7.92262 98.9635 7.519 98.4833 7.10997 98.1127C6.88965 97.9133 6.67807 97.7349 6.50154 97.6949C5.84809 97.5468 5.28455 98.0175 4.82122 98.4304C4.76763 98.4772 4.71501 98.5255 4.66156 98.5723C4.49602 98.7743 4.30704 98.9694 4.09299 99.1545C3.77006 99.4345 3.49283 99.151 3.4752 99.1318C3.43675 99.0894 3.24805 98.8642 3.44684 98.5876C3.46893 98.558 3.64997 98.3663 3.71942 98.292C3.8163 98.1887 3.91834 98.0901 4.02177 97.9927C4.96664 96.8052 4.9057 95.3162 4.22041 94.0732ZM5.51069 95.0856C6.59933 95.7133 7.5933 95.6984 8.54625 95.3495L8.54611 95.3496C8.21888 95.9611 7.98302 96.6081 7.96533 97.1088C7.95843 97.2985 8.04623 97.611 8.16369 97.9491C7.94121 97.7116 7.69247 97.467 7.45373 97.2759C7.18155 97.0576 6.912 96.9062 6.69208 96.8562C6.26782 96.7601 5.86031 96.8232 5.47991 96.9759C5.63738 96.3552 5.64006 95.7129 5.51069 95.0856Z" fill="#E5E7EB"/>
</g>
<g clip-path="url(#clip5_7362_28464)">
<path fill-rule="evenodd" clip-rule="evenodd" d="M239.69 91.7959C239.633 91.6717 239.582 91.5475 239.537 91.4218C239.469 91.2332 239.427 91.0362 239.37 90.8448C239.345 90.7636 239.278 90.5529 239.274 90.5211C239.238 90.2441 239.443 90.1453 239.504 90.1211C239.534 90.1085 239.838 89.9895 239.999 90.3191C240.196 90.7222 240.337 91.1432 240.42 91.5705C240.584 91.9087 240.797 92.2324 241.037 92.5125C241.996 93.6262 243.203 93.436 244.471 93.0836C244.666 93.0283 244.869 93.1382 244.932 93.3299C244.994 93.5229 244.894 93.7315 244.704 93.8012C244.012 94.0603 242.904 94.9681 242.627 95.6782C242.569 95.8269 242.596 96.1407 242.605 96.4532C242.616 96.8872 242.608 97.3218 242.522 97.5262C242.51 97.5578 242.344 97.8905 242.283 97.949C242.138 98.0882 241.987 98.0708 241.896 98.0419C241.805 98.013 241.691 97.9386 241.612 97.7858C241.53 97.6261 241.468 97.27 241.442 97.197C241.349 96.9322 241.153 96.4162 240.92 95.9898C240.795 95.7602 240.671 95.5507 240.536 95.4663C240.036 95.1538 239.431 95.3817 238.927 95.5905C238.868 95.6139 238.811 95.6388 238.753 95.6621C238.557 95.782 238.343 95.8893 238.112 95.9811C237.762 96.1202 237.614 95.8044 237.605 95.7833C237.585 95.7369 237.494 95.4951 237.739 95.3229C237.766 95.3047 237.972 95.1978 238.051 95.1562C238.162 95.0984 238.275 95.0461 238.389 94.9952C239.518 94.2822 239.899 93.0274 239.69 91.7959ZM240.469 93.011C241.191 93.8481 242.022 94.1237 242.914 94.11L242.914 94.11C242.465 94.5233 242.082 94.9925 241.922 95.4034C241.861 95.5591 241.844 95.8442 241.843 96.1591C241.727 95.8973 241.591 95.622 241.448 95.394C241.286 95.1338 241.105 94.9299 240.937 94.8246C240.613 94.6218 240.256 94.5561 239.895 94.5728C240.206 94.1027 240.394 93.5698 240.469 93.011Z" fill="#E5E7EB"/>
</g>
<circle cx="79.1135" cy="17.8204" r="2.5" transform="rotate(-19.2256 79.1135 17.8204)" stroke="#E5E7EB"/>
<defs>
<clipPath id="clip0_7362_28464">
<rect width="22.2734" height="22.2734" fill="white" transform="translate(185.204 68.5127) rotate(-15)"/>
</clipPath>
<clipPath id="clip1_7362_28464">
<rect width="11.0587" height="11.0587" fill="white" transform="translate(166 23.8623) rotate(-15)"/>
</clipPath>
<clipPath id="clip2_7362_28464">
<rect width="9.62799" height="9.62799" fill="white" transform="translate(55.4912 59.4111) rotate(-34.2256)"/>
</clipPath>
<clipPath id="clip3_7362_28464">
<rect width="9.62799" height="9.62799" fill="white" transform="translate(20.6897 35.5391) rotate(-34.2256)"/>
</clipPath>
<clipPath id="clip4_7362_28464">
<rect width="9.62799" height="9.62799" fill="white" transform="translate(0 94.6494) rotate(-34.2256)"/>
</clipPath>
<clipPath id="clip5_7362_28464">
<rect width="8.47256" height="8.47256" fill="white" transform="translate(236.016 91.0518) rotate(-15)"/>
</clipPath>
</defs>
</svg>
