<svg width="91" height="75" viewBox="0 0 91 75" fill="none" xmlns="http://www.w3.org/2000/svg">
<path d="M77.5169 32.6601L80.4406 25.7534L81.6126 26.2495L78.689 33.1562L77.5169 32.6601ZM75.8634 28.579L76.3595 27.4069L83.2662 30.3306L82.7701 31.5026L75.8634 28.579Z" fill="#FFB951"/>
<path d="M43.9995 16.875C51.1935 16.875 58.0929 19.7328 63.1798 24.8197C68.2667 29.9067 71.1245 36.806 71.1245 44C71.1245 51.194 68.2667 58.0933 63.1798 63.1803C58.0929 68.2672 51.1935 71.125 43.9995 71.125C36.8055 71.125 29.9062 68.2672 24.8192 63.1803C19.7323 58.0933 16.8745 51.194 16.8745 44C16.8745 36.806 19.7323 29.9067 24.8192 24.8197C29.9062 19.7328 36.8055 16.875 43.9995 16.875ZM40.6205 49.3514L34.5949 43.3219C34.3789 43.1059 34.1224 42.9345 33.8402 42.8176C33.5579 42.7007 33.2554 42.6405 32.9499 42.6405C32.6445 42.6405 32.342 42.7007 32.0597 42.8176C31.7775 42.9345 31.521 43.1059 31.305 43.3219C30.8687 43.7581 30.6237 44.3498 30.6237 44.9668C30.6237 45.5838 30.8687 46.1755 31.305 46.6117L38.9775 54.2843C39.1929 54.5014 39.4492 54.6737 39.7315 54.7912C40.0138 54.9088 40.3166 54.9694 40.6224 54.9694C40.9283 54.9694 41.2311 54.9088 41.5134 54.7912C41.7957 54.6737 42.052 54.5014 42.2674 54.2843L58.1549 38.3929C58.3738 38.1778 58.5479 37.9214 58.6673 37.6387C58.7866 37.3559 58.8488 37.0523 58.8502 36.7454C58.8517 36.4385 58.7923 36.1343 58.6756 35.8505C58.5589 35.5666 58.3871 35.3087 58.1702 35.0915C57.9534 34.8744 57.6956 34.7023 57.4119 34.5853C57.1282 34.4683 56.8241 34.4085 56.5172 34.4096C56.2103 34.4107 55.9066 34.4725 55.6237 34.5915C55.3408 34.7105 55.0843 34.8844 54.8689 35.103L40.6205 49.3514Z" fill="#18CB96"/>
<circle cx="9.49951" cy="21.5" r="3" stroke="#DF4740"/>
<circle cx="79.9995" cy="60" r="2.5" stroke="#56C1BC"/>
<path d="M8.01145 57.6359L2.40015 55.3409L7.19363 51.6282L8.01145 57.6359Z" stroke="#3899E3"/>
<path d="M50.5951 5.07279L46.7826 9.78648L44.6062 4.12748L50.5951 5.07279Z" stroke="#A159ED"/>
</svg>
