<svg width="333" height="89" viewBox="0 0 333 89" fill="none" xmlns="http://www.w3.org/2000/svg">
<g filter="url(#filter0_d_198_5511)">
<g clip-path="url(#clip0_198_5511)">
<rect x="3" y="1" width="327" height="83" rx="10" fill="#FAFBFC"/>
<g clip-path="url(#clip1_198_5511)">
<path d="M244.159 14.2557L241.211 15.6497C238.515 16.925 236.893 16.4604 235.78 14.1081L234.767 11.9658C234.674 11.7701 234.783 11.5201 235.007 11.4143C235.231 11.3084 235.493 11.3829 235.586 11.5785L236.599 13.7209C237.522 15.6724 238.641 15.9899 240.873 14.934L243.815 13.5425C246.047 12.4867 246.511 11.4205 245.588 9.46898L244.575 7.32663C244.483 7.13101 244.591 6.88101 244.815 6.77516C245.039 6.66932 245.301 6.74377 245.394 6.93939L246.407 9.08175C247.525 11.4315 246.85 12.9829 244.159 14.2557Z" fill="#18CB96"/>
<path d="M240.425 10.1813C239.825 10.4652 239.182 10.5182 238.616 10.3246C238.05 10.1309 237.638 9.72467 237.45 9.17142L236.308 5.81117C236.244 5.61953 236.351 5.39378 236.564 5.2931L239.113 4.08749C239.326 3.98681 239.566 4.04257 239.675 4.21833L241.549 7.23264C241.857 7.7291 241.909 8.30574 241.7 8.86597C241.474 9.43395 241.026 9.89728 240.425 10.1813ZM237.268 5.83584L238.297 8.85833C238.41 9.19609 238.661 9.44505 238.994 9.55611C239.67 9.78518 240.598 9.34631 240.85 8.67837C240.973 8.34568 240.94 7.99346 240.753 7.69662L239.069 4.98391L237.268 5.83584Z" fill="#18CB96"/>
<path d="M243.869 8.55244C242.761 9.07651 241.403 8.76127 240.833 7.85166L238.869 4.68764C238.811 4.5926 238.801 4.47433 238.842 4.36185C238.882 4.24936 238.971 4.15479 239.091 4.09799L240.756 3.31061C242.36 2.55162 243.386 2.78482 244.291 4.11993L245.071 5.37409C245.403 5.90613 245.459 6.53347 245.231 7.13782C245.002 7.74217 244.519 8.24523 243.869 8.55244ZM239.882 4.59943L241.618 7.39285C241.971 7.95572 242.843 8.16202 243.531 7.83674C243.946 7.64054 244.251 7.32662 244.399 6.94724C244.542 6.57044 244.501 6.17487 244.292 5.83032L243.518 4.59047C242.839 3.59217 242.289 3.46094 241.094 4.02631L239.882 4.59943Z" fill="#18CB96"/>
<path d="M236.955 11.8234C236.305 12.1306 235.61 12.1852 234.998 11.9784C234.386 11.7716 233.936 11.3301 233.736 10.7361L233.262 9.3543C232.803 7.7906 233.273 6.85004 234.878 6.09105L236.543 5.30367C236.657 5.24945 236.787 5.24076 236.905 5.27838C237.023 5.316 237.103 5.40071 237.14 5.50607L238.339 9.03152C238.681 10.0496 238.063 11.2993 236.955 11.8234ZM235.217 6.80676C234.021 7.37213 233.772 7.8755 234.114 9.05075L234.583 10.423C234.711 10.8063 234.996 11.0857 235.378 11.2147C235.76 11.3436 236.196 11.3065 236.616 11.1077C237.304 10.7824 237.703 9.97459 237.487 9.34719L236.428 6.23364L235.217 6.80676Z" fill="#18CB96"/>
<path d="M244.047 14.3074L241.318 15.5982C241.094 15.7041 240.832 15.6296 240.739 15.434L240.175 14.2411C239.701 13.2391 240.069 12.3935 241.215 11.8514C242.361 11.3093 243.249 11.5611 243.723 12.5631L244.287 13.7559C244.379 13.9516 244.271 14.2016 244.047 14.3074ZM241.389 14.6889L243.299 13.7853L242.904 12.9503C242.62 12.3491 242.242 12.2418 241.554 12.5671C240.866 12.8924 240.709 13.2527 240.994 13.8539L241.389 14.6889Z" fill="#18CB96"/>
<path d="M264.414 10.6169L261.471 4.74377C261.197 4.19781 261.166 3.55785 261.384 2.98664C261.601 2.41542 262.048 1.9571 262.616 1.72764L268.338 -0.567036C268.517 -0.636159 268.652 -0.779728 268.721 -0.959096C268.79 -1.13846 268.776 -1.33155 268.69 -1.50251L268.212 -2.45655C268.099 -2.68265 268.192 -2.96411 268.418 -3.07741C268.645 -3.19071 268.926 -3.09717 269.039 -2.87107L269.52 -1.91151C269.722 -1.50893 269.742 -1.04276 269.585 -0.626076C269.494 -0.394275 269.356 -0.187257 269.171 -0.018821L272.623 6.86904C272.902 7.42602 272.939 8.04942 272.729 8.62339C272.512 9.19461 272.082 9.64464 271.503 9.87963L267.218 11.6544C266.178 12.0995 264.92 11.6261 264.414 10.6169ZM268.364 0.420506L262.964 2.588C262.631 2.72071 262.38 2.97748 262.25 3.31138C262.121 3.64528 262.143 4.00663 262.304 4.32649L265.247 10.1996C265.534 10.7732 266.279 11.0484 266.875 10.8051L271.16 9.03029C271.497 8.88931 271.753 8.62978 271.871 8.3014C271.995 7.97026 271.973 7.6089 271.81 7.28354L268.369 0.41774L268.364 0.420506Z" fill="#56C1BC"/>
<path d="M261.121 10.9288C260.817 10.3222 261.064 9.57715 261.671 9.27317C262.277 8.96919 263.023 9.2168 263.326 9.82342C263.63 10.43 263.383 11.1751 262.776 11.479C262.17 11.783 261.425 11.5354 261.121 10.9288ZM262.499 10.2379C262.422 10.0835 262.24 10.023 262.085 10.1004C261.931 10.1778 261.87 10.3599 261.948 10.5143C262.025 10.6687 262.207 10.7292 262.362 10.6518C262.516 10.5745 262.577 10.3923 262.499 10.2379Z" fill="#56C1BC"/>
<path d="M258.91 6.51704C258.606 5.91043 258.853 5.16539 259.46 4.86141C260.067 4.55743 260.812 4.80505 261.116 5.41166C261.42 6.01828 261.172 6.76331 260.565 7.06729C259.959 7.37127 259.214 7.12366 258.91 6.51704ZM260.289 5.82618C260.211 5.67177 260.029 5.61124 259.875 5.68862C259.72 5.76599 259.66 5.94811 259.737 6.10252C259.814 6.25694 259.997 6.31746 260.151 6.24009C260.305 6.16271 260.366 5.98059 260.289 5.82618Z" fill="#56C1BC"/>
<path d="M270.154 9.67945L266.838 3.06181C266.724 2.83571 266.818 2.55425 267.044 2.44095C267.27 2.32765 267.552 2.42119 267.665 2.64729L270.981 9.26493C271.094 9.49103 271.001 9.77249 270.775 9.88579C270.549 9.99909 270.267 9.90555 270.154 9.67945Z" fill="#56C1BC"/>
<path d="M288.563 8.06073C288.448 8.01566 288.35 7.92832 288.295 7.80218L287.746 6.54076C287.639 6.29689 287.753 6.00711 287.997 5.90083C288.241 5.79455 288.531 5.90843 288.637 6.1523L289 6.98483L291.237 6.1148C291.485 6.01693 291.77 6.14288 291.868 6.39042C291.966 6.63795 291.84 6.92299 291.592 7.02086L288.919 8.06098C288.803 8.10625 288.678 8.1058 288.563 8.06073Z" fill="#3899E3"/>
<path d="M296.02 2.71946C295.905 2.67439 295.807 2.58705 295.752 2.46091L294.422 -0.591714C294.316 -0.835587 294.43 -1.12537 294.673 -1.23165C294.917 -1.33792 295.207 -1.22405 295.313 -0.980177L296.644 2.07245C296.75 2.31632 296.636 2.6061 296.392 2.71238C296.274 2.76369 296.135 2.76454 296.02 2.71946Z" fill="#3899E3"/>
<path d="M295.864 5.59912C295.822 5.58251 295.78 5.56591 295.737 5.5493L295.599 5.49474L286.078 1.75356C285.653 1.59353 285.17 1.40374 284.958 0.915996C284.787 0.535199 284.826 0.0627836 285.07 -0.559037C285.723 -2.21924 286.936 -1.7424 287.516 -1.51465L296.909 2.17671C297.489 2.40445 298.702 2.88129 298.05 4.54149C297.803 5.16935 297.513 5.53609 297.128 5.69863C296.691 5.8892 296.257 5.75332 295.864 5.59912ZM286.567 0.900185L296.099 4.64611C296.369 4.7589 296.622 4.85854 296.74 4.80723C296.799 4.78158 296.946 4.67227 297.138 4.18327C297.406 3.50108 297.266 3.36221 296.548 3.0799L287.16 -0.609089C286.441 -0.891398 286.244 -0.885378 285.976 -0.203186C285.784 0.285819 285.823 0.468666 285.843 0.52516C285.897 0.636855 286.156 0.738866 286.422 0.843249L286.567 0.900185Z" fill="#3899E3"/>
<path d="M289.771 11.6718L286.131 10.2413C283.97 9.39201 283.992 7.91632 284.244 6.72591L285.444 1.16933C285.499 0.9052 285.759 0.742216 286.023 0.797223C286.281 0.849857 286.45 1.11142 286.395 1.37554L285.196 6.92609C284.952 8.06346 285.086 8.78536 286.487 9.33574L290.127 10.7663C291.679 11.376 292.067 10.9014 292.679 9.92925L295.769 5.04534C295.915 4.8168 296.214 4.74632 296.44 4.89792C296.669 5.04348 296.733 5.34061 296.588 5.56915L293.498 10.4531C292.781 11.5861 291.957 12.5306 289.771 11.6718Z" fill="#3899E3"/>
<path d="M222.536 4.34583C222.435 4.2757 222.359 4.16824 222.335 4.03286L221.738 0.756812C221.691 0.495089 221.868 0.239057 222.129 0.19141C222.391 0.143762 222.647 0.320927 222.695 0.582651L223.291 3.8587C223.339 4.12043 223.162 4.37646 222.9 4.4241C222.774 4.44711 222.638 4.41596 222.536 4.34583Z" fill="#DF4740"/>
<path d="M221.728 7.11338C221.69 7.08754 221.653 7.0617 221.616 7.03587L221.493 6.95097L213.081 1.13034C212.704 0.877311 212.278 0.582035 212.182 0.0585883C212.103 -0.351225 212.249 -0.802114 212.63 -1.35151C213.645 -2.81836 214.717 -2.07648 215.229 -1.72215L223.528 4.02097C224.04 4.37531 225.113 5.11719 224.098 6.58403C223.714 7.13877 223.347 7.4293 222.936 7.49955C222.466 7.58499 222.074 7.35329 221.728 7.11338ZM213.752 0.411447L222.175 6.23946C222.411 6.41089 222.635 6.56591 222.761 6.5429C222.825 6.5314 222.993 6.45875 223.292 6.0267C223.709 5.42396 223.604 5.2566 222.969 4.81738L214.675 -0.922049C214.04 -1.36127 213.847 -1.40061 213.43 -0.797871C213.131 -0.365818 213.127 -0.178747 213.134 -0.119264C213.16 0.00175145 213.39 0.160462 213.624 0.322864L213.752 0.411447Z" fill="#DF4740"/>
<path d="M213.31 7.36355C213.091 7.21222 213.035 6.90537 213.186 6.68668L214.497 4.79312C214.648 4.57442 214.955 4.51856 215.173 4.66989C215.392 4.82122 215.448 5.12806 215.297 5.34676L213.986 7.24032C213.831 7.46435 213.528 7.51488 213.31 7.36355Z" fill="#DF4740"/>
<path d="M215.763 9.0613C215.544 8.90997 215.488 8.60313 215.639 8.38443L216.95 6.49087C217.101 6.27218 217.408 6.21631 217.627 6.36764C217.845 6.51897 217.901 6.82582 217.75 7.04451L216.44 8.93808C216.285 9.1621 215.981 9.21263 215.763 9.0613Z" fill="#DF4740"/>
<path d="M214.403 11.6306L211.187 9.40495C209.277 8.08359 209.636 6.65218 210.154 5.55097L212.594 0.416649C212.708 0.172119 212.998 0.0727748 213.243 0.186766C213.487 0.300757 213.587 0.590365 213.473 0.834895L211.036 5.96388C210.537 7.01503 210.503 7.74855 211.74 8.60485L214.957 10.8305C216.327 11.7791 216.814 11.4061 217.633 10.5997L221.758 6.55258C221.952 6.36342 222.26 6.36335 222.445 6.56268C222.635 6.75668 222.629 7.06067 222.435 7.24984L218.31 11.297C217.352 12.2358 216.334 12.9667 214.403 11.6306Z" fill="#DF4740"/>
<path d="M320.053 12.5962L316.566 10.8689C313.409 9.30578 312.729 7.28937 314.292 4.13307L316.019 0.64546C317.582 -2.51083 319.599 -3.19151 322.755 -1.62835L326.242 0.0988907C329.399 1.66205 330.079 3.67846 328.516 6.83475L326.789 10.3224C325.226 13.4787 323.209 14.1593 320.053 12.5962ZM322.323 -0.756449C319.643 -2.08355 318.218 -1.60238 316.891 1.07727L315.164 4.56489C313.837 7.24454 314.318 8.66993 316.997 9.99703L320.485 11.7243C323.165 13.0514 324.59 12.5702 325.917 9.89055L327.644 6.40294C328.971 3.72329 328.49 2.29789 325.811 0.970794L322.323 -0.756449Z" fill="#DE65E9"/>
<path d="M320.201 3.26085C319.707 3.01616 319.305 2.58546 319.114 2.02052C319.029 1.76846 319.167 1.48946 319.419 1.40437C319.671 1.31929 319.95 1.45747 320.035 1.70952C320.244 2.32661 320.918 2.66054 321.535 2.45223C321.787 2.36715 322.066 2.50533 322.151 2.75738C322.236 3.00943 322.098 3.28844 321.846 3.37352C321.284 3.55842 320.695 3.50554 320.201 3.26085Z" fill="#DE65E9"/>
<path d="M323.9 5.09142C323.406 4.84672 323.004 4.41603 322.813 3.85108C322.728 3.59903 322.866 3.32002 323.119 3.23494C323.371 3.14985 323.65 3.28803 323.735 3.54008C323.943 4.15717 324.617 4.49111 325.234 4.2828C325.486 4.19771 325.765 4.33589 325.85 4.58794C325.936 4.84 325.797 5.11901 325.545 5.20409C324.983 5.38898 324.394 5.33611 323.9 5.09142Z" fill="#DE65E9"/>
<path d="M319.347 9.63977C317.661 8.80494 316.974 6.75664 317.806 5.07677C318.068 4.54781 318.711 4.3307 319.24 4.59267L323.425 6.66536C323.954 6.92732 324.172 7.57049 323.91 8.09945C323.078 9.77931 321.032 10.4746 319.347 9.63977ZM318.809 5.46457C318.762 5.44154 318.701 5.46208 318.678 5.50858C318.082 6.71181 318.575 8.17197 319.778 8.76787C320.982 9.36377 322.442 8.87086 323.038 7.66763C323.061 7.62113 323.04 7.56029 322.994 7.53726L318.809 5.46457Z" fill="#DE65E9"/>
<path d="M323.37 39.6862C323.182 39.7893 322.97 39.8468 322.746 39.8438C322.293 39.841 321.889 39.604 321.671 39.206L320.709 37.4548C320.65 37.3467 320.449 37.1832 320.304 37.122L318.359 36.5032C317.998 36.3981 317.597 36.0855 317.425 35.7728L317.01 35.0166C316.663 34.3855 316.872 33.6342 317.48 33.3002L321.841 30.9055C322.438 30.5777 323.196 30.7982 323.524 31.3952L323.923 32.1229C324.142 32.5209 324.155 33.0836 324.052 33.4359L323.313 35.4994C323.266 35.629 323.279 35.881 323.369 36.0459L324.15 37.4673C324.346 37.8255 324.349 38.3422 324.152 38.672L323.863 39.2086C323.746 39.4134 323.575 39.5738 323.37 39.6862ZM317.949 34.153C317.812 34.2279 317.778 34.3947 317.862 34.5482L318.278 35.3044C318.318 35.3784 318.504 35.528 318.645 35.569L320.638 36.2063C320.965 36.3447 321.368 36.6339 321.562 36.9865L322.524 38.7376C322.586 38.8514 322.694 38.8733 322.752 38.8711C322.833 38.8709 322.948 38.8374 323.008 38.7306L323.301 38.1852C323.327 38.1261 323.322 37.9811 323.291 37.9243L322.51 36.5029C322.288 36.0992 322.241 35.5407 322.397 35.1515L323.12 33.1264C323.153 33.0119 323.142 32.722 323.064 32.5799L322.671 31.8635C322.602 31.7384 322.435 31.6897 322.31 31.7584L317.949 34.153Z" fill="#DF4740"/>
<path d="M326.632 40.7448L323.22 42.6181C320.133 44.3134 318.09 43.7186 316.394 40.6313L314.521 37.2199C312.826 34.1326 313.421 32.0892 316.508 30.3939L319.919 28.5206C323.007 26.8253 325.05 27.42 326.745 30.5074L328.619 33.9188C330.314 37.0061 329.719 39.0495 326.632 40.7448ZM316.976 31.2467C314.355 32.686 313.935 34.1305 315.374 36.7516L317.247 40.163C318.687 42.7841 320.131 43.2045 322.752 41.7652L326.164 39.892C328.785 38.4527 329.205 37.0082 327.766 34.3871L325.893 30.9757C324.453 28.3546 323.009 27.9342 320.388 29.3734L316.976 31.2467Z" fill="#DF4740"/>
<path d="M304 23.8397C303.87 23.8397 303.747 23.7878 303.656 23.697L302.086 22.1272C301.898 21.9391 301.898 21.6278 302.086 21.4397C302.275 21.2516 302.586 21.2516 302.774 21.4397L304 22.6656L306.789 19.8764C306.977 19.6883 307.289 19.6883 307.477 19.8764C307.665 20.0645 307.665 20.3759 307.477 20.564L304.344 23.697C304.253 23.7878 304.13 23.8397 304 23.8397Z" fill="#A159ED"/>
<path d="M304.782 28.757C304.374 28.757 303.965 28.6208 303.647 28.3483L302.622 27.4662C302.518 27.3754 302.259 27.2845 302.123 27.2845H301.007C300.047 27.2845 299.269 26.5062 299.269 25.5462V24.437C299.269 24.3008 299.178 24.0478 299.087 23.944L298.211 22.9127C297.68 22.2835 297.68 21.291 298.211 20.6618L299.087 19.6305C299.178 19.5267 299.269 19.2737 299.269 19.1375V18.0218C299.269 17.0618 300.047 16.2835 301.007 16.2835H302.129C302.265 16.2835 302.525 16.1862 302.629 16.1018L303.654 15.2197C304.289 14.6748 305.282 14.6748 305.917 15.2197L306.942 16.1018C307.046 16.1927 307.305 16.2835 307.442 16.2835H308.544C309.504 16.2835 310.283 17.0618 310.283 18.0218V19.1245C310.283 19.2608 310.38 19.5202 310.471 19.624L311.353 20.6489C311.898 21.2845 311.898 22.277 311.353 22.9127L310.471 23.9375C310.38 24.0413 310.283 24.3008 310.283 24.437V25.5397C310.283 26.4997 309.504 27.2781 308.544 27.2781H307.442C307.305 27.2781 307.046 27.3754 306.942 27.4597L305.917 28.3418C305.6 28.6208 305.191 28.757 304.782 28.757ZM301.007 17.2564C300.585 17.2564 300.242 17.6002 300.242 18.0218V19.131C300.242 19.5008 300.067 19.9743 299.827 20.2532L298.951 21.2845C298.724 21.5505 298.724 22.011 298.951 22.277L299.827 23.3083C300.067 23.5937 300.242 24.0608 300.242 24.4305V25.5397C300.242 25.9613 300.585 26.3051 301.007 26.3051H302.129C302.505 26.3051 302.979 26.4802 303.264 26.7267L304.289 27.6089C304.555 27.8359 305.022 27.8359 305.288 27.6089L306.313 26.7267C306.598 26.4867 307.072 26.3051 307.448 26.3051H308.551C308.973 26.3051 309.316 25.9613 309.316 25.5397V24.437C309.316 24.0608 309.491 23.5873 309.738 23.3018L310.62 22.277C310.847 22.011 310.847 21.544 310.62 21.2781L309.738 20.2532C309.491 19.9678 309.316 19.4943 309.316 19.1181V18.0218C309.316 17.6002 308.973 17.2564 308.551 17.2564H307.448C307.072 17.2564 306.598 17.0813 306.313 16.8348L305.288 15.9527C305.022 15.7256 304.555 15.7256 304.289 15.9527L303.264 16.8413C302.979 17.0813 302.499 17.2564 302.129 17.2564H301.007Z" fill="#A159ED"/>
</g>
<path d="M315 84.8243L312.192 85.61C309.651 86.321 308.262 85.5392 307.551 82.9982L306.765 80.1905C306.054 77.6496 306.836 76.2602 309.377 75.5491L312.184 74.7635C314.725 74.0524 316.115 74.8342 316.826 77.3752L317.611 80.1829C318.322 82.7238 317.541 84.1132 315 84.8243ZM309.573 76.251C307.416 76.8547 306.863 77.8369 307.467 79.9941L308.252 82.8018C308.856 84.959 309.838 85.5117 311.996 84.908L314.803 84.1224C316.96 83.5187 317.513 82.5365 316.909 80.3793L316.124 77.5716C315.52 75.4144 314.538 74.8617 312.381 75.4654L309.573 76.251Z" fill="#FFB951"/>
<path d="M313.627 79.0265C313.046 79.1888 312.441 78.8485 312.279 78.2682C312.117 77.688 312.457 77.0831 313.037 76.9207C313.618 76.7583 314.222 77.0987 314.385 77.679C314.547 78.2592 314.207 78.8641 313.627 79.0265ZM313.234 77.6226C313.042 77.6763 312.927 77.8799 312.981 78.0718C313.035 78.2636 313.238 78.3782 313.43 78.3245C313.622 78.2709 313.737 78.0672 313.683 77.8754C313.629 77.6835 313.426 77.5689 313.234 77.6226Z" fill="#FFB951"/>
<path d="M310.353 79.943C309.773 80.1053 309.168 79.765 309.006 79.1847C308.843 78.6045 309.184 77.9996 309.764 77.8372C310.344 77.6748 310.949 78.0152 311.111 78.5955C311.274 79.1757 310.933 79.7806 310.353 79.943ZM309.96 78.5391C309.768 78.5928 309.654 78.7964 309.707 78.9883C309.761 79.1802 309.965 79.2947 310.157 79.241C310.349 79.1874 310.463 78.9837 310.409 78.7919C310.356 78.6 310.152 78.4854 309.96 78.5391Z" fill="#FFB951"/>
<path d="M313.161 83.6727C311.804 84.0524 310.395 83.2558 310.017 81.9035C309.898 81.4776 310.147 81.0344 310.573 80.9153L313.942 79.9725C314.368 79.8533 314.811 80.1027 314.93 80.5285C315.309 81.8809 314.518 83.293 313.161 83.6727ZM310.769 81.6172C310.732 81.6277 310.708 81.6696 310.719 81.707C310.99 82.6757 311.996 83.2418 312.965 82.9708C313.933 82.6997 314.499 81.6936 314.228 80.7249C314.218 80.6875 314.176 80.6639 314.139 80.6744L310.769 81.6172Z" fill="#FFB951"/>
<path d="M322.31 68.2161L317.482 64.9462C316.558 64.3206 316.033 63.6044 315.934 62.8247C315.836 62.0449 316.149 61.2232 316.884 60.3812L320.095 56.6805C321.039 55.5881 322.06 54.7284 324.154 56.147L328.021 58.7658C330.11 60.1807 329.691 61.4478 329.032 62.7329L326.788 67.0883C326.273 68.0794 325.628 68.6846 324.871 68.877C324.094 69.0639 323.24 68.8454 322.31 68.2161ZM323.603 56.9489C322.056 55.9014 321.567 56.4627 320.828 57.3101L317.617 61.0108C317.074 61.6384 316.833 62.2033 316.899 62.695C316.966 63.1866 317.344 63.6697 318.031 64.1352L322.86 67.4051C323.547 67.8707 324.136 68.0423 324.617 67.9217C325.098 67.801 325.533 67.367 325.915 66.6304L328.159 62.275C328.676 61.2694 329.017 60.6153 327.465 59.5641L323.603 56.9489Z" fill="#6AD8DE"/>
<path d="M327.139 60.5192C326.919 60.3701 326.86 60.0638 327.009 59.8436L328.282 57.9639C328.675 57.3838 328.559 56.7803 327.979 56.3875L326.368 55.2963C325.788 54.9035 325.184 55.0196 324.791 55.5997L323.518 57.4794C323.369 57.6996 323.063 57.7586 322.843 57.6095C322.623 57.4603 322.564 57.1541 322.713 56.9339L323.986 55.0541C324.681 54.0283 325.888 53.796 326.913 54.4907L328.525 55.5819C329.551 56.2766 329.783 57.4837 329.088 58.5095L327.815 60.3892C327.666 60.6094 327.36 60.6684 327.139 60.5192Z" fill="#6AD8DE"/>
<path d="M326.225 66.9726L319.56 62.4588C319.34 62.3096 319.281 62.0034 319.43 61.7832C319.579 61.563 319.886 61.504 320.106 61.6532L326.771 66.167C326.991 66.3161 327.05 66.6224 326.901 66.8426C326.752 67.0628 326.446 67.1217 326.225 66.9726Z" fill="#6AD8DE"/>
</g>
</g>
<defs>
<filter id="filter0_d_198_5511" x="0.6" y="0.6" width="331.8" height="87.8" filterUnits="userSpaceOnUse" color-interpolation-filters="sRGB">
<feFlood flood-opacity="0" result="BackgroundImageFix"/>
<feColorMatrix in="SourceAlpha" type="matrix" values="0 0 0 0 0 0 0 0 0 0 0 0 0 0 0 0 0 0 127 0" result="hardAlpha"/>
<feOffset dy="2"/>
<feGaussianBlur stdDeviation="1.2"/>
<feComposite in2="hardAlpha" operator="out"/>
<feColorMatrix type="matrix" values="0 0 0 0 0 0 0 0 0 0 0 0 0 0 0 0 0 0 0.02 0"/>
<feBlend mode="normal" in2="BackgroundImageFix" result="effect1_dropShadow_198_5511"/>
<feBlend mode="normal" in="SourceGraphic" in2="effect1_dropShadow_198_5511" result="shape"/>
</filter>
<clipPath id="clip0_198_5511">
<rect x="3" y="1" width="327" height="83" rx="10" fill="white"/>
</clipPath>
<clipPath id="clip1_198_5511">
<rect width="128" height="87" fill="white" transform="translate(202 -3)"/>
</clipPath>
</defs>
</svg>
